<svg width="446" height="768" viewBox="0 0 446 768" fill="none" xmlns="http://www.w3.org/2000/svg">
<g opacity="0.3" filter="url(#filter0_d_827_812)">
<path d="M273.879 215.141C286.133 179.789 291.089 142.333 288.423 105.217C287.049 86.2176 281.389 67.9109 271.896 51.7537C262.402 35.5965 249.336 22.0347 233.738 12.1476C213.659 2.65445 191.258 -0.713476 169.128 2.43353C146.997 5.58054 126.042 15.1138 108.687 29.9303C74.5443 60.3036 49.1867 99.8199 35.5309 143.933C-34.6491 338.96 17.711 576.866 191.78 686.983C205.871 696.209 220.737 704.141 236.211 710.689C264.329 723.116 295.734 725.957 325.936 718.806C356.137 711.656 383.59 694.879 404.368 670.876C421.313 650.551 432.969 626.162 438.202 600.08C443.436 573.999 442.068 547.114 434.231 522.043C407.306 437.462 318.351 416.714 244.579 397.985" stroke="url(#paint0_linear_827_812)" stroke-miterlimit="10" stroke-linecap="round" shape-rendering="crispEdges"/>
</g>
<defs>
<filter id="filter0_d_827_812" x="0.867188" y="0.788086" width="444.955" height="766.375" filterUnits="userSpaceOnUse" color-interpolation-filters="sRGB">
<feFlood flood-opacity="0" result="BackgroundImageFix"/>
<feColorMatrix in="SourceAlpha" type="matrix" values="0 0 0 0 0 0 0 0 0 0 0 0 0 0 0 0 0 0 127 0" result="hardAlpha"/>
<feOffset dy="40"/>
<feGaussianBlur stdDeviation="2"/>
<feComposite in2="hardAlpha" operator="out"/>
<feColorMatrix type="matrix" values="0 0 0 0 0.529329 0 0 0 0 0.00367588 0 0 0 0 0.00367588 0 0 0 0.25 0"/>
<feBlend mode="normal" in2="BackgroundImageFix" result="effect1_dropShadow_827_812"/>
<feBlend mode="normal" in="SourceGraphic" in2="effect1_dropShadow_827_812" result="shape"/>
</filter>
<linearGradient id="paint0_linear_827_812" x1="222.312" y1="204.035" x2="394.51" y2="160.963" gradientUnits="userSpaceOnUse">
<stop stop-color="white"/>
<stop offset="1" stop-color="white" stop-opacity="0"/>
</linearGradient>
</defs>
</svg>
