<svg width="132" height="127" viewBox="0 0 132 127" fill="none" xmlns="http://www.w3.org/2000/svg">
<path d="M63.4817 76.8547L63.4816 76.8548L63.487 76.8664C63.9748 77.9112 64.2399 79.0461 64.2656 80.1989L64.2661 80.2199L64.2683 80.2409C64.3216 80.7386 64.2405 81.2415 64.0336 81.6972C63.8294 82.1468 63.5102 82.5343 63.1083 82.8206L60.4062 84.391L54.1743 73.6991L56.8759 72.129C57.3303 71.917 57.8334 71.8307 58.3327 71.8795C58.8385 71.9288 59.3215 72.1148 59.7297 72.4176L59.7506 72.4332L59.7731 72.4464C60.5108 72.8827 61.1711 73.4382 61.7271 74.0903L61.7271 74.0904L61.7315 74.0954C62.4535 74.9196 63.0438 75.8504 63.4817 76.8547Z" fill="#BD5B6A" stroke="white"/>
<path d="M54.017 71.2247L53.2367 71.1635L55.2228 70.0019L56.0095 70.0687L54.017 71.2247Z" fill="#BD5B6A" stroke="white"/>
<path d="M59.6629 74.3598L55.1298 71.7347L57.6328 70.2825L62.1659 72.9076L59.6629 74.3598Z" fill="#BD5B6A" stroke="white"/>
<path d="M62.6738 81.4293V77.9178L65.187 76.4665L65.1746 79.9666L62.6738 81.4293Z" fill="#BD5B6A" stroke="white"/>
<path d="M62.2697 76.9967L60.4595 75.0555L63.0731 73.5391L64.8954 75.4805L62.2697 76.9967Z" fill="#BD5B6A" stroke="white"/>
<path d="M53.9818 72.2253L59.3495 75.3337L61.6737 77.8262V81.4351L52.0928 75.9049L52.1064 72.0782L53.9818 72.2253Z" fill="#BD5B6A" stroke="white"/>
<path d="M53.9083 81.0069C53.1261 79.6442 52.679 78.1152 52.6036 76.5458C52.6142 75.1578 53.1069 74.3114 53.7583 73.9406C54.4102 73.5693 55.3965 73.5746 56.6128 74.2749C57.9263 75.132 59.0186 76.2874 59.8006 77.647C60.5824 79.0064 61.0318 80.5313 61.1123 82.0973C61.1015 83.4941 60.6081 84.3442 59.9568 84.7166C59.3051 85.0893 58.3192 85.0843 57.1027 84.3837C55.7855 83.5271 54.6906 82.3698 53.9083 81.0069Z" fill="#BD5B6A" stroke="white"/>
<path d="M54.6216 75.1431C55.0712 74.9022 55.7758 74.907 56.6736 75.4421C57.6365 76.0951 58.4326 76.9654 58.9975 77.9827C59.563 79.0012 59.8809 80.1385 59.9255 81.3025C59.9233 82.325 59.5571 82.8973 59.1127 83.1347C58.6607 83.3761 57.9429 83.3713 57.0271 82.8345C56.0623 82.1846 55.2649 81.3155 54.7001 80.2984C54.1352 79.2811 53.8191 78.1446 53.7775 76.9818C53.803 75.9585 54.1757 75.3821 54.6216 75.1431Z" fill="#BD5B6A" stroke="white"/>
<mask id="path-9-inside-1_733_937" fill="white">
<path d="M81.483 108.516L82.3084 106.321L83.0843 105.858L82.2754 108.054C82.1786 108.372 81.9667 108.643 81.6811 108.813L80.8887 109.276C81.1712 109.102 81.3821 108.832 81.483 108.516Z"/>
</mask>
<path d="M81.483 108.516L82.3084 106.321L83.0843 105.858L82.2754 108.054C82.1786 108.372 81.9667 108.643 81.6811 108.813L80.8887 109.276C81.1712 109.102 81.3821 108.832 81.483 108.516Z" fill="#BD5B6A"/>
<path d="M82.3084 106.321L81.7966 105.462L81.4956 105.641L81.3724 105.969L82.3084 106.321ZM83.0843 105.858L84.0226 106.204L84.9991 103.554L82.5725 104.999L83.0843 105.858ZM82.2754 108.054L81.337 107.708L81.327 107.735L81.3186 107.763L82.2754 108.054ZM81.6811 108.813L82.185 109.677L82.1934 109.672L81.6811 108.813ZM80.8887 109.276L80.3646 108.424L81.3925 110.139L80.8887 109.276ZM82.419 108.868L83.2444 106.673L81.3724 105.969L80.5469 108.164L82.419 108.868ZM82.8202 107.18L83.5961 106.718L82.5725 104.999L81.7966 105.462L82.8202 107.18ZM82.146 105.513L81.337 107.708L83.2137 108.4L84.0226 106.204L82.146 105.513ZM81.3186 107.763C81.2942 107.843 81.2408 107.912 81.1688 107.955L82.1934 109.672C82.6927 109.374 83.063 108.901 83.2321 108.345L81.3186 107.763ZM81.1772 107.95L80.3848 108.412L81.3925 110.139L82.1849 109.677L81.1772 107.95ZM81.4128 110.127C81.8991 109.828 82.262 109.364 82.4356 108.82L80.5303 108.212C80.5022 108.3 80.4434 108.375 80.3646 108.424L81.4128 110.127Z" fill="white" mask="url(#path-9-inside-1_733_937)"/>
<path d="M81.017 108.291L81.0169 108.291L81.014 108.299C80.8904 108.646 80.6815 108.813 80.4422 108.87C80.1836 108.932 79.8041 108.885 79.3365 108.618C78.2705 107.917 77.498 106.849 77.1648 105.616L76.6622 103.638L81.6921 106.495L81.017 108.291Z" fill="#BD5B6A" stroke="white"/>
<path d="M75.6985 105.57L75.6986 105.57L75.7076 105.565C76.1335 105.319 76.6166 105.19 77.1084 105.19C77.5999 105.19 78.0828 105.319 78.5085 105.565C79.6408 106.224 80.5689 107.541 80.8713 108.9C81.1685 110.235 80.8509 111.513 79.6442 112.279L79.3272 112.453L79.3201 112.457L79.3132 112.461C78.7417 112.8 78.0628 112.909 77.414 112.766L77.414 112.766L77.4072 112.765C76.1429 112.505 74.8653 111.214 74.31 109.678C73.7655 108.171 73.9769 106.634 75.3814 105.745L75.6985 105.57Z" fill="#BD5B6A" stroke="white"/>
<path d="M76.2649 111.92C75.7195 111.563 75.2656 111.083 74.94 110.518C74.6143 109.954 74.4262 109.32 74.3907 108.669C74.3936 108.118 74.5878 107.858 74.7624 107.759C74.9391 107.659 75.27 107.625 75.7581 107.903C76.3097 108.267 76.7672 108.757 77.0932 109.333C77.4198 109.909 77.6049 110.555 77.6333 111.217C77.6309 111.727 77.4433 111.973 77.2686 112.069C77.0885 112.167 76.7527 112.198 76.2649 111.92Z" fill="#BD5B6A" stroke="white"/>
<g style="mix-blend-mode:screen" opacity="0.2">
<mask id="path-14-inside-2_733_937" fill="white">
<path d="M75.4591 105.132C75.8181 104.963 76.216 104.894 76.6111 104.932C77.0061 104.97 77.3836 105.113 77.7042 105.347C78.6106 105.94 79.3651 106.737 79.907 107.674C80.4489 108.612 80.7631 109.664 80.8243 110.745C80.8627 111.133 80.7973 111.523 80.6348 111.877C80.4723 112.231 80.2187 112.536 79.8998 112.759L79.5697 112.941C79.8867 112.72 80.1384 112.418 80.2982 112.067C80.458 111.715 80.52 111.327 80.4776 110.943C80.4243 109.86 80.1135 108.805 79.5708 107.867C79.0282 106.928 78.2694 106.132 77.3575 105.545C77.041 105.31 76.6671 105.164 76.2749 105.124C75.8828 105.083 75.4869 105.149 75.1289 105.314L75.4591 105.132Z"/>
</mask>
<path d="M75.4591 105.132C75.8181 104.963 76.216 104.894 76.6111 104.932C77.0061 104.97 77.3836 105.113 77.7042 105.347C78.6106 105.94 79.3651 106.737 79.907 107.674C80.4489 108.612 80.7631 109.664 80.8243 110.745C80.8627 111.133 80.7973 111.523 80.6348 111.877C80.4723 112.231 80.2187 112.536 79.8998 112.759L79.5697 112.941C79.8867 112.72 80.1384 112.418 80.2982 112.067C80.458 111.715 80.52 111.327 80.4776 110.943C80.4243 109.86 80.1135 108.805 79.5708 107.867C79.0282 106.928 78.2694 106.132 77.3575 105.545C77.041 105.31 76.6671 105.164 76.2749 105.124C75.8828 105.083 75.4869 105.149 75.1289 105.314L75.4591 105.132Z" fill="#BD5B6A"/>
<path d="M75.4591 105.132L75.0335 104.227L75.0049 104.241L74.9771 104.256L75.4591 105.132ZM77.7042 105.347L77.1149 106.155L77.1355 106.17L77.1569 106.184L77.7042 105.347ZM80.8243 110.745L79.8259 110.802L79.8271 110.823L79.8292 110.844L80.8243 110.745ZM79.8998 112.759L80.3817 113.635L80.4294 113.609L80.4739 113.578L79.8998 112.759ZM79.5697 112.941L78.9988 112.12L80.0516 113.817L79.5697 112.941ZM80.4776 110.943L79.4788 110.992L79.4803 111.023L79.4837 111.053L80.4776 110.943ZM77.3575 105.545L76.7613 106.348L76.7882 106.368L76.8164 106.386L77.3575 105.545ZM75.1289 105.314L74.647 104.438L75.5477 106.222L75.1289 105.314ZM75.8847 106.037C76.0814 105.945 76.2994 105.907 76.5159 105.927L76.7062 103.936C76.1326 103.882 75.5549 103.982 75.0335 104.227L75.8847 106.037ZM76.5159 105.927C76.7323 105.948 76.9392 106.027 77.1149 106.155L78.2935 104.539C77.828 104.199 77.2798 103.991 76.7062 103.936L76.5159 105.927ZM77.1569 106.184C77.9322 106.691 78.5776 107.373 79.0412 108.175L80.7728 107.174C80.1525 106.101 79.2889 105.188 78.2515 104.51L77.1569 106.184ZM79.0412 108.175C79.5048 108.977 79.7736 109.877 79.8259 110.802L81.8227 110.689C81.7527 109.451 81.3931 108.247 80.7728 107.174L79.0412 108.175ZM79.8292 110.844C79.8501 111.055 79.8144 111.267 79.726 111.46L81.5436 112.294C81.7801 111.779 81.8753 111.211 81.8194 110.647L79.8292 110.844ZM79.726 111.46C79.6375 111.653 79.4994 111.819 79.3258 111.94L80.4739 113.578C80.938 113.253 81.3072 112.81 81.5436 112.294L79.726 111.46ZM79.4179 111.883L79.0877 112.064L80.0516 113.817L80.3817 113.635L79.4179 111.883ZM80.1405 113.762C80.6053 113.439 80.9743 112.996 81.2086 112.481L79.3879 111.653C79.3025 111.841 79.1681 112.002 78.9988 112.12L80.1405 113.762ZM81.2086 112.481C81.4429 111.965 81.5337 111.396 81.4716 110.833L79.4837 111.053C79.5063 111.258 79.4732 111.465 79.3879 111.653L81.2086 112.481ZM81.4764 110.894C81.4153 109.652 81.0588 108.443 80.4366 107.366L78.705 108.367C79.1681 109.168 79.4334 110.068 79.4788 110.992L81.4764 110.894ZM80.4366 107.366C79.8144 106.29 78.9443 105.377 77.8987 104.704L76.8164 106.386C77.5945 106.887 78.242 107.566 78.705 108.367L80.4366 107.366ZM77.9538 104.742C77.4931 104.4 76.9488 104.188 76.3781 104.129L76.1718 106.118C76.3853 106.141 76.589 106.22 76.7613 106.348L77.9538 104.742ZM76.3781 104.129C75.8073 104.07 75.2312 104.165 74.7101 104.406L75.5477 106.222C75.7427 106.132 75.9582 106.096 76.1718 106.118L76.3781 104.129ZM75.6108 106.19L75.941 106.008L74.9771 104.256L74.647 104.438L75.6108 106.19Z" fill="white" mask="url(#path-14-inside-2_733_937)"/>
</g>
<mask id="path-16-inside-3_733_937" fill="white">
<path d="M77.6861 110.745L78.495 108.55L79.2874 108.104L78.4785 110.283C78.3803 110.601 78.1688 110.871 77.8842 111.042L77.0918 111.505C77.3734 111.33 77.5839 111.061 77.6861 110.745Z"/>
</mask>
<path d="M77.6861 110.745L78.495 108.55L79.2874 108.104L78.4785 110.283C78.3803 110.601 78.1688 110.871 77.8842 111.042L77.0918 111.505C77.3734 111.33 77.5839 111.061 77.6861 110.745Z" fill="#BD5B6A"/>
<path d="M78.495 108.55L78.0048 107.678L77.6839 107.859L77.5567 108.204L78.495 108.55ZM79.2874 108.104L80.2249 108.452L81.1739 105.896L78.7972 107.232L79.2874 108.104ZM78.4785 110.283L77.541 109.935L77.5313 109.961L77.5231 109.988L78.4785 110.283ZM77.8842 111.042L78.3881 111.906L78.3943 111.903L78.4006 111.899L77.8842 111.042ZM77.0918 111.505L76.564 110.655L77.5957 112.369L77.0918 111.505ZM78.6244 111.091L79.4334 108.895L77.5567 108.204L76.7478 110.4L78.6244 111.091ZM78.9853 109.421L79.7777 108.976L78.7972 107.232L78.0048 107.678L78.9853 109.421ZM78.3499 107.756L77.541 109.935L79.416 110.631L80.2249 108.452L78.3499 107.756ZM77.5231 109.988C77.4975 110.071 77.4422 110.141 77.3679 110.186L78.4006 111.899C78.8954 111.601 79.2632 111.131 79.4339 110.579L77.5231 109.988ZM77.3803 110.179L76.5879 110.641L77.5957 112.369L78.3881 111.906L77.3803 110.179ZM77.6196 112.354C78.1018 112.054 78.4624 111.594 78.6374 111.054L76.7348 110.437C76.7054 110.528 76.6449 110.605 76.564 110.655L77.6196 112.354Z" fill="white" mask="url(#path-16-inside-3_733_937)"/>
<path d="M73.4175 107.779L73.4175 107.779L73.4157 107.773L72.8903 105.867L77.9293 108.663L77.2685 110.457L77.2685 110.457L77.2666 110.462C77.1431 110.809 76.9342 110.975 76.6949 111.033C76.4359 111.095 76.0559 111.047 75.5875 110.78C74.5147 110.086 73.7405 109.016 73.4175 107.779Z" fill="#BD5B6A" stroke="white"/>
<mask id="path-19-inside-4_733_937" fill="white">
<path d="M71.4297 104.702V105.561L78.4623 109.655V108.78L71.4297 104.702Z"/>
</mask>
<path d="M71.4297 104.702V105.561L78.4623 109.655V108.78L71.4297 104.702Z" fill="#BD5B6A"/>
<path d="M71.4297 104.702L71.9313 103.837L70.4297 102.966V104.702H71.4297ZM71.4297 105.561H70.4297V106.136L70.9266 106.425L71.4297 105.561ZM78.4623 109.655L77.9592 110.519L79.4623 111.394V109.655H78.4623ZM78.4623 108.78H79.4623V108.204L78.9639 107.915L78.4623 108.78ZM70.4297 104.702V105.561H72.4297V104.702H70.4297ZM70.9266 106.425L77.9592 110.519L78.9654 108.79L71.9328 104.696L70.9266 106.425ZM79.4623 109.655V108.78H77.4623V109.655H79.4623ZM78.9639 107.915L71.9313 103.837L70.9281 105.567L77.9607 109.645L78.9639 107.915Z" fill="white" mask="url(#path-19-inside-4_733_937)"/>
<mask id="path-21-inside-5_733_937" fill="white">
<path d="M78.4609 108.78V109.654L83.496 106.749V105.874L78.4609 108.78Z"/>
</mask>
<path d="M78.4609 108.78V109.654L83.496 106.749V105.874L78.4609 108.78Z" fill="#BD5B6A"/>
<path d="M78.4609 108.78L77.9611 107.913L77.4609 108.202V108.78H78.4609ZM78.4609 109.654H77.4609V111.386L78.9607 110.521L78.4609 109.654ZM83.496 106.749L83.9958 107.615L84.496 107.326V106.749H83.496ZM83.496 105.874H84.496V104.142L82.9962 105.008L83.496 105.874ZM77.4609 108.78V109.654H79.4609V108.78H77.4609ZM78.9607 110.521L83.9958 107.615L82.9962 105.883L77.9611 108.788L78.9607 110.521ZM84.496 106.749V105.874H82.496V106.749H84.496ZM82.9962 105.008L77.9611 107.913L78.9607 109.646L83.9958 106.74L82.9962 105.008Z" fill="white" mask="url(#path-21-inside-5_733_937)"/>
<path d="M42.3228 94.3435V99.0495L0.5 74.9135V70.1913L42.3228 94.3435Z" fill="#BD5B6A" stroke="white"/>
<path d="M67.3325 80.476V85.1981L43.3223 99.0495V94.3434L67.3325 80.476Z" fill="#BD5B6A" stroke="white"/>
<path d="M76.7757 107.453V108.674L52.2207 94.4927V89.8771L76.7757 107.453Z" fill="#BD5B6A" stroke="white"/>
<path d="M84.0245 103.869V105.074L77.7773 108.675V107.484L84.0245 103.869Z" fill="#BD5B6A" stroke="white"/>
<path d="M77.3045 106.601L52.6432 88.9491L58.9388 85.3209L83.6013 102.957L77.3045 106.601Z" fill="#BD5B6A" stroke="white"/>
<path d="M35.0044 93.2515L35.0042 93.2516L35.0102 93.2641C35.517 94.3186 35.8037 95.4653 35.8527 96.6342L35.8534 96.6492L35.8549 96.6641C35.9056 97.1596 35.8232 97.6596 35.6164 98.1126C35.4122 98.5598 35.0941 98.9453 34.6939 99.2305L31.9751 100.831L25.7428 90.1381L28.477 88.5231C28.921 88.3261 29.4087 88.2478 29.8923 88.2961C30.3843 88.3453 30.8546 88.5239 31.2553 88.8137L31.2731 88.8266L31.2918 88.8378C32.0241 89.2754 32.679 89.8308 33.2304 90.4817L33.2304 90.4817L33.2354 90.4875C33.9593 91.3157 34.5555 92.2473 35.0044 93.2515Z" fill="#BD5B6A" stroke="white"/>
<path d="M25.5207 87.6826L24.7395 87.6157L26.7422 86.4443L27.5235 86.5111L25.5207 87.6826Z" fill="#BD5B6A" stroke="white"/>
<path d="M29.3874 85.7144L1.0003 69.3255L25.0102 55.4742L66.8331 79.6102L42.8229 93.4775L34.9344 88.9172L34.6837 88.7722L34.4333 88.9176L31.1831 90.8032L26.6346 88.1905L29.3898 86.579L30.1325 86.1446L29.3874 85.7144Z" fill="#BD5B6A" stroke="white"/>
<path d="M29.3874 85.7144L1.0003 69.3255L24.9169 55.528L47.0167 79.0656L42.476 91.2107H38.9121L34.9339 88.9169L34.6834 88.7724L34.4333 88.9176L31.1831 90.8032L26.6346 88.1905L29.3898 86.579L30.1325 86.1446L29.3874 85.7144Z" fill="#BD5B6A" stroke="white"/>
<path d="M34.1808 97.8735L34.1932 94.3601L36.6909 92.911L36.6785 96.4243L34.1808 97.8735Z" fill="#BD5B6A" stroke="white"/>
<path d="M33.7887 93.439L31.979 91.4983L34.5915 89.9826L36.4012 91.9232L33.7887 93.439Z" fill="#BD5B6A" stroke="white"/>
<path d="M25.4841 88.6833L30.8696 91.7768L33.1925 94.2678L33.1798 97.8786L23.6124 92.3475L23.6259 88.5244L25.4841 88.6833Z" fill="#BD5B6A" stroke="white"/>
<path d="M25.3964 97.4483C24.6143 96.0857 24.1666 94.5571 24.0899 92.988C24.1006 91.6001 24.5933 90.7538 25.2446 90.383C25.8966 90.0117 26.883 90.017 28.0995 90.7175C29.4167 91.5741 30.5116 92.7315 31.2939 94.0943C32.0763 95.4574 32.5235 96.987 32.5987 98.5568C32.596 99.9437 32.1035 100.79 31.4506 101.16C30.796 101.532 29.8052 101.526 28.5892 100.826C27.2729 99.9686 26.1786 98.811 25.3964 97.4483Z" fill="#BD5B6A" stroke="white"/>
<path d="M26.1292 91.5699C26.5889 91.3243 27.2974 91.3225 28.1807 91.8225C29.1441 92.4722 29.9405 93.3405 30.5047 94.3567C31.0705 95.3756 31.3867 96.514 31.4274 97.6787C31.4254 98.7016 31.0591 99.2742 30.6147 99.5116C30.1627 99.753 29.4452 99.7482 28.5297 99.2119C27.5674 98.559 26.7719 97.6891 26.2073 96.6724C25.6427 95.6555 25.3249 94.5203 25.2795 93.3582C25.305 92.3776 25.6756 91.8122 26.1292 91.5699Z" fill="#BD5B6A" stroke="white"/>
<path d="M11.8478 41.0956L32.2921 29.2917L63.2528 47.1709L42.8243 58.9747L11.8478 41.0956Z" fill="#BD5B6A" stroke="white"/>
<path d="M42.3235 59.8408V90.8447L4.27582 68.8873C5.13948 59.7593 6.67745 50.4059 11.0512 41.7911L42.3235 59.8408Z" fill="#BD5B6A" stroke="white"/>
<path d="M63.7521 48.0378V79.0575L43.3242 90.8453V59.8413L63.7521 48.0378Z" fill="#BD5B6A" stroke="white"/>
<path opacity="0.6" d="M52.0167 45.4169L52.0168 45.4169C54.556 46.5191 57.0833 47.6448 59.6213 48.7753C59.785 48.8483 59.9487 48.9212 60.1125 48.9942L52.0325 53.6535H38.0867L14.1073 39.7916L25.7225 33.0911C27.8279 33.8312 29.8248 34.8664 31.816 35.9863C32.4378 36.336 33.0611 36.6953 33.6871 37.0561C35.1201 37.882 36.5669 38.7159 38.0405 39.4614C40.9317 40.9281 43.9546 42.1366 46.9538 43.3357C48.6586 44.0173 50.3558 44.6958 52.0167 45.4169Z" fill="#BD5B6A" stroke="white"/>
<path d="M43.5638 49.3093L28.5176 40.6253V27.401L43.5638 36.0851V49.3093Z" fill="#BD5B6A" stroke="white"/>
<path d="M49.9697 32.9641V46.1883L44.5645 49.3089V36.0847L49.9697 32.9641Z" fill="#BD5B6A" stroke="white"/>
<path d="M44.0637 35.2187L29.0177 26.5347L34.4229 23.4142L49.4689 32.0982L44.0637 35.2187Z" fill="#BD5B6A" stroke="white"/>
<path d="M74.5784 70.8698L74.5754 70.8729L67.3142 75.0917L67.3172 75.0886L74.5784 70.8698Z" fill="#BD5B6A" stroke="white"/>
<path d="M59.9233 61.3146L59.9233 61.3146L59.9194 61.306C56.6912 54.3106 54.9181 46.7334 54.7064 39.034L64.3227 33.447C64.6047 41.0932 66.4001 48.6107 69.6079 55.5633C71.5952 60.0787 74.0323 64.3819 76.882 68.4078L67.1361 74.0614C64.3069 70.0678 61.8901 65.797 59.9233 61.3146Z" fill="#BD5B6A" stroke="white"/>
<path d="M63.7989 32.5948L54.1973 38.1732L22.1129 19.6494L31.7144 14.071L63.7989 32.5948Z" fill="#BD5B6A" stroke="white"/>
<path d="M52.2399 50.0042L52.1887 49.7982L52.0048 49.692L17.7253 29.8821L21.4351 20.375L53.6981 39.0391C53.7454 50.3588 58.468 63.5589 66.3401 74.6213L64.3492 76.6365C58.7187 68.5759 54.6138 59.5492 52.2399 50.0042Z" fill="#BD5B6A" stroke="white"/>
<path d="M61.7075 18.32L61.7075 18.32L61.7118 18.3138C62.3874 17.3197 63.0549 16.7458 63.8672 16.3162C64.6799 15.8864 65.6441 15.5954 66.9668 15.1963C67.0064 15.1843 67.0463 15.1723 67.0866 15.1601C69.0994 14.5525 71.7925 13.7215 75.6376 11.843C72.2647 15.4974 70.3957 20.4713 69.8354 26.1777C69.0728 33.9437 70.7244 43.1158 74.3408 52.3341C81.4823 70.5382 96.347 89.0717 115.767 97.4601L107.604 104.824C86.8083 99.1021 71.9949 82.3026 64.0434 64.4736C60.0528 55.5257 57.8016 46.3413 57.388 38.2064C56.9738 30.0596 58.4046 23.0252 61.7075 18.32Z" fill="#BD5B6A" stroke="white"/>
<path d="M79.5108 9.31912L79.4991 9.31704L79.4872 9.31552C75.2925 8.781 71.0548 8.69721 66.8467 9.06415L76.885 3.22789C86.693 -2.46397 99.3386 1.48412 110.158 8.36792L110.159 8.368C113.461 10.4676 116.603 12.8089 119.558 15.3726L108.359 21.8073C102.87 18.3486 91.3183 11.4018 79.5108 9.31912Z" fill="#BD5B6A" stroke="white"/>
<path d="M105.783 109.286C79.2423 100.099 61.1002 72.65 55.628 48.5448C52.869 36.3914 53.3562 25.1937 57.5102 17.6631C59.5808 13.9096 62.5613 11.0661 66.5186 9.44864C70.481 7.82912 75.4628 7.42257 81.5562 8.61793C85.3349 9.3644 89.015 10.5436 92.5239 12.1322L92.5263 12.1333C95.352 13.3946 99.2352 15.4774 102.423 17.2518C104.014 18.1377 105.428 18.9443 106.444 19.5295C106.952 19.822 107.361 20.0592 107.642 20.2231C107.713 20.2645 107.776 20.3013 107.831 20.333V24.1181C102.663 21.0497 97.3473 18.2394 91.9015 15.6974L91.8931 15.6935L91.8846 15.6899C89.0836 14.5068 86.1543 13.6538 83.156 13.1482L105.783 109.286ZM105.783 109.286V105.312C81.5694 97.2948 64.7635 72.5483 59.4811 50.7336C56.8276 39.7754 57.0554 29.453 60.8109 22.3127C62.6948 18.7309 65.4674 15.9505 69.1968 14.313C72.9215 12.6777 77.5608 12.1993 83.1558 13.1481L105.783 109.286Z" fill="#BD5B6A" stroke="white"/>
<path d="M117.569 111.99V125.611L99.1608 114.982L95.6387 107.105V99.328L117.569 111.99Z" fill="#BD5B6A" stroke="white"/>
<path d="M130.595 105.055V118.66L118.57 125.61V111.99L130.595 105.055Z" fill="#BD5B6A" stroke="white"/>
<path d="M118.069 111.124L96.1378 98.4614L108.148 91.5116L130.094 104.19L118.069 111.124Z" fill="#BD5B6A" stroke="white"/>
<path d="M117.702 108.013L100.725 98.2227V95.7954L117.702 105.602V108.013Z" fill="#BD5B6A" stroke="white"/>
<path d="M125.578 101.638V104.05L118.703 108.013V105.602L125.578 101.638Z" fill="#BD5B6A" stroke="white"/>
<path d="M118.203 104.735L101.225 94.9294L108.099 90.9664L125.076 100.773L118.203 104.735Z" fill="#BD5B6A" stroke="white"/>
<path d="M118.202 103.86L102.728 94.9293L108.098 91.8407L123.573 100.772L118.202 103.86Z" fill="#BD5B6A" stroke="white"/>
<path d="M130.73 31.083C130.73 33.0302 129.443 35.0799 126.645 36.6936C123.472 38.3066 119.961 39.1474 116.401 39.1474C112.84 39.1474 109.33 38.3065 106.155 36.6931C103.359 35.0963 102.072 33.047 102.072 31.0954C102.072 29.1433 103.359 27.0856 106.156 25.4724C109.33 23.8593 112.84 23.0186 116.401 23.0186C119.961 23.0186 123.472 23.8593 126.646 25.4724C129.443 27.0861 130.73 29.1358 130.73 31.083Z" fill="#BD5B6A" stroke="white"/>
<path d="M106.157 39.0876C103.873 37.7648 102.594 36.1501 102.205 34.543C102.986 35.6653 104.157 36.693 105.668 37.5663L105.679 37.573L105.691 37.579C109.009 39.2674 112.678 40.1475 116.401 40.1475C120.123 40.1475 123.793 39.2674 127.11 37.579L127.121 37.5734L127.132 37.5672C128.645 36.7004 129.806 35.6753 130.582 34.5597C130.181 36.1686 128.927 37.777 126.646 39.0872C123.472 40.7004 119.961 41.5412 116.401 41.5412C112.84 41.5412 109.33 40.7005 106.157 39.0876Z" fill="#BD5B6A" stroke="white"/>
<path d="M129.396 20.5728C129.396 22.3197 128.242 24.1674 125.708 25.6327C122.829 27.0988 119.644 27.8632 116.413 27.8632C113.182 27.8632 109.997 27.0988 107.118 25.6327C104.584 24.1674 103.43 22.3197 103.43 20.5728C103.43 18.8258 104.584 16.9742 107.118 15.5007C109.999 14.0422 113.183 13.2822 116.413 13.2822C119.642 13.2822 122.827 14.0422 125.708 15.5007C128.242 16.9742 129.396 18.8258 129.396 20.5728Z" fill="#BD5B6A" stroke="white"/>
<path opacity="0.6" d="M106.187 16.0885L106.21 16.0752L106.232 16.0596C106.419 15.9229 106.611 15.7929 106.808 15.6698L116.643 25.0773H110.908L103.431 20.7642C103.448 19.8614 103.687 18.9751 104.127 18.1837C104.612 17.3121 105.324 16.5881 106.187 16.0885Z" fill="#BD5B6A" stroke="white"/>
<path d="M126.195 26.5056C127.604 25.6917 128.681 24.7285 129.391 23.6784V30.1337C129.391 31.9099 128.258 33.7964 125.707 35.2738C122.826 36.7323 119.641 37.4924 116.412 37.4924C113.177 37.4924 109.989 36.7302 107.104 35.2676L107.093 35.2619L107.081 35.2567C106.088 34.8145 105.227 34.1209 104.584 33.2443C103.946 32.3753 103.544 31.3562 103.416 30.2861V23.6482C103.526 23.8301 103.643 24.0075 103.769 24.1798C104.513 25.1997 105.51 26.0077 106.662 26.5239C109.682 28.0618 113.023 28.8636 116.412 28.8636C119.805 28.8636 123.15 28.0598 126.172 26.518L126.184 26.5121L126.195 26.5056Z" fill="#BD5B6A" stroke="white"/>
<path d="M104.558 10.9687L111.084 7.21901L124.399 14.8976L117.886 18.6767L104.558 10.9687Z" fill="#BD5B6A" stroke="white"/>
<path d="M117.387 19.5429V24.695L102.089 15.8701L103.803 11.6869L117.387 19.5429Z" fill="#BD5B6A" stroke="white"/>
<path d="M124.896 15.7647V20.9307L118.385 24.6944V19.5427L124.896 15.7647Z" fill="#BD5B6A" stroke="white"/>
<g style="mix-blend-mode:multiply" opacity="0.5">
<mask id="path-66-inside-6_733_937" fill="white">
<path d="M24.8626 56.3321L11.4082 48.5566V47.9128L24.8626 55.6882V56.3321ZM24.8626 53.0304L11.4082 45.1724V45.8162L24.8626 53.5917V53.0304ZM24.8626 57.0749L11.4082 49.2995V49.9433L24.8626 57.7188V57.0749ZM24.8626 54.3841L11.4082 46.6086V47.2359L24.8626 55.0114V54.3841ZM24.8626 61.1195L11.4082 53.344V53.9879L24.8626 61.6808V61.1195ZM24.8626 58.4286L11.4082 50.6201V51.2475L24.8626 59.0229V58.4286ZM24.8626 62.4567L11.4082 54.6977V55.325L24.8626 63.1005V62.4567ZM24.8626 59.7658L11.4082 51.9903V52.6342L24.8626 60.4096V59.7658Z"/>
</mask>
<path d="M24.8626 56.3321L11.4082 48.5566V47.9128L24.8626 55.6882V56.3321ZM24.8626 53.0304L11.4082 45.1724V45.8162L24.8626 53.5917V53.0304ZM24.8626 57.0749L11.4082 49.2995V49.9433L24.8626 57.7188V57.0749ZM24.8626 54.3841L11.4082 46.6086V47.2359L24.8626 55.0114V54.3841ZM24.8626 61.1195L11.4082 53.344V53.9879L24.8626 61.6808V61.1195ZM24.8626 58.4286L11.4082 50.6201V51.2475L24.8626 59.0229V58.4286ZM24.8626 62.4567L11.4082 54.6977V55.325L24.8626 63.1005V62.4567ZM24.8626 59.7658L11.4082 51.9903V52.6342L24.8626 60.4096V59.7658Z" fill="#BD5B6A"/>
<path d="M24.8626 56.3321L24.3622 57.1979L25.8626 58.065V56.3321H24.8626ZM11.4082 48.5566H10.4082V49.1337L10.9078 49.4224L11.4082 48.5566ZM11.4082 47.9128L11.9086 47.0469L10.4082 46.1799V47.9128H11.4082ZM24.8626 55.6882H25.8626V55.1112L25.3629 54.8224L24.8626 55.6882ZM24.8626 53.0304H25.8626V52.4564L25.3669 52.1669L24.8626 53.0304ZM11.4082 45.1724L11.9125 44.3089L10.4082 43.4302V45.1724H11.4082ZM11.4082 45.8162H10.4082V46.3933L10.9078 46.682L11.4082 45.8162ZM24.8626 53.5917L24.3622 54.4575L25.8626 55.3245V53.5917H24.8626ZM24.8626 57.0749H25.8626V56.4979L25.3629 56.2091L24.8626 57.0749ZM11.4082 49.2995L11.9086 48.4337L10.4082 47.5666V49.2995H11.4082ZM11.4082 49.9433H10.4082V50.5204L10.9078 50.8091L11.4082 49.9433ZM24.8626 57.7188L24.3622 58.5846L25.8626 59.4517V57.7188H24.8626ZM24.8626 54.3841H25.8626V53.807L25.3629 53.5182L24.8626 54.3841ZM11.4082 46.6086L11.9086 45.7428L10.4082 44.8757V46.6086H11.4082ZM11.4082 47.2359H10.4082V47.813L10.9078 48.1017L11.4082 47.2359ZM24.8626 55.0114L24.3622 55.8772L25.8626 56.7443V55.0114H24.8626ZM24.8626 61.1195H25.8626V60.5424L25.3629 60.2537L24.8626 61.1195ZM11.4082 53.344L11.9086 52.4782L10.4082 51.6111V53.344H11.4082ZM11.4082 53.9879H10.4082V54.568L10.9118 54.856L11.4082 53.9879ZM24.8626 61.6808L24.3662 62.5489L25.8626 63.4045V61.6808H24.8626ZM24.8626 58.4286H25.8626V57.8528L25.3645 57.5637L24.8626 58.4286ZM11.4082 50.6201L11.9102 49.7553L10.4082 48.8836V50.6201H11.4082ZM11.4082 51.2475H10.4082V51.8245L10.9078 52.1133L11.4082 51.2475ZM24.8626 59.0229L24.3622 59.8887L25.8626 60.7558V59.0229H24.8626ZM24.8626 62.4567H25.8626V61.879L25.3621 61.5904L24.8626 62.4567ZM11.4082 54.6977L11.9078 53.8314L10.4082 52.9667V54.6977H11.4082ZM11.4082 55.325H10.4082V55.9021L10.9078 56.1909L11.4082 55.325ZM24.8626 63.1005L24.3622 63.9663L25.8626 64.8334V63.1005H24.8626ZM24.8626 59.7658H25.8626V59.1887L25.3629 58.9L24.8626 59.7658ZM11.4082 51.9903L11.9086 51.1245L10.4082 50.2574V51.9903H11.4082ZM11.4082 52.6342H10.4082V53.2112L10.9078 53.5L11.4082 52.6342ZM24.8626 60.4096L24.3622 61.2754L25.8626 62.1425V60.4096H24.8626ZM25.3629 55.4662L11.9086 47.6908L10.9078 49.4224L24.3622 57.1979L25.3629 55.4662ZM12.4082 48.5566V47.9128H10.4082V48.5566H12.4082ZM10.9078 48.7786L24.3622 56.554L25.3629 54.8224L11.9086 47.0469L10.9078 48.7786ZM23.8626 55.6882V56.3321H25.8626V55.6882H23.8626ZM25.3669 52.1669L11.9125 44.3089L10.9039 46.0359L24.3582 53.8939L25.3669 52.1669ZM10.4082 45.1724V45.8162H12.4082V45.1724H10.4082ZM10.9078 46.682L24.3622 54.4575L25.3629 52.7258L11.9086 44.9504L10.9078 46.682ZM25.8626 53.5917V53.0304H23.8626V53.5917H25.8626ZM25.3629 56.2091L11.9086 48.4337L10.9078 50.1653L24.3622 57.9407L25.3629 56.2091ZM10.4082 49.2995V49.9433H12.4082V49.2995H10.4082ZM10.9078 50.8091L24.3622 58.5846L25.3629 56.8529L11.9086 49.0775L10.9078 50.8091ZM25.8626 57.7188V57.0749H23.8626V57.7188H25.8626ZM25.3629 53.5182L11.9086 45.7428L10.9078 47.4744L24.3622 55.2499L25.3629 53.5182ZM10.4082 46.6086V47.2359H12.4082V46.6086H10.4082ZM10.9078 48.1017L24.3622 55.8772L25.3629 54.1456L11.9086 46.3701L10.9078 48.1017ZM25.8626 55.0114V54.3841H23.8626V55.0114H25.8626ZM25.3629 60.2537L11.9086 52.4782L10.9078 54.2098L24.3622 61.9853L25.3629 60.2537ZM10.4082 53.344V53.9879H12.4082V53.344H10.4082ZM10.9118 54.856L24.3662 62.5489L25.3589 60.8127L11.9046 53.1197L10.9118 54.856ZM25.8626 61.6808V61.1195H23.8626V61.6808H25.8626ZM25.3645 57.5637L11.9102 49.7553L10.9062 51.485L24.3606 59.2935L25.3645 57.5637ZM10.4082 50.6201V51.2475H12.4082V50.6201H10.4082ZM10.9078 52.1133L24.3622 59.8887L25.3629 58.1571L11.9086 50.3816L10.9078 52.1133ZM25.8626 59.0229V58.4286H23.8626V59.0229H25.8626ZM25.3621 61.5904L11.9078 53.8314L10.9086 55.564L24.363 63.323L25.3621 61.5904ZM10.4082 54.6977V55.325H12.4082V54.6977H10.4082ZM10.9078 56.1909L24.3622 63.9663L25.3629 62.2347L11.9086 54.4592L10.9078 56.1909ZM25.8626 63.1005V62.4567H23.8626V63.1005H25.8626ZM25.3629 58.9L11.9086 51.1245L10.9078 52.8561L24.3622 60.6316L25.3629 58.9ZM10.4082 51.9903V52.6342H12.4082V51.9903H10.4082ZM10.9078 53.5L24.3622 61.2754L25.3629 59.5438L11.9086 51.7683L10.9078 53.5ZM25.8626 60.4096V59.7658H23.8626V60.4096H25.8626Z" fill="white" mask="url(#path-66-inside-6_733_937)"/>
</g>
<path d="M41.5141 43.2827L39.9883 44.1603V35.9189L41.5141 35.0314V43.2827Z" fill="#BD5B6A" stroke="white"/>
<path d="M26.9239 26.0389L41.0152 34.1638L39.4863 35.0532L25.3996 26.9156L26.9239 26.0389Z" fill="#BD5B6A" stroke="white"/>
<path d="M24.8984 36.0355V27.7808L38.9871 35.9196V44.1588L24.8984 36.0355Z" fill="#BD5B6A" stroke="white"/>
<path d="M38.2965 42.9874L25.5768 35.6403L25.5909 28.9687L38.3106 36.3158L38.2965 42.9874Z" fill="#BD5B6A" stroke="white"/>
<mask id="path-72-inside-7_733_937" fill="white">
<path d="M31.4822 34.0134L32.2085 33.188L32.9349 34.8388L31.4822 34.0134ZM31.4822 37.5297L32.2085 39.1805L32.9349 38.3551L31.4822 37.5297ZM30.4421 34.4591H29.1875L30.4421 35.8954V34.4591ZM33.9584 37.9259H35.2131L33.9584 36.4897V37.9259ZM31.6638 35.8458C31.6812 36.0385 31.7442 36.2243 31.8475 36.3879C31.9509 36.5515 32.0916 36.6882 32.2581 36.7868C32.5882 36.9684 32.8524 36.7868 32.8524 36.5392C32.8336 36.3468 32.7701 36.1616 32.6669 35.9982C32.5637 35.8348 32.4237 35.6978 32.2581 35.5982C31.8784 35.4166 31.6638 35.5157 31.6638 35.8458Z"/>
</mask>
<path d="M31.4822 34.0134L32.2085 33.188L32.9349 34.8388L31.4822 34.0134ZM31.4822 37.5297L32.2085 39.1805L32.9349 38.3551L31.4822 37.5297ZM30.4421 34.4591H29.1875L30.4421 35.8954V34.4591ZM33.9584 37.9259H35.2131L33.9584 36.4897V37.9259ZM31.6638 35.8458C31.6812 36.0385 31.7442 36.2243 31.8475 36.3879C31.9509 36.5515 32.0916 36.6882 32.2581 36.7868C32.5882 36.9684 32.8524 36.7868 32.8524 36.5392C32.8336 36.3468 32.7701 36.1616 32.6669 35.9982C32.5637 35.8348 32.4237 35.6978 32.2581 35.5982C31.8784 35.4166 31.6638 35.5157 31.6638 35.8458Z" fill="#BD5B6A"/>
<path d="M31.4822 34.0134L30.7315 33.3528L29.9194 34.2756L30.9882 34.8829L31.4822 34.0134ZM32.2085 33.188L33.1239 32.7853L32.4929 31.3512L31.4578 32.5274L32.2085 33.188ZM32.9349 34.8388L32.4409 35.7083L35.0663 37.2L33.8502 34.4361L32.9349 34.8388ZM31.4822 37.5297L31.9762 36.6602L29.3507 35.1685L30.5669 37.9324L31.4822 37.5297ZM32.2085 39.1805L31.2932 39.5833L31.9242 41.0173L32.9593 39.8412L32.2085 39.1805ZM32.9349 38.3551L33.6856 39.0157L34.4977 38.0929L33.4289 37.4857L32.9349 38.3551ZM30.4421 34.4591H31.4421V33.4591H30.4421V34.4591ZM29.1875 34.4591V33.4591H26.9861L28.4344 35.117L29.1875 34.4591ZM30.4421 35.8954L29.689 36.5533L31.4421 38.5601V35.8954H30.4421ZM33.9584 37.9259H32.9584V38.9259H33.9584V37.9259ZM35.2131 37.9259V38.9259H37.4145L35.9662 37.268L35.2131 37.9259ZM33.9584 36.4897L34.7115 35.8318L32.9584 33.8249V36.4897H33.9584ZM31.6638 35.8458H30.6638V35.8911L30.6678 35.9361L31.6638 35.8458ZM32.2581 36.7868L31.7486 37.6473L31.7623 37.6554L31.7761 37.663L32.2581 36.7868ZM32.8524 36.5392H33.8524V36.4906L33.8477 36.4422L32.8524 36.5392ZM32.2581 35.5982L32.7733 34.7412L32.7325 34.7166L32.6895 34.6961L32.2581 35.5982ZM32.2329 34.674L32.9593 33.8486L31.4578 32.5274L30.7315 33.3528L32.2329 34.674ZM31.2932 33.5907L32.0196 35.2416L33.8502 34.4361L33.1239 32.7853L31.2932 33.5907ZM33.4289 33.9694L31.9762 33.144L30.9882 34.8829L32.4409 35.7083L33.4289 33.9694ZM30.5669 37.9324L31.2932 39.5833L33.1239 38.7778L32.3975 37.127L30.5669 37.9324ZM32.9593 39.8412L33.6856 39.0157L32.1842 37.6945L31.4578 38.5199L32.9593 39.8412ZM33.4289 37.4857L31.9762 36.6602L30.9882 38.3992L32.4409 39.2246L33.4289 37.4857ZM30.4421 33.4591H29.1875V35.4591H30.4421V33.4591ZM28.4344 35.117L29.689 36.5533L31.1953 35.2375L29.9406 33.8012L28.4344 35.117ZM31.4421 35.8954V34.4591H29.4421V35.8954H31.4421ZM33.9584 38.9259H35.2131V36.9259H33.9584V38.9259ZM35.9662 37.268L34.7115 35.8318L33.2053 37.1476L34.46 38.5838L35.9662 37.268ZM32.9584 36.4897V37.9259H34.9584V36.4897H32.9584ZM30.6678 35.9361C30.6996 36.2865 30.8141 36.6244 31.002 36.9219L32.693 35.8539C32.6743 35.8243 32.6628 35.7906 32.6597 35.7556L30.6678 35.9361ZM31.002 36.9219C31.19 37.2195 31.4458 37.4681 31.7486 37.6473L32.7675 35.9263C32.7373 35.9084 32.7118 35.8836 32.693 35.8539L31.002 36.9219ZM31.7761 37.663C32.1665 37.8777 32.6664 37.9483 33.1262 37.7184C33.5799 37.4915 33.8524 37.0332 33.8524 36.5392H31.8524C31.8524 36.2928 31.9927 36.0491 32.2318 35.9295C32.477 35.8069 32.6798 35.8775 32.74 35.9106L31.7761 37.663ZM33.8477 36.4422C33.8138 36.0945 33.6989 35.7595 33.5124 35.4642L31.8214 36.5322C31.8413 36.5636 31.8535 36.5992 31.8571 36.6362L33.8477 36.4422ZM33.5124 35.4642C33.3258 35.1688 33.0728 34.9212 32.7733 34.7412L31.7428 36.4552C31.7746 36.4744 31.8016 36.5007 31.8214 36.5322L33.5124 35.4642ZM32.6895 34.6961C32.4342 34.574 31.939 34.3905 31.4246 34.611C30.79 34.883 30.6638 35.4991 30.6638 35.8458H32.6638C32.6638 35.8625 32.6624 35.9583 32.6003 36.0843C32.5291 36.2287 32.3976 36.3699 32.2124 36.4493C32.0449 36.5211 31.9081 36.5106 31.8558 36.5027C31.8033 36.4947 31.791 36.4833 31.8266 36.5003L32.6895 34.6961Z" fill="white" mask="url(#path-72-inside-7_733_937)"/>
<path d="M37.2887 40.0787C37.2884 40.0787 37.288 40.0786 37.2877 40.0786C37.2829 40.0727 37.2783 40.0668 37.2737 40.0607C37.2762 40.0413 37.2803 40.0224 37.2858 40.0041C37.3139 39.9105 37.3801 39.8337 37.4653 39.7926C37.5284 39.7623 37.5841 39.7581 37.6253 39.7623C37.6296 39.7673 37.6339 39.7724 37.6381 39.7776C37.6441 39.785 37.6499 39.7926 37.6555 39.8003C37.6528 39.8142 37.6488 39.8299 37.6429 39.8467M37.2887 40.0787L37.6429 39.8467M37.2887 40.0787L37.6429 39.8467M37.2887 40.0787L37.6429 39.8467" fill="#BD5B6A" stroke="white"/>
<path d="M36.0436 38.9722C36.108 38.9423 36.1647 38.9408 36.2054 38.9476C36.2102 38.9534 36.2149 38.9594 36.2195 38.9654C36.2238 38.971 36.2279 38.9767 36.232 38.9824C36.2294 38.9943 36.2258 39.0073 36.221 39.021C36.1977 39.0872 36.1455 39.1702 36.0345 39.2214C35.97 39.2512 35.9103 39.2563 35.8669 39.253C35.8657 39.2529 35.8646 39.2528 35.8636 39.2527C35.8596 39.2474 35.8556 39.242 35.8518 39.2365C35.8539 39.2197 35.8573 39.2033 35.8618 39.1874C35.8897 39.0891 35.9604 39.0108 36.0436 38.9722Z" fill="#BD5B6A" stroke="white"/>
<mask id="path-76-inside-8_733_937" fill="white">
<path d="M35.7891 39.9558L36.0367 39.6587L36.2843 40.2365L35.7891 39.9558Z"/>
</mask>
<path d="M35.7891 39.9558L36.0367 39.6587L36.2843 40.2365L35.7891 39.9558Z" fill="#BD5B6A"/>
<path d="M35.7891 39.9558L35.0208 39.3157L34.2543 40.2355L35.2961 40.8259L35.7891 39.9558ZM36.0367 39.6587L36.9558 39.2648L36.3131 37.765L35.2685 39.0185L36.0367 39.6587ZM36.2843 40.2365L35.7913 41.1065L38.3718 42.5688L37.2035 39.8426L36.2843 40.2365ZM36.5573 40.596L36.8049 40.2989L35.2685 39.0185L35.0208 39.3157L36.5573 40.596ZM35.1175 40.0526L35.3652 40.6304L37.2035 39.8426L36.9558 39.2648L35.1175 40.0526ZM36.7773 39.3665L36.2821 39.0858L35.2961 40.8259L35.7913 41.1065L36.7773 39.3665Z" fill="white" mask="url(#path-76-inside-8_733_937)"/>
<mask id="path-78-inside-9_733_937" fill="white">
<path d="M37.209 40.781L37.4731 40.4839L37.7042 41.0617L37.209 40.781Z"/>
</mask>
<path d="M37.209 40.781L37.4731 40.4839L37.7042 41.0617L37.209 40.781Z" fill="#BD5B6A"/>
<path d="M37.209 40.781L36.4616 40.1167L35.6398 41.0412L36.716 41.6511L37.209 40.781ZM37.4731 40.4839L38.4016 40.1125L37.8007 38.6102L36.7257 39.8195L37.4731 40.4839ZM37.7042 41.0617L37.2112 41.9317L39.6915 43.3372L38.6327 40.6903L37.7042 41.0617ZM37.9564 41.4454L38.2205 41.1482L36.7257 39.8195L36.4616 40.1167L37.9564 41.4454ZM36.5446 40.8553L36.7758 41.4331L38.6327 40.6903L38.4016 40.1125L36.5446 40.8553ZM38.1972 40.1917L37.702 39.911L36.716 41.6511L37.2112 41.9317L38.1972 40.1917Z" fill="white" mask="url(#path-78-inside-9_733_937)"/>
<path d="M37.6283 36.378C37.5868 36.3733 37.53 36.3769 37.4653 36.4081C37.3801 36.4491 37.3139 36.526 37.2858 36.6195C37.2808 36.636 37.277 36.6529 37.2745 36.6703C37.2798 36.6775 37.2852 36.6846 37.2908 36.6915C37.2914 36.6915 37.292 36.6916 37.2926 36.6916M37.6283 36.378L37.2926 36.6916M37.6283 36.378C37.6322 36.3826 37.6361 36.3872 37.6399 36.3919C37.6454 36.3986 37.6507 36.4055 37.6559 36.4125M37.6283 36.378L37.6559 36.4125M37.2926 36.6916C37.3326 36.6934 37.3834 36.6875 37.4416 36.6628C37.5287 36.626 37.5914 36.5612 37.6265 36.494C37.632 36.4834 37.6367 36.4733 37.6405 36.4636M37.2926 36.6916L37.6405 36.4636M37.6405 36.4636C37.6483 36.4441 37.653 36.4268 37.6559 36.4125M37.6405 36.4636L37.6559 36.4125" fill="#BD5B6A" stroke="white"/>
<path d="M36.1961 35.5523C36.1521 35.5481 36.0994 35.5538 36.0436 35.5797C35.971 35.6134 35.8934 35.6868 35.8627 35.7949C35.8581 35.8111 35.8546 35.8281 35.8522 35.8458C35.8676 35.8474 35.8834 35.8479 35.8993 35.8475M36.1961 35.5523L35.8993 35.8475M36.1961 35.5523C36.2013 35.5583 36.2064 35.5645 36.2114 35.5708C36.2184 35.5796 36.2252 35.5886 36.2318 35.5978C36.2289 35.6099 36.2248 35.6235 36.219 35.638L36.1961 35.5523ZM35.8993 35.8475L35.8662 35.8692M35.8993 35.8475L36.0748 35.7977C36.0186 35.8301 35.9577 35.8458 35.8993 35.8475L35.8662 35.8692M35.8662 35.8692C35.8734 35.878 35.8808 35.8866 35.8885 35.8949M35.8662 35.8692C35.8612 35.8631 35.8564 35.8568 35.8517 35.8505L35.8885 35.8949M35.8885 35.8949H36.0991H36.1048H36.3491M35.8885 35.8949L36.249 35.6232C36.2523 35.6282 36.2555 35.6333 36.2586 35.6385C36.3062 35.7167 36.337 35.804 36.3491 35.8949M36.3491 35.8949L36.0837 35.9301L36.0794 35.9307L35.9447 35.9485C35.9728 35.9719 36.0032 35.9927 36.0354 36.0105C36.2005 36.1095 36.3491 36.0105 36.3491 35.8949Z" fill="#BD5B6A" stroke="white"/>
<mask id="path-82-inside-10_733_937" fill="white">
<path d="M35.8223 36.1265L36.2515 36.6217H35.8223V36.1265Z"/>
</mask>
<path d="M35.8223 36.1265L36.2515 36.6217H35.8223V36.1265Z" fill="#BD5B6A"/>
<path d="M35.8223 36.1265L36.578 35.4715L34.8223 33.4457V36.1265H35.8223ZM36.2515 36.6217V37.6217H38.4414L37.0072 35.9668L36.2515 36.6217ZM35.8223 36.6217H34.8223V37.6217H35.8223V36.6217ZM35.0666 36.7814L35.4958 37.2766L37.0072 35.9668L36.578 35.4715L35.0666 36.7814ZM36.2515 35.6217H35.8223V37.6217H36.2515V35.6217ZM36.8223 36.6217V36.1265H34.8223V36.6217H36.8223Z" fill="white" mask="url(#path-82-inside-10_733_937)"/>
<mask id="path-84-inside-11_733_937" fill="white">
<path d="M37.2402 36.9517L37.686 37.4469H37.2402V36.9517Z"/>
</mask>
<path d="M37.2402 36.9517L37.686 37.4469H37.2402V36.9517Z" fill="#BD5B6A"/>
<path d="M37.2402 36.9517L37.9835 36.2827L36.2402 34.3457V36.9517H37.2402ZM37.686 37.4469V38.4469H39.9313L38.4293 36.7779L37.686 37.4469ZM37.2402 37.4469H36.2402V38.4469H37.2402V37.4469ZM36.4969 37.6206L36.9427 38.1159L38.4293 36.7779L37.9835 36.2827L36.4969 37.6206ZM37.686 36.4469H37.2402V38.4469H37.686V36.4469ZM38.2402 37.4469V36.9517H36.2402V37.4469H38.2402Z" fill="white" mask="url(#path-84-inside-11_733_937)"/>
<path d="M37.2568 41.8873C37.2626 41.8713 37.2701 41.8542 37.28 41.8364C37.2995 41.8012 37.3249 41.7688 37.3552 41.7409C37.3585 41.7379 37.3618 41.735 37.3652 41.7321C37.3931 41.7081 37.4248 41.6878 37.4594 41.6724H37.6053C37.6134 41.6815 37.6212 41.6908 37.6287 41.7004C37.6347 41.7082 37.6405 41.7162 37.6461 41.7243L37.6346 41.7474M37.2568 41.8873L37.6346 41.7474M37.2568 41.8873C37.2595 41.8925 37.2624 41.8977 37.2653 41.9028C37.267 41.9058 37.2688 41.9087 37.2705 41.9117C37.2719 41.9139 37.2732 41.9161 37.2745 41.9183C37.284 41.9337 37.2942 41.9486 37.305 41.9629M37.2568 41.8873L37.305 41.9629M37.6346 41.7474L37.5326 41.9514M37.6346 41.7474L37.5326 41.9514M37.5326 41.9514C37.5132 41.9646 37.4923 41.9763 37.4701 41.9861H37.3235C37.3172 41.9785 37.311 41.9708 37.305 41.9629M37.5326 41.9514L37.305 41.9629M37.3508 42.0161C37.3502 42.0155 37.3496 42.0149 37.349 42.0142L37.3873 42.0115C37.3745 42.0138 37.3623 42.0153 37.3508 42.0161ZM37.5662 41.9257L37.6687 41.7599C37.6707 41.7635 37.6728 41.7672 37.6748 41.7708C37.6693 41.7858 37.6623 41.8019 37.6532 41.8185C37.6319 41.8578 37.6025 41.8946 37.5662 41.9257Z" fill="#BD5B6A" stroke="white"/>
<mask id="path-87-inside-12_733_937" fill="white">
<path d="M37.4724 41.5897C37.5363 41.6242 37.5907 41.6739 37.631 41.7343C37.6713 41.7947 37.6962 41.8641 37.7035 41.9363C37.7035 42.0519 37.6045 42.1014 37.4724 42.0354C37.4141 41.9961 37.3648 41.9449 37.3278 41.8852C37.2908 41.8254 37.2669 41.7584 37.2578 41.6887C37.2578 41.5566 37.3569 41.5236 37.4724 41.5897Z"/>
</mask>
<path d="M37.4724 41.5897C37.5363 41.6242 37.5907 41.6739 37.631 41.7343C37.6713 41.7947 37.6962 41.8641 37.7035 41.9363C37.7035 42.0519 37.6045 42.1014 37.4724 42.0354C37.4141 41.9961 37.3648 41.9449 37.3278 41.8852C37.2908 41.8254 37.2669 41.7584 37.2578 41.6887C37.2578 41.5566 37.3569 41.5236 37.4724 41.5897Z" fill="#BD5B6A"/>
<path d="M37.4724 41.5897L36.9763 42.4579L36.9861 42.4635L36.9961 42.4689L37.4724 41.5897ZM37.7035 41.9363H38.7035V41.8855L38.6984 41.8348L37.7035 41.9363ZM37.4724 42.0354L36.9142 42.8651L36.9676 42.901L37.0252 42.9298L37.4724 42.0354ZM37.2578 41.6887H36.2578V41.7538L36.2663 41.8184L37.2578 41.6887ZM36.9961 42.4689C36.9167 42.4259 36.849 42.3642 36.7989 42.289L38.463 41.1796C38.3324 40.9836 38.1558 40.8226 37.9487 40.7104L36.9961 42.4689ZM36.7989 42.289C36.7488 42.2139 36.7179 42.1277 36.7087 42.0378L38.6984 41.8348C38.6745 41.6005 38.5937 41.3756 38.463 41.1796L36.7989 42.289ZM36.7035 41.9363C36.7035 41.6913 36.8336 41.3191 37.2272 41.142C37.5596 40.9924 37.8331 41.0977 37.9196 41.141L37.0252 42.9298C37.2439 43.0391 37.6329 43.1526 38.0479 42.9659C38.524 42.7516 38.7035 42.2969 38.7035 41.9363H36.7035ZM38.0306 41.2057C38.0901 41.2457 38.1403 41.2979 38.1781 41.3588L36.4775 42.4115C36.5892 42.592 36.7381 42.7466 36.9142 42.8651L38.0306 41.2057ZM38.1781 41.3588C38.2158 41.4197 38.2401 41.4879 38.2494 41.559L36.2663 41.8184C36.2938 42.0289 36.3658 42.2311 36.4775 42.4115L38.1781 41.3588ZM38.2578 41.6887C38.2578 41.8661 38.1687 42.2933 37.7098 42.4865C37.3392 42.6426 37.047 42.4983 36.9763 42.4579L37.9686 40.7214C37.7823 40.615 37.3828 40.4542 36.9338 40.6432C36.3964 40.8695 36.2578 41.3793 36.2578 41.6887H38.2578Z" fill="white" mask="url(#path-87-inside-12_733_937)"/>
<path d="M36.2083 41.0141C36.1916 41.0416 36.1717 41.0664 36.1492 41.0882L36.2362 40.9404C36.2374 40.9428 36.2387 40.9451 36.2399 40.9474C36.2325 40.9685 36.2223 40.991 36.2083 41.0141ZM36.1724 40.8472C36.1788 40.8548 36.185 40.8625 36.1909 40.8704C36.2018 40.8847 36.2119 40.8996 36.2214 40.915C36.2246 40.9201 36.2276 40.9253 36.2306 40.9305L36.1364 41.1001C36.1081 41.1252 36.0762 41.1457 36.0425 41.1609H35.8984C35.8894 41.1508 35.8808 41.1403 35.8726 41.1296C35.864 41.1183 35.8557 41.1066 35.8479 41.0947C35.8459 41.0916 35.8439 41.0885 35.842 41.0854L35.9495 40.8918C35.9727 40.8744 35.9982 40.8593 36.0259 40.8472H36.1724ZM35.9297 40.9076L35.8311 41.0673C35.8287 41.0631 35.8264 41.059 35.8241 41.0548C35.8291 41.042 35.8352 41.0286 35.8427 41.0148C35.8641 40.9755 35.8935 40.9387 35.9297 40.9076Z" fill="#BD5B6A" stroke="white"/>
<path d="M36.0369 41.2108C36.0386 41.2117 36.0403 41.2125 36.042 41.2133C36.0476 41.2115 36.0533 41.2096 36.0591 41.2074C36.1112 41.1882 36.1598 41.158 36.2008 41.1186L36.092 41.1297L36.0369 41.2108ZM36.0369 41.2108L36.0766 41.1313L35.9573 41.1435C35.9813 41.1686 36.008 41.1912 36.0369 41.2108ZM35.8325 40.9114C35.8482 40.8883 35.8664 40.8669 35.8866 40.8476H35.9897H35.9922H36.1454C36.1564 40.859 36.1667 40.8709 36.1764 40.8834C36.1814 40.8898 36.1862 40.8963 36.1908 40.903L36.1834 40.9178M35.8325 40.9114L36.1834 40.9178M35.8325 40.9114C35.8426 40.9557 35.8588 40.9985 35.8806 41.0385C35.882 41.041 35.8834 41.0435 35.8847 41.0459C35.8861 41.0484 35.8875 41.0508 35.889 41.0532C35.8976 41.0678 35.9069 41.0819 35.9169 41.0954M35.8325 40.9114L35.9169 41.0954M36.1834 40.9178L36.0864 41.1118H35.9295C35.9252 41.1064 35.921 41.101 35.9169 41.0954M36.1834 40.9178L35.9169 41.0954M36.2575 41.051C36.2428 41.073 36.2261 41.0933 36.2078 41.1118H36.1042L36.2171 40.9458C36.235 40.979 36.2485 41.0144 36.2575 41.051ZM36.0288 40.7606C36.0315 40.7621 36.0342 40.7636 36.0369 40.7651C36.0654 40.7805 36.092 40.799 36.1163 40.82L36.0013 40.8308L35.9992 40.831L35.8938 40.8409C35.9242 40.8134 35.959 40.7905 35.9968 40.7734C36.0077 40.7685 36.0183 40.7643 36.0288 40.7606Z" fill="#BD5B6A" stroke="white"/>
<g style="mix-blend-mode:screen">
<path d="M35.0841 40.9792H35.0841L35.084 40.9735C35.0826 40.8496 35.1058 40.7267 35.1522 40.6119C35.1986 40.497 35.2673 40.3925 35.3544 40.3045C35.4415 40.2164 35.5452 40.1465 35.6595 40.0987C35.7738 40.051 35.8964 40.0265 36.0203 40.0265V40.0265L36.026 40.0264C36.2149 40.0243 36.4001 40.0783 36.5582 40.1817C36.7163 40.2851 36.8401 40.4331 36.9139 40.607C36.9877 40.7809 37.0081 40.9728 36.9726 41.1583C36.937 41.3438 36.8472 41.5146 36.7143 41.6489C36.5815 41.7833 36.4118 41.8751 36.2267 41.9127C36.0416 41.9504 35.8495 41.9322 35.6748 41.8604C35.5 41.7886 35.3506 41.6665 35.2454 41.5096C35.1403 41.3527 35.0841 41.1681 35.0841 40.9792Z" fill="#BD5B6A"/>
<path d="M35.0841 40.9792H35.0841L35.084 40.9735C35.0826 40.8496 35.1058 40.7267 35.1522 40.6119C35.1986 40.497 35.2673 40.3925 35.3544 40.3045C35.4415 40.2164 35.5452 40.1465 35.6595 40.0987C35.7738 40.051 35.8964 40.0265 36.0203 40.0265V40.0265L36.026 40.0264C36.2149 40.0243 36.4001 40.0783 36.5582 40.1817C36.7163 40.2851 36.8401 40.4331 36.9139 40.607C36.9877 40.7809 37.0081 40.9728 36.9726 41.1583C36.937 41.3438 36.8472 41.5146 36.7143 41.6489C36.5815 41.7833 36.4118 41.8751 36.2267 41.9127C36.0416 41.9504 35.8495 41.9322 35.6748 41.8604C35.5 41.7886 35.3506 41.6665 35.2454 41.5096C35.1403 41.3527 35.0841 41.1681 35.0841 40.9792Z" stroke="white"/>
</g>
<g style="mix-blend-mode:screen">
<path d="M36.502 41.8766L36.502 41.8766L36.502 41.8709C36.502 41.747 36.5266 41.6244 36.5743 41.5101C36.622 41.3958 36.692 41.2921 36.7801 41.205C36.8681 41.1179 36.9726 41.0492 37.0875 41.0028C37.2023 40.9564 37.3252 40.9332 37.449 40.9346L37.449 40.9347L37.4548 40.9347C37.6436 40.9347 37.8283 40.9908 37.9852 41.096C38.1421 41.2012 38.2642 41.3506 38.336 41.5254C38.4077 41.7001 38.426 41.8922 38.3883 42.0773C38.3507 42.2624 38.2588 42.4321 38.1245 42.5649C37.9902 42.6977 37.8194 42.7876 37.6339 42.8231C37.4484 42.8587 37.2565 42.8383 37.0826 42.7645C36.9087 42.6907 36.7607 42.5669 36.6573 42.4088C36.5539 42.2507 36.4999 42.0655 36.502 41.8766Z" fill="#BD5B6A"/>
<path d="M36.502 41.8766L36.502 41.8766L36.502 41.8709C36.502 41.747 36.5266 41.6244 36.5743 41.5101C36.622 41.3958 36.692 41.2921 36.7801 41.205C36.8681 41.1179 36.9726 41.0492 37.0875 41.0028C37.2023 40.9564 37.3252 40.9332 37.449 40.9346L37.449 40.9347L37.4548 40.9347C37.6436 40.9347 37.8283 40.9908 37.9852 41.096C38.1421 41.2012 38.2642 41.3506 38.336 41.5254C38.4077 41.7001 38.426 41.8922 38.3883 42.0773C38.3507 42.2624 38.2588 42.4321 38.1245 42.5649C37.9902 42.6977 37.8194 42.7876 37.6339 42.8231C37.4484 42.8587 37.2565 42.8383 37.0826 42.7645C36.9087 42.6907 36.7607 42.5669 36.6573 42.4088C36.5539 42.2507 36.4999 42.0655 36.502 41.8766Z" stroke="white"/>
</g>
<path d="M37.2568 38.5528C37.2626 38.5368 37.2701 38.5197 37.28 38.5019C37.2995 38.4667 37.3249 38.4343 37.3552 38.4064C37.3585 38.4034 37.3618 38.4005 37.3652 38.3976C37.3931 38.3736 37.4248 38.3533 37.4594 38.3379H37.6053C37.6134 38.347 37.6212 38.3563 37.6287 38.3659C37.6347 38.3737 37.6405 38.3817 37.6461 38.3899L37.6346 38.4129M37.2568 38.5528L37.6346 38.4129M37.2568 38.5528C37.2595 38.558 37.2624 38.5632 37.2653 38.5683C37.267 38.5713 37.2688 38.5743 37.2705 38.5772C37.2719 38.5794 37.2732 38.5817 37.2745 38.5839C37.284 38.5992 37.2942 38.6141 37.305 38.6284M37.2568 38.5528L37.305 38.6284M37.6346 38.4129L37.5326 38.617M37.6346 38.4129L37.5326 38.617M37.5326 38.617C37.5132 38.6302 37.4923 38.6418 37.4701 38.6516H37.3235C37.3172 38.644 37.311 38.6363 37.305 38.6284M37.5326 38.617L37.305 38.6284M37.3508 38.6817C37.3502 38.681 37.3496 38.6804 37.349 38.6798L37.3873 38.677C37.3745 38.6793 37.3623 38.6808 37.3508 38.6817ZM37.5662 38.5912L37.6687 38.4255C37.6707 38.4291 37.6728 38.4327 37.6748 38.4363C37.6693 38.4514 37.6623 38.4674 37.6532 38.484C37.6319 38.5234 37.6025 38.5601 37.5662 38.5912Z" fill="#BD5B6A" stroke="white"/>
<mask id="path-94-inside-13_733_937" fill="white">
<path d="M37.4724 38.2552C37.5363 38.2898 37.5907 38.3394 37.631 38.3999C37.6713 38.4603 37.6962 38.5296 37.7035 38.6019C37.7035 38.7174 37.6045 38.7669 37.4724 38.7009C37.4141 38.6617 37.3648 38.6105 37.3278 38.5507C37.2908 38.4909 37.2669 38.4239 37.2578 38.3542C37.2578 38.2222 37.3569 38.1892 37.4724 38.2552Z"/>
</mask>
<path d="M37.4724 38.2552C37.5363 38.2898 37.5907 38.3394 37.631 38.3999C37.6713 38.4603 37.6962 38.5296 37.7035 38.6019C37.7035 38.7174 37.6045 38.7669 37.4724 38.7009C37.4141 38.6617 37.3648 38.6105 37.3278 38.5507C37.2908 38.4909 37.2669 38.4239 37.2578 38.3542C37.2578 38.2222 37.3569 38.1892 37.4724 38.2552Z" fill="#BD5B6A"/>
<path d="M37.4724 38.2552L36.9763 39.1234L36.9861 39.1291L36.9961 39.1345L37.4724 38.2552ZM37.7035 38.6019H38.7035V38.551L38.6984 38.5004L37.7035 38.6019ZM37.4724 38.7009L36.9142 39.5306L36.9676 39.5665L37.0252 39.5953L37.4724 38.7009ZM37.2578 38.3542H36.2578V38.4194L36.2663 38.4839L37.2578 38.3542ZM36.9961 39.1345C36.9167 39.0914 36.849 39.0297 36.7989 38.9546L38.463 37.8452C38.3324 37.6492 38.1559 37.4881 37.9487 37.3759L36.9961 39.1345ZM36.7989 38.9546C36.7489 38.8794 36.7179 38.7932 36.7087 38.7034L38.6984 38.5004C38.6745 38.266 38.5937 38.0411 38.463 37.8452L36.7989 38.9546ZM36.7035 38.6019C36.7035 38.3568 36.8336 37.9847 37.2271 37.8076C37.5596 37.658 37.833 37.7632 37.9196 37.8065L37.0252 39.5953C37.2439 39.7047 37.6329 39.8181 38.0479 39.6314C38.524 39.4172 38.7035 38.9624 38.7035 38.6019H36.7035ZM38.0306 37.8712C38.0901 37.9112 38.1404 37.9634 38.1781 38.0243L36.4775 39.077C36.5892 39.2575 36.7381 39.4121 36.9142 39.5306L38.0306 37.8712ZM38.1781 38.0243C38.2158 38.0852 38.2401 38.1535 38.2494 38.2245L36.2663 38.4839C36.2938 38.6944 36.3658 38.8966 36.4775 39.077L38.1781 38.0243ZM38.2578 38.3542C38.2578 38.5316 38.1687 38.9588 37.7098 39.1521C37.3392 39.3081 37.047 39.1638 36.9763 39.1234L37.9686 37.3869C37.7823 37.2805 37.3828 37.1197 36.9338 37.3088C36.3964 37.535 36.2578 38.0448 36.2578 38.3542H38.2578Z" fill="white" mask="url(#path-94-inside-13_733_937)"/>
<path d="M35.9026 37.8259C35.8933 37.8152 35.8842 37.8042 35.8756 37.7928C35.867 37.7814 35.8587 37.7697 35.8509 37.7577C35.8485 37.7541 35.8462 37.7505 35.8439 37.7468L35.9495 37.5568C35.9727 37.5395 35.9982 37.5244 36.0259 37.5123H36.1724C36.1788 37.5198 36.185 37.5275 36.1909 37.5354C36.2018 37.5497 36.2119 37.5646 36.2214 37.58C36.2246 37.5851 36.2276 37.5903 36.2306 37.5955L36.1364 37.7651C36.1081 37.7902 36.0762 37.8107 36.0425 37.8259H35.9026ZM36.2083 37.6792C36.1967 37.6983 36.1835 37.7161 36.169 37.7325L36.2335 37.6293C36.2269 37.6454 36.2186 37.6621 36.2083 37.6792ZM35.9297 37.5727L35.8332 37.7289C35.8306 37.7245 35.8282 37.7201 35.8258 37.7157C35.8304 37.7042 35.836 37.6922 35.8427 37.6798C35.8641 37.6405 35.8935 37.6037 35.9297 37.5727Z" fill="#BD5B6A" stroke="white"/>
<path d="M35.8492 37.5505C35.8852 37.5037 35.9343 37.4604 35.9949 37.4294H36.0369C36.0666 37.4448 36.0944 37.4635 36.1196 37.4851C36.1403 37.5029 36.1594 37.5227 36.1764 37.5441C36.1837 37.5534 36.1907 37.563 36.1973 37.5729C36.2083 37.5894 36.2181 37.6065 36.2267 37.6243C36.2359 37.6433 36.2436 37.6629 36.2499 37.6831C36.2242 37.7236 36.1958 37.7544 36.1724 37.7761H36.0369C36.0124 37.7614 35.9895 37.7444 35.9684 37.7255C35.9487 37.7077 35.9306 37.6882 35.9143 37.6672C35.906 37.6565 35.8982 37.6454 35.8908 37.6339C35.8898 37.6322 35.8887 37.6305 35.8876 37.6288C35.8722 37.6039 35.8594 37.5777 35.8492 37.5505ZM36.0922 37.835C36.0791 37.8235 36.0655 37.8099 36.0515 37.7937L36.163 37.7847C36.1499 37.7962 36.139 37.8045 36.1319 37.8095C36.1186 37.8192 36.1053 37.8276 36.0922 37.835Z" fill="#BD5B6A" stroke="white"/>
<g style="mix-blend-mode:screen">
<path d="M35.084 37.6334L35.0841 37.6334V37.6277C35.0841 37.3794 35.1827 37.1413 35.3583 36.9657C35.5339 36.7901 35.772 36.6915 36.0203 36.6915V36.6915L36.026 36.6915C36.2153 36.6893 36.401 36.7437 36.5593 36.8475L36.8336 36.4294L36.5593 36.8475C36.7176 36.9514 36.8414 37.1001 36.9149 37.2746L37.3476 37.0925L36.9149 37.2746C36.9883 37.4491 37.0081 37.6416 36.9717 37.8274C36.9353 38.0132 36.8443 38.1839 36.7104 38.3178C36.5765 38.4517 36.4058 38.5427 36.22 38.5791C36.0341 38.6155 35.8417 38.5957 35.6672 38.5223C35.4926 38.4488 35.344 38.3251 35.2401 38.1667L34.822 38.441L35.2401 38.1667C35.1362 38.0084 35.0819 37.8227 35.084 37.6334Z" fill="#BD5B6A"/>
<path d="M35.084 37.6334L35.0841 37.6334V37.6277C35.0841 37.3794 35.1827 37.1413 35.3583 36.9657C35.5339 36.7901 35.772 36.6915 36.0203 36.6915V36.6915L36.026 36.6915C36.2153 36.6893 36.401 36.7437 36.5593 36.8475L36.8336 36.4294L36.5593 36.8475C36.7176 36.9514 36.8414 37.1001 36.9149 37.2746L37.3476 37.0925L36.9149 37.2746C36.9883 37.4491 37.0081 37.6416 36.9717 37.8274C36.9353 38.0132 36.8443 38.1839 36.7104 38.3178C36.5765 38.4517 36.4058 38.5427 36.22 38.5791C36.0341 38.6155 35.8417 38.5957 35.6672 38.5223C35.4926 38.4488 35.344 38.3251 35.2401 38.1667L34.822 38.441L35.2401 38.1667C35.1362 38.0084 35.0819 37.8227 35.084 37.6334Z" stroke="white"/>
</g>
<g style="mix-blend-mode:screen">
<path d="M36.502 38.4591L36.502 38.4591L36.502 38.4534C36.502 38.3295 36.5266 38.2069 36.5743 38.0926C36.622 37.9783 36.692 37.8746 36.7801 37.7875C36.8681 37.7005 36.9726 37.6317 37.0875 37.5853C37.2023 37.5389 37.3252 37.5157 37.449 37.5172L37.449 37.5172L37.4548 37.5172C37.6436 37.5172 37.8283 37.5734 37.9852 37.6785C38.1421 37.7837 38.2642 37.9331 38.336 38.1079C38.4077 38.2826 38.426 38.4747 38.3883 38.6598C38.3507 38.8449 38.2588 39.0146 38.1245 39.1475C37.9902 39.2803 37.8194 39.3701 37.6339 39.4057C37.4484 39.4412 37.2565 39.4208 37.0826 39.347C36.9087 39.2732 36.7607 39.1494 36.6573 38.9913C36.5539 38.8332 36.4999 38.648 36.502 38.4591Z" fill="#BD5B6A"/>
<path d="M36.502 38.4591L36.502 38.4591L36.502 38.4534C36.502 38.3295 36.5266 38.2069 36.5743 38.0926C36.622 37.9783 36.692 37.8746 36.7801 37.7875C36.8681 37.7005 36.9726 37.6317 37.0875 37.5853C37.2023 37.5389 37.3252 37.5157 37.449 37.5172L37.449 37.5172L37.4548 37.5172C37.6436 37.5172 37.8283 37.5734 37.9852 37.6785C38.1421 37.7837 38.2642 37.9331 38.336 38.1079C38.4077 38.2826 38.426 38.4747 38.3883 38.6598C38.3507 38.8449 38.2588 39.0146 38.1245 39.1475C37.9902 39.2803 37.8194 39.3701 37.6339 39.4057C37.4484 39.4412 37.2565 39.4208 37.0826 39.347C36.9087 39.2732 36.7607 39.1494 36.6573 38.9913C36.5539 38.8332 36.4999 38.648 36.502 38.4591Z" stroke="white"/>
</g>
<path d="M28.1819 34.6985C28.1228 34.7235 28.0713 34.7292 28.031 34.7272C28.0284 34.7238 28.0257 34.7204 28.0231 34.7171C28.0156 34.7073 28.0084 34.6973 28.0015 34.687C28.0028 34.6807 28.0043 34.6743 28.0059 34.6681C28.0311 34.5713 28.0969 34.4907 28.1844 34.447C28.2489 34.4147 28.3087 34.4087 28.3566 34.4134C28.3618 34.4197 28.3669 34.4262 28.3719 34.4328C28.3792 34.4423 28.3862 34.4521 28.3929 34.4622C28.3905 34.4718 28.3872 34.4823 28.3829 34.4937C28.3787 34.505 28.3733 34.517 28.3668 34.5297C28.3317 34.5968 28.2689 34.6616 28.1819 34.6985Z" fill="#BD5B6A" stroke="white"/>
<path d="M26.6153 33.9067C26.6054 33.9067 26.5955 33.9063 26.5856 33.9055C26.5845 33.904 26.5835 33.9025 26.5824 33.9009C26.584 33.8926 26.5858 33.8843 26.5879 33.8761C26.6131 33.7794 26.679 33.6988 26.7665 33.655C26.8275 33.6245 26.8843 33.6175 26.9308 33.6208C26.9371 33.6283 26.9432 33.636 26.9492 33.6439C26.9535 33.6495 26.9576 33.6551 26.9617 33.6609C26.9648 33.6652 26.9678 33.6696 26.9708 33.674C26.9689 33.6794 26.9667 33.6851 26.9642 33.691C26.9464 33.7324 26.9071 33.7957 26.8293 33.8452C26.7659 33.8855 26.6911 33.9071 26.6153 33.9067Z" fill="#BD5B6A" stroke="white"/>
<mask id="path-102-inside-14_733_937" fill="white">
<path d="M26.5312 34.1777L26.7789 34.739L27.0265 34.4584L26.5312 34.1777Z"/>
</mask>
<path d="M26.5312 34.1777L26.7789 34.739L27.0265 34.4584L26.5312 34.1777Z" fill="#BD5B6A"/>
<path d="M26.5312 34.1777L27.0243 33.3077L24.3978 31.8194L25.6163 34.5814L26.5312 34.1777ZM26.7789 34.739L25.864 35.1427L26.4948 36.5725L27.5287 35.4006L26.7789 34.739ZM27.0265 34.4584L27.7763 35.12L28.5917 34.1959L27.5195 33.5884L27.0265 34.4584ZM25.6163 34.5814L25.864 35.1427L27.6938 34.3354L27.4462 33.7741L25.6163 34.5814ZM27.5287 35.4006L27.7763 35.12L26.2767 33.7968L26.029 34.0774L27.5287 35.4006ZM27.5195 33.5884L27.0243 33.3077L26.0382 35.0478L26.5335 35.3284L27.5195 33.5884Z" fill="white" mask="url(#path-102-inside-14_733_937)"/>
<mask id="path-104-inside-15_733_937" fill="white">
<path d="M27.9492 34.9873L28.1968 35.5651L28.4445 35.2845L27.9492 34.9873Z"/>
</mask>
<path d="M27.9492 34.9873L28.1968 35.5651L28.4445 35.2845L27.9492 34.9873Z" fill="#BD5B6A"/>
<path d="M27.9492 34.9873L28.4637 34.1298L25.8118 32.5387L27.0301 35.3812L27.9492 34.9873ZM28.1968 35.5651L27.2777 35.959L27.9006 37.4123L28.9467 36.2267L28.1968 35.5651ZM28.4445 35.2845L29.1943 35.9461L29.9892 35.0451L28.959 34.427L28.4445 35.2845ZM27.0301 35.3812L27.2777 35.959L29.116 35.1712L28.8684 34.5934L27.0301 35.3812ZM28.9467 36.2267L29.1943 35.9461L27.6946 34.6228L27.447 34.9035L28.9467 36.2267ZM28.959 34.427L28.4637 34.1298L27.4347 35.8448L27.93 36.1419L28.959 34.427Z" fill="white" mask="url(#path-104-inside-15_733_937)"/>
<path d="M28.171 31.0678C28.2436 31.0287 28.311 31.0233 28.3629 31.0298C28.3672 31.0349 28.3714 31.0401 28.3754 31.0454C28.3814 31.053 28.3871 31.0608 28.3926 31.0688C28.3902 31.0786 28.3871 31.0892 28.3831 31.1005C28.377 31.1172 28.369 31.1353 28.3583 31.1542C28.3174 31.2261 28.25 31.2864 28.1665 31.3185C28.1161 31.3379 28.072 31.3434 28.0363 31.3426C28.0329 31.3384 28.0296 31.3341 28.0263 31.3298C28.0175 31.3181 28.0091 31.3061 28.0011 31.2937C28.0024 31.2875 28.0039 31.2812 28.0055 31.275C28.0268 31.1961 28.0798 31.1169 28.171 31.0678Z" fill="#BD5B6A" stroke="white"/>
<path d="M26.61 30.52C26.6535 30.5235 26.7136 30.5185 26.7786 30.4885C26.8926 30.4359 26.9445 30.3499 26.9669 30.2828C26.9698 30.2743 26.9721 30.2661 26.9741 30.2583C26.9667 30.247 26.9589 30.2359 26.9508 30.2252C26.9452 30.2177 26.9394 30.2104 26.9335 30.2032C26.8866 30.1995 26.8287 30.2062 26.7665 30.2373C26.679 30.2811 26.6131 30.3616 26.5879 30.4584M26.61 30.52L26.5879 30.4584M26.61 30.52C26.6072 30.5166 26.6044 30.5131 26.6017 30.5096C26.595 30.501 26.5886 30.4922 26.5824 30.4832C26.584 30.4748 26.5858 30.4666 26.5879 30.4584M26.61 30.52L26.5879 30.4584" fill="#BD5B6A" stroke="white"/>
<mask id="path-108-inside-16_733_937" fill="white">
<path d="M26.9917 31.0254H26.5625L26.9917 31.5206V31.0254Z"/>
</mask>
<path d="M26.9917 31.0254H26.5625L26.9917 31.5206V31.0254Z" fill="#BD5B6A"/>
<path d="M26.9917 31.0254H27.9917V30.0254H26.9917V31.0254ZM26.5625 31.0254V30.0254H24.3725L25.8068 31.6803L26.5625 31.0254ZM26.9917 31.5206L26.236 32.1756L27.9917 34.2014V31.5206H26.9917ZM26.9917 30.0254H26.5625V32.0254H26.9917V30.0254ZM25.8068 31.6803L26.236 32.1756L27.7474 30.8657L27.3182 30.3705L25.8068 31.6803ZM27.9917 31.5206V31.0254H25.9917V31.5206H27.9917Z" fill="white" mask="url(#path-108-inside-16_733_937)"/>
<mask id="path-110-inside-17_733_937" fill="white">
<path d="M28.4116 31.834H27.9824L28.4116 32.3457V31.834Z"/>
</mask>
<path d="M28.4116 31.834H27.9824L28.4116 32.3457V31.834Z" fill="#BD5B6A"/>
<path d="M28.4116 31.834H29.4116V30.834H28.4116V31.834ZM27.9824 31.834V30.834H25.8386L27.2162 32.4766L27.9824 31.834ZM28.4116 32.3457L27.6454 32.9884L29.4116 35.0942V32.3457H28.4116ZM28.4116 30.834H27.9824V32.834H28.4116V30.834ZM27.2162 32.4766L27.6454 32.9884L29.1778 31.7031L28.7486 31.1914L27.2162 32.4766ZM29.4116 32.3457V31.834H27.4116V32.3457H29.4116Z" fill="white" mask="url(#path-110-inside-17_733_937)"/>
<path d="M28.3509 36.4741C28.3342 36.5016 28.3142 36.5264 28.2918 36.5482L28.3788 36.4004C28.38 36.4027 28.3813 36.405 28.3825 36.4074C28.3751 36.4284 28.3649 36.451 28.3509 36.4741ZM28.3732 36.3905L28.279 36.56C28.2506 36.5851 28.2188 36.6056 28.1851 36.6208H28.0409C28.032 36.6107 28.0234 36.6003 28.0152 36.5895C28.0066 36.5782 27.9983 36.5666 27.9905 36.5546C27.9885 36.5515 27.9865 36.5484 27.9845 36.5453L28.0921 36.3517C28.1152 36.3344 28.1408 36.3193 28.1685 36.3072H28.315C28.3214 36.3147 28.3275 36.3225 28.3335 36.3303C28.3443 36.3447 28.3545 36.3595 28.364 36.3749C28.3671 36.3801 28.3702 36.3852 28.3732 36.3905ZM28.0723 36.3676L27.9736 36.5272C27.9713 36.5231 27.9689 36.5189 27.9667 36.5148C27.9717 36.502 27.9778 36.4886 27.9853 36.4747C28.0066 36.4354 28.036 36.3986 28.0723 36.3676Z" fill="#BD5B6A" stroke="white"/>
<mask id="path-113-inside-18_733_937" fill="white">
<path d="M28.1795 36.2244C28.2433 36.259 28.2977 36.3087 28.338 36.3691C28.3783 36.4295 28.4032 36.4989 28.4106 36.5711C28.4106 36.6867 28.3115 36.7362 28.1795 36.6701C28.1211 36.6309 28.0718 36.5797 28.0348 36.5199C27.9978 36.4601 27.974 36.3932 27.9648 36.3235C27.9648 36.1914 28.0639 36.1584 28.1795 36.2244Z"/>
</mask>
<path d="M28.1795 36.2244C28.2433 36.259 28.2977 36.3087 28.338 36.3691C28.3783 36.4295 28.4032 36.4989 28.4106 36.5711C28.4106 36.6867 28.3115 36.7362 28.1795 36.6701C28.1211 36.6309 28.0718 36.5797 28.0348 36.5199C27.9978 36.4601 27.974 36.3932 27.9648 36.3235C27.9648 36.1914 28.0639 36.1584 28.1795 36.2244Z" fill="#BD5B6A"/>
<path d="M28.1795 36.2244L27.6833 37.0927L27.6932 37.0983L27.7031 37.1037L28.1795 36.2244ZM28.4106 36.5711H29.4106V36.5202L29.4054 36.4696L28.4106 36.5711ZM28.1795 36.6701L27.6212 37.4998L27.6747 37.5358L27.7322 37.5646L28.1795 36.6701ZM27.9648 36.3235H26.9648V36.3886L26.9733 36.4532L27.9648 36.3235ZM27.7031 37.1037C27.6238 37.0607 27.5561 36.999 27.506 36.9238L29.1701 35.8144C29.0394 35.6184 28.8628 35.4573 28.6558 35.3452L27.7031 37.1037ZM27.506 36.9238C27.4558 36.8486 27.4249 36.7624 27.4157 36.6726L29.4054 36.4696C29.3815 36.2353 29.3007 36.0104 29.1701 35.8144L27.506 36.9238ZM27.4106 36.5711C27.4106 36.3261 27.5406 35.9539 27.9342 35.7768C28.2666 35.6272 28.5401 35.7324 28.6267 35.7757L27.7322 37.5646C27.9509 37.6739 28.3399 37.7874 28.7549 37.6006C29.231 37.3864 29.4106 36.9317 29.4106 36.5711H27.4106ZM28.7377 35.8405C28.7971 35.8804 28.8474 35.9326 28.8851 35.9936L27.1846 37.0463C27.2963 37.2267 27.4451 37.3814 27.6212 37.4998L28.7377 35.8405ZM28.8851 35.9936C28.9228 36.0545 28.9471 36.1227 28.9564 36.1938L26.9733 36.4532C27.0008 36.6636 27.0729 36.8658 27.1846 37.0463L28.8851 35.9936ZM28.9648 36.3235C28.9648 36.5009 28.8758 36.9281 28.4168 37.1213C28.0462 37.2774 27.754 37.1331 27.6833 37.0927L28.6756 35.3562C28.4893 35.2497 28.0898 35.089 27.6408 35.278C27.1034 35.5042 26.9648 36.014 26.9648 36.3235H28.9648Z" fill="white" mask="url(#path-113-inside-18_733_937)"/>
<path d="M26.9138 35.5868C26.9019 35.6158 26.8784 35.6598 26.8344 35.7011L26.9081 35.5759C26.91 35.5795 26.9119 35.5831 26.9138 35.5868ZM26.496 35.6903C26.501 35.6775 26.5071 35.6641 26.5146 35.6503C26.5359 35.611 26.5653 35.5742 26.6016 35.5431C26.6133 35.5331 26.6258 35.5236 26.6389 35.5149L26.809 35.5411L26.8886 35.5533L26.8957 35.5544C26.898 35.5582 26.9003 35.5621 26.9025 35.566L26.8207 35.7132C26.7848 35.7434 26.7371 35.7711 26.6739 35.7888C26.6629 35.7919 26.6522 35.7944 26.6418 35.7964H26.5702C26.5613 35.7863 26.5527 35.7758 26.5445 35.7651C26.5358 35.7538 26.5276 35.7421 26.5198 35.7302C26.5139 35.7212 26.5083 35.712 26.5029 35.7027C26.5006 35.6986 26.4982 35.6945 26.496 35.6903Z" fill="#BD5B6A" stroke="white"/>
<path d="M26.8408 35.5815L26.7583 35.7466H26.6014C26.5971 35.7412 26.5929 35.7358 26.5888 35.7302C26.5788 35.7167 26.5695 35.7026 26.5608 35.688C26.5594 35.6856 26.558 35.6832 26.5566 35.6807C26.5327 35.6386 26.5151 35.5932 26.5044 35.5462L26.8408 35.5815ZM26.7761 35.7466L26.8806 35.5929L26.7761 35.7466Z" fill="#BD5B6A" stroke="white"/>
<g style="mix-blend-mode:screen">
<path d="M25.8087 35.6197L25.8087 35.6197V35.6141C25.8087 35.3658 25.9073 35.1276 26.0829 34.952C26.2585 34.7765 26.4966 34.6778 26.7449 34.6778V34.6779L26.7506 34.6778C26.9399 34.6757 27.1256 34.73 27.2839 34.8338L27.554 34.4221L27.2839 34.8338C27.4422 34.9377 27.566 35.0864 27.6395 35.2609C27.7129 35.4354 27.7327 35.6279 27.6963 35.8137C27.6599 35.9995 27.5689 36.1703 27.435 36.3042C27.3011 36.4381 27.1304 36.529 26.9446 36.5654C26.7587 36.6018 26.5663 36.5821 26.3918 36.5086C26.2172 36.4352 26.0686 36.3114 25.9647 36.1531C25.8608 35.9947 25.8065 35.8091 25.8087 35.6197Z" fill="#BD5B6A"/>
<path d="M25.8087 35.6197L25.8087 35.6197V35.6141C25.8087 35.3658 25.9073 35.1276 26.0829 34.952C26.2585 34.7765 26.4966 34.6778 26.7449 34.6778V34.6779L26.7506 34.6778C26.9399 34.6757 27.1256 34.73 27.2839 34.8338L27.554 34.4221L27.2839 34.8338C27.4422 34.9377 27.566 35.0864 27.6395 35.2609C27.7129 35.4354 27.7327 35.6279 27.6963 35.8137C27.6599 35.9995 27.5689 36.1703 27.435 36.3042C27.3011 36.4381 27.1304 36.529 26.9446 36.5654C26.7587 36.6018 26.5663 36.5821 26.3918 36.5086C26.2172 36.4352 26.0686 36.3114 25.9647 36.1531C25.8608 35.9947 25.8065 35.8091 25.8087 35.6197Z" stroke="white"/>
</g>
<g style="mix-blend-mode:screen">
<path d="M27.3715 36.9694C27.2668 36.8127 27.2109 36.6285 27.2109 36.44C27.2109 36.1874 27.3113 35.945 27.49 35.7664C27.6687 35.5877 27.911 35.4873 28.1637 35.4873C28.3521 35.4873 28.5363 35.5432 28.693 35.6479C28.8497 35.7526 28.9718 35.9014 29.0439 36.0754C29.116 36.2495 29.1349 36.4411 29.0981 36.6259C29.0614 36.8107 28.9706 36.9805 28.8374 37.1137C28.7041 37.247 28.5344 37.3377 28.3495 37.3745C28.1647 37.4112 27.9732 37.3924 27.7991 37.3203C27.625 37.2481 27.4762 37.126 27.3715 36.9694Z" fill="#BD5B6A"/>
<path d="M27.3715 36.9694C27.2668 36.8127 27.2109 36.6285 27.2109 36.44C27.2109 36.1874 27.3113 35.945 27.49 35.7664C27.6687 35.5877 27.911 35.4873 28.1637 35.4873C28.3521 35.4873 28.5363 35.5432 28.693 35.6479C28.8497 35.7526 28.9718 35.9014 29.0439 36.0754C29.116 36.2495 29.1349 36.4411 29.0981 36.6259C29.0614 36.8107 28.9706 36.9805 28.8374 37.1137C28.7041 37.247 28.5344 37.3377 28.3495 37.3745C28.1647 37.4112 27.9732 37.3924 27.7991 37.3203C27.625 37.2481 27.4762 37.126 27.3715 36.9694Z" stroke="white"/>
</g>
<path d="M27.9905 33.2206C27.9885 33.2176 27.9865 33.2145 27.9845 33.2113L28.0921 33.0177C28.1152 33.0004 28.1408 32.9853 28.1685 32.9732H28.315C28.3214 32.9807 28.3275 32.9885 28.3335 32.9964C28.3444 33.0107 28.3545 33.0256 28.364 33.0409C28.3671 33.0461 28.3702 33.0513 28.3732 33.0565L28.279 33.226C28.2506 33.2512 28.2188 33.2716 28.1851 33.2869H28.0409C28.032 33.2767 28.0234 33.2663 28.0152 33.2556C28.0066 33.2443 27.9983 33.2326 27.9905 33.2206ZM27.9667 33.1808C27.9717 33.168 27.9778 33.1546 27.9853 33.1408C28.0066 33.1014 28.036 33.0646 28.0723 33.0336L27.9736 33.1932C27.9713 33.1891 27.9689 33.185 27.9667 33.1808ZM28.2918 33.2142L28.3788 33.0664C28.38 33.0687 28.3813 33.0711 28.3825 33.0734C28.3751 33.0945 28.3649 33.117 28.3509 33.1401C28.3342 33.1676 28.3142 33.1924 28.2918 33.2142Z" fill="#BD5B6A" stroke="white"/>
<mask id="path-120-inside-19_733_937" fill="white">
<path d="M28.1795 32.8904C28.2433 32.925 28.2977 32.9747 28.338 33.0351C28.3783 33.0955 28.4032 33.1649 28.4106 33.2371C28.4106 33.3527 28.3115 33.4022 28.1795 33.3362C28.1211 33.2969 28.0718 33.2457 28.0348 33.1859C27.9978 33.1262 27.974 33.0592 27.9648 32.9895C27.9648 32.8574 28.0639 32.8244 28.1795 32.8904Z"/>
</mask>
<path d="M28.1795 32.8904C28.2433 32.925 28.2977 32.9747 28.338 33.0351C28.3783 33.0955 28.4032 33.1649 28.4106 33.2371C28.4106 33.3527 28.3115 33.4022 28.1795 33.3362C28.1211 33.2969 28.0718 33.2457 28.0348 33.1859C27.9978 33.1262 27.974 33.0592 27.9648 32.9895C27.9648 32.8574 28.0639 32.8244 28.1795 32.8904Z" fill="#BD5B6A"/>
<path d="M28.1795 32.8904L27.6833 33.7587L27.6932 33.7643L27.7031 33.7697L28.1795 32.8904ZM28.4106 33.2371H29.4106V33.1862L29.4054 33.1356L28.4106 33.2371ZM28.1795 33.3362L27.6212 34.1659L27.6747 34.2018L27.7322 34.2306L28.1795 33.3362ZM27.9648 32.9895H26.9648V33.0546L26.9733 33.1192L27.9648 32.9895ZM27.7031 33.7697C27.6238 33.7267 27.5561 33.665 27.506 33.5898L29.1701 32.4804C29.0394 32.2844 28.8628 32.1233 28.6558 32.0112L27.7031 33.7697ZM27.506 33.5898C27.4559 33.5146 27.4249 33.4284 27.4157 33.3386L29.4054 33.1356C29.3815 32.9013 29.3007 32.6764 29.1701 32.4804L27.506 33.5898ZM27.4106 33.2371C27.4106 32.9921 27.5406 32.6199 27.9342 32.4428C28.2666 32.2932 28.5401 32.3984 28.6267 32.4417L27.7322 34.2306C27.9509 34.3399 28.3399 34.4534 28.7549 34.2667C29.231 34.0524 29.4106 33.5977 29.4106 33.2371H27.4106ZM28.7377 32.5065C28.7972 32.5465 28.8474 32.5987 28.8851 32.6596L27.1846 33.7123C27.2963 33.8927 27.4451 34.0474 27.6212 34.1659L28.7377 32.5065ZM28.8851 32.6596C28.9228 32.7205 28.9471 32.7887 28.9564 32.8598L26.9733 33.1192C27.0008 33.3297 27.0729 33.5318 27.1846 33.7123L28.8851 32.6596ZM28.9648 32.9895C28.9648 33.1669 28.8758 33.5941 28.4168 33.7873C28.0462 33.9434 27.754 33.7991 27.6833 33.7587L28.6756 32.0222C28.4893 31.9158 28.0898 31.755 27.6408 31.944C27.1034 32.1703 26.9648 32.68 26.9648 32.9895H28.9648Z" fill="white" mask="url(#path-120-inside-19_733_937)"/>
<path d="M26.7103 32.1616V32.2042V32.1616ZM26.7103 32.1616L26.7557 32.1745M26.7103 32.1616L26.7557 32.1745M26.8777 32.2094L26.7745 32.395H26.7103V32.2617L26.8777 32.2094ZM26.8777 32.2094L26.8215 32.1933L26.7557 32.1745M26.8777 32.2094L26.7557 32.1745M26.7103 32.4486V32.4658C26.6787 32.4658 26.6644 32.466 26.6533 32.4667C26.6512 32.4668 26.6499 32.4669 26.6492 32.467C26.6492 32.467 26.6492 32.467 26.6492 32.467C26.6686 32.4827 26.689 32.4973 26.7103 32.5106M26.7103 32.4486C26.7248 32.4424 26.7416 32.4337 26.7595 32.422M26.7103 32.4486V32.4178L26.7645 32.4132M26.7103 32.4486L26.7645 32.4132M26.7595 32.422L26.7103 32.5106M26.7595 32.422C26.7631 32.4197 26.7666 32.4173 26.7702 32.4147M26.7595 32.422L26.7645 32.4132M26.7103 32.5106L26.7702 32.4147M26.7103 32.5106C26.8589 32.5931 26.9745 32.5436 26.9745 32.395M26.7702 32.4147L26.7716 32.4125M26.7702 32.4147C26.7713 32.414 26.7724 32.4132 26.7735 32.4124M26.7645 32.4132L26.7716 32.4125M26.7716 32.4125L26.7735 32.4124M26.7716 32.4125L26.7825 32.395M26.7735 32.4124C26.7808 32.4071 26.7882 32.4014 26.7956 32.395M26.7735 32.4124L26.9745 32.395M26.7825 32.395H26.7956M26.7825 32.395L26.8954 32.2144L26.9104 32.2187C26.8928 32.2805 26.8552 32.3437 26.7979 32.3931C26.7971 32.3937 26.7964 32.3944 26.7956 32.395M26.7825 32.395H26.9745M26.7956 32.395H26.9745M26.505 32.298C26.5025 32.2936 26.5 32.2892 26.4976 32.2848C26.5023 32.2733 26.5079 32.2613 26.5146 32.2489C26.5359 32.2096 26.5653 32.1728 26.6016 32.1418L26.505 32.298Z" fill="#BD5B6A" stroke="white"/>
<path d="M26.7066 32.0471C26.7067 32.0475 26.7068 32.0478 26.7068 32.0481L26.7034 32.0484C26.7045 32.048 26.7055 32.0476 26.7066 32.0471ZM26.5211 32.186C26.5443 32.1559 26.5729 32.1273 26.6064 32.1024L26.6773 32.1261L26.7459 32.1489L26.8466 32.1825L26.8518 32.1842C26.8579 32.1921 26.8637 32.2001 26.8692 32.2084C26.8802 32.2249 26.89 32.2421 26.8986 32.2598C26.908 32.2794 26.916 32.2996 26.9223 32.3204C26.8976 32.3585 26.8688 32.3884 26.8385 32.4117H26.7088C26.6843 32.397 26.6614 32.38 26.6403 32.361C26.6206 32.3433 26.6025 32.3238 26.5862 32.3028C26.5766 32.2905 26.5677 32.2776 26.5595 32.2643C26.5441 32.2395 26.5312 32.2132 26.5211 32.186ZM26.7534 32.4608C26.7436 32.4515 26.7336 32.4411 26.7234 32.4293L26.8258 32.421C26.8018 32.4378 26.7772 32.4508 26.7534 32.4608Z" fill="#BD5B6A" stroke="white"/>
<g style="mix-blend-mode:screen">
<path d="M25.8087 32.2799H25.8087L25.8087 32.2742C25.8072 32.1504 25.8304 32.0275 25.8768 31.9126C25.9232 31.7978 25.992 31.6933 26.079 31.6053C26.1661 31.5172 26.2698 31.4472 26.3841 31.3995C26.4984 31.3518 26.621 31.3272 26.7449 31.3272V31.3273L26.7506 31.3272C26.9395 31.3251 27.1247 31.3791 27.2828 31.4825C27.4409 31.5859 27.5647 31.7339 27.6385 31.9078C27.7123 32.0817 27.7327 32.2736 27.6972 32.4591C27.6616 32.6446 27.5718 32.8154 27.439 32.9497C27.3062 33.084 27.1364 33.1759 26.9513 33.2135C26.7662 33.2512 26.5741 33.2329 26.3994 33.1612C26.2247 33.0894 26.0752 32.9673 25.97 32.8104C25.8649 32.6535 25.8087 32.4688 25.8087 32.2799Z" fill="#BD5B6A"/>
<path d="M25.8087 32.2799H25.8087L25.8087 32.2742C25.8072 32.1504 25.8304 32.0275 25.8768 31.9126C25.9232 31.7978 25.992 31.6933 26.079 31.6053C26.1661 31.5172 26.2698 31.4472 26.3841 31.3995C26.4984 31.3518 26.621 31.3272 26.7449 31.3272V31.3273L26.7506 31.3272C26.9395 31.3251 27.1247 31.3791 27.2828 31.4825C27.4409 31.5859 27.5647 31.7339 27.6385 31.9078C27.7123 32.0817 27.7327 32.2736 27.6972 32.4591C27.6616 32.6446 27.5718 32.8154 27.439 32.9497C27.3062 33.084 27.1364 33.1759 26.9513 33.2135C26.7662 33.2512 26.5741 33.2329 26.3994 33.1612C26.2247 33.0894 26.0752 32.9673 25.97 32.8104C25.8649 32.6535 25.8087 32.4688 25.8087 32.2799Z" stroke="white"/>
</g>
<g style="mix-blend-mode:screen">
<path d="M27.3715 33.6344C27.2668 33.4777 27.2109 33.2935 27.2109 33.1051C27.2109 32.8524 27.3113 32.6101 27.49 32.4314C27.6687 32.2527 27.911 32.1523 28.1637 32.1523C28.3521 32.1523 28.5363 32.2082 28.693 32.3129C28.8497 32.4176 28.9718 32.5664 29.0439 32.7405C29.116 32.9146 29.1349 33.1061 29.0981 33.291C29.0614 33.4758 28.9706 33.6455 28.8374 33.7788C28.7041 33.912 28.5344 34.0027 28.3495 34.0395C28.1647 34.0763 27.9732 34.0574 27.7991 33.9853C27.625 33.9132 27.4762 33.7911 27.3715 33.6344Z" fill="#BD5B6A"/>
<path d="M27.3715 33.6344C27.2668 33.4777 27.2109 33.2935 27.2109 33.1051C27.2109 32.8524 27.3113 32.6101 27.49 32.4314C27.6687 32.2527 27.911 32.1523 28.1637 32.1523C28.3521 32.1523 28.5363 32.2082 28.693 32.3129C28.8497 32.4176 28.9718 32.5664 29.0439 32.7405C29.116 32.9146 29.1349 33.1061 29.0981 33.291C29.0614 33.4758 28.9706 33.6455 28.8374 33.7788C28.7041 33.912 28.5344 34.0027 28.3495 34.0395C28.1647 34.0763 27.9732 34.0574 27.7991 33.9853C27.625 33.9132 27.4762 33.7911 27.3715 33.6344Z" stroke="white"/>
</g>
</svg>
