<svg width="145" height="141" viewBox="0 0 145 141" fill="none" xmlns="http://www.w3.org/2000/svg">
<path d="M42.4054 73.1502V124.755L0.5 100.441V48.8196L42.4054 73.1502Z" fill="#BD5B6A" stroke="white"/>
<path d="M67.4979 1.11869L67.4996 1.11969L107.634 24.4067C106.266 24.477 104.773 24.9526 103.239 25.8601C103.238 25.8606 103.237 25.861 103.237 25.8615L52.6926 55.0291L52.6808 55.0359L52.6695 55.0433C49.6888 56.9859 47.2067 59.6024 45.4239 62.6814C43.7756 65.5279 42.7676 68.696 42.4659 71.965L0.516393 47.7541C0.725075 44.4418 1.6936 41.2206 3.34858 38.3407C5.05192 35.3767 7.43379 32.8589 10.2987 30.9938L60.8191 1.81375C63.5344 0.248433 65.8755 0.16863 67.4979 1.11869Z" fill="#BD5B6A" stroke="white"/>
<g style="mix-blend-mode:multiply" opacity="0.3">
<path d="M103.236 25.8615L103.235 25.8624L100.251 27.6432L58.2284 3.30984L60.7871 1.81296C63.5019 0.248406 65.8424 0.168789 67.4646 1.11869L67.4664 1.11973L107.617 24.4071C106.255 24.4788 104.769 24.9548 103.236 25.8615Z" fill="#BD5B6A"/>
<path d="M103.236 25.8615L103.235 25.8624L100.251 27.6432L58.2284 3.30984L60.7871 1.81296C63.5019 0.248406 65.8424 0.168789 67.4646 1.11869L67.4664 1.11973L107.617 24.4071C106.255 24.4788 104.769 24.9548 103.236 25.8615Z" stroke="white"/>
</g>
<path opacity="0.5" d="M42.447 71.954L0.510055 47.7503C0.631895 44.8564 1.39282 42.0262 2.73712 39.4626L44.7757 63.8058C43.4401 66.3312 42.6474 69.1067 42.447 71.954Z" fill="#BD5B6A" stroke="white"/>
<path d="M103.742 26.7251L103.742 26.7251C106.425 25.1762 108.749 25.0829 110.371 26.0045C111.991 26.9252 113.087 28.9592 113.095 32.0548V84.5915L43.4062 124.758V72.8105C43.6004 69.4198 44.5882 66.122 46.2901 63.1828C47.9922 60.2434 50.3608 57.745 53.2051 55.8887L103.742 26.7251Z" fill="#BD5B6A" stroke="white"/>
<path d="M42.4054 124.755L0.5 100.44V79.0628L42.4054 103.393V124.755Z" fill="#BD5B6A" stroke="white"/>
<path d="M43.4062 124.757V103.394L113.079 63.163V84.5257L43.4062 124.757Z" fill="#BD5B6A" stroke="white"/>
<path d="M108.538 39.1275C114.33 42.4929 117.298 49.6437 117.285 58.6459C117.272 67.6332 114.281 78.359 108.286 88.6748C102.292 98.9907 94.4547 106.901 86.6528 111.362C78.838 115.831 71.1559 116.793 65.3642 113.428C59.5724 110.062 56.6047 102.911 56.6175 93.9092C56.6302 84.9219 59.6221 74.1961 65.6164 63.8802C71.6107 53.5644 79.4479 45.6541 87.2498 41.193C95.0646 36.7244 102.747 35.762 108.538 39.1275Z" fill="#BD5B6A" stroke="white"/>
<path d="M103.507 32.7974L101.241 31.4786C95.4584 28.1174 87.3553 28.5436 78.234 33.7741C69.2483 38.9696 61.1007 47.8854 55.2045 58.118C49.3082 68.3509 45.6905 79.8537 45.715 90.1948L45.715 90.196C45.715 100.471 49.3701 107.58 55.0739 110.894L103.507 32.7974ZM103.507 32.7974C98.1375 31.8031 91.7534 33.1469 84.9648 37.0681C75.7748 42.372 67.5091 51.4338 61.542 61.7787C55.5749 72.1235 51.8796 83.7981 51.8796 94.3561L51.8796 94.3577C51.904 102.031 53.8941 108.115 57.3557 112.219L55.074 110.894L103.507 32.7974Z" fill="#BD5B6A" stroke="white"/>
<path d="M88.9051 36.1577L88.9054 36.1576C97.0792 32.4659 104.258 32.7717 109.383 36.2855C113.294 38.9677 116.09 43.5744 117.209 49.8908C115.889 45.0094 113.405 41.2993 110.031 38.9756C104.871 35.4215 97.7709 35.207 89.9158 38.7945C88.7714 39.2917 87.6546 39.8502 86.5702 40.4675L86.5675 40.4691C78.3055 45.2427 70.8375 53.2527 65.2915 62.4684L65.2911 62.4689C59.3136 72.4315 55.5955 83.8114 55.5955 94.0922L55.5955 94.0934C55.6205 103.989 59.1376 111.08 64.9456 114.398C68.7136 116.551 73.3712 117.073 78.5292 115.808C72.2305 117.944 66.6425 117.573 62.3272 115.115C56.5529 111.825 52.8811 104.698 52.8811 94.3563L52.8811 94.3548C52.8484 83.6054 56.7729 71.5937 63.0943 61.0689C68.939 51.3496 76.8237 42.9173 85.466 37.9345L85.4691 37.9327C86.5821 37.2805 87.7291 36.688 88.9051 36.1577Z" fill="#BD5B6A" stroke="white"/>
<path d="M100.389 54.0526C103.682 56.0436 105.319 60.2621 105.163 65.6435C105.007 71.0075 103.062 77.4118 99.3408 83.5661C95.6195 89.7204 90.8514 94.4173 86.1738 97.0474C81.481 99.686 76.9847 100.195 73.6919 98.2045C70.3992 96.2134 68.7617 91.995 68.9183 86.6136C69.0745 81.2495 71.0189 74.8453 74.7403 68.691C78.4616 62.5367 83.2296 57.8397 87.9073 55.2097C92.6 52.5711 97.0964 52.0616 100.389 54.0526Z" fill="#BD5B6A" stroke="white"/>
<path d="M98.6883 57.4999C101.564 59.2386 103.005 62.9283 102.868 67.6585C102.732 72.3714 101.024 78.0023 97.7514 83.4154C94.4782 88.8284 90.2851 92.9566 86.1748 95.2664C82.0494 97.5846 78.1125 98.0223 75.237 96.2836C72.3615 94.5449 70.9204 90.8552 71.0569 86.1251C71.1929 81.4122 72.9008 75.7813 76.1739 70.3682C79.447 64.9551 83.6402 60.8269 87.7505 58.5172C91.8759 56.199 95.8128 55.7612 98.6883 57.4999Z" fill="#BD5B6A" stroke="white"/>
<g style="mix-blend-mode:screen" opacity="0.4">
<mask id="path-13-inside-1_733_840" fill="white">
<path d="M95.4129 54.637C94.137 54.4987 92.8468 54.5824 91.5995 54.8846C89.761 55.3368 88.002 56.066 86.3828 57.0472C84.4074 58.2319 82.5741 59.6388 80.9185 61.2404C77.9216 64.1582 75.4331 67.5561 73.5558 71.294C72.9777 72.4168 72.4705 73.5746 72.037 74.7608C71.8539 75.1873 71.7316 75.6374 71.6738 76.0979C71.8059 76.0979 72.4827 74.2985 74.018 71.5416C76.0182 67.953 78.5196 64.6678 81.4468 61.7851C83.0616 60.2202 84.8379 58.8313 86.746 57.6415C88.2847 56.671 89.9517 55.9209 91.6985 55.4129C92.8843 55.0739 94.1138 54.9126 95.3469 54.9341C95.8085 54.9672 96.272 54.9672 96.7336 54.9341C96.316 54.7528 95.8679 54.652 95.4129 54.637Z"/>
</mask>
<path d="M95.4129 54.637C94.137 54.4987 92.8468 54.5824 91.5995 54.8846C89.761 55.3368 88.002 56.066 86.3828 57.0472C84.4074 58.2319 82.5741 59.6388 80.9185 61.2404C77.9216 64.1582 75.4331 67.5561 73.5558 71.294C72.9777 72.4168 72.4705 73.5746 72.037 74.7608C71.8539 75.1873 71.7316 75.6374 71.6738 76.0979C71.8059 76.0979 72.4827 74.2985 74.018 71.5416C76.0182 67.953 78.5196 64.6678 81.4468 61.7851C83.0616 60.2202 84.8379 58.8313 86.746 57.6415C88.2847 56.671 89.9517 55.9209 91.6985 55.4129C92.8843 55.0739 94.1138 54.9126 95.3469 54.9341C95.8085 54.9672 96.272 54.9672 96.7336 54.9341C96.316 54.7528 95.8679 54.652 95.4129 54.637Z" fill="#BD5B6A"/>
<path d="M95.4129 54.637L95.3051 55.6312L95.3424 55.6352L95.3799 55.6364L95.4129 54.637ZM91.5995 54.8846L91.364 53.9127L91.3606 53.9136L91.5995 54.8846ZM86.3828 57.0472L86.8971 57.9048L86.9011 57.9024L86.3828 57.0472ZM80.9185 61.2404L80.2232 60.5216L80.221 60.5239L80.9185 61.2404ZM73.5558 71.294L74.4449 71.7517L74.4494 71.7428L73.5558 71.294ZM72.037 74.7608L72.9559 75.1553L72.9668 75.1299L72.9763 75.104L72.037 74.7608ZM71.6738 76.0979L70.6816 75.9734L70.5405 77.0979H71.6738L71.6738 76.0979ZM74.018 71.5416L73.1445 71.0548L73.1444 71.0551L74.018 71.5416ZM81.4468 61.7851L80.7509 61.067L80.7451 61.0726L81.4468 61.7851ZM86.746 57.6415L87.2751 58.4901L87.2795 58.4873L86.746 57.6415ZM91.6985 55.4129L91.4237 54.4514L91.4193 54.4527L91.6985 55.4129ZM95.3469 54.9341L95.4183 53.9367L95.3914 53.9348L95.3644 53.9343L95.3469 54.9341ZM96.7336 54.9341L96.805 55.9316L97.1319 54.0169L96.7336 54.9341ZM95.5207 53.6428C94.13 53.492 92.7236 53.5834 91.364 53.9127L91.8349 55.8565C92.97 55.5815 94.1441 55.5053 95.3051 55.6312L95.5207 53.6428ZM91.3606 53.9136C89.4237 54.39 87.5705 55.1583 85.8646 56.192L86.9011 57.9024C88.4335 56.9738 90.0983 56.2837 91.8383 55.8557L91.3606 53.9136ZM85.8685 56.1896C83.8277 57.4136 81.9336 58.867 80.2232 60.5216L81.6138 61.9591C83.2145 60.4106 84.9872 59.0503 86.8971 57.9048L85.8685 56.1896ZM80.221 60.5239C77.1442 63.5194 74.5894 67.0078 72.6622 70.8452L74.4494 71.7428C76.2767 68.1045 78.6989 64.797 81.6161 61.9569L80.221 60.5239ZM72.6667 70.8362C72.0695 71.9961 71.5455 73.1922 71.0978 74.4175L72.9763 75.104C73.3954 73.957 73.8859 72.8374 74.4449 71.7517L72.6667 70.8362ZM71.1181 74.3662C70.898 74.8788 70.7511 75.4199 70.6816 75.9734L72.666 76.2225C72.7122 75.8549 72.8097 75.4957 72.9559 75.1553L71.1181 74.3662ZM71.6738 77.0979C71.956 77.0979 72.1565 76.9824 72.2449 76.9231C72.3423 76.8578 72.4093 76.789 72.4452 76.7495C72.5175 76.6699 72.5693 76.5903 72.5973 76.5455C72.6584 76.4479 72.7195 76.3305 72.7741 76.2213C72.8862 75.9974 73.0403 75.6671 73.2229 75.2829C73.5962 74.4975 74.1389 73.38 74.8917 72.0281L73.1444 71.0551C72.3619 72.4601 71.7985 73.6208 71.4166 74.4243C71.2216 74.8346 71.0856 75.1264 70.9857 75.326C70.9619 75.3736 70.9426 75.4109 70.9272 75.4396C70.9195 75.4538 70.9135 75.4647 70.9089 75.4727C70.9066 75.4767 70.9048 75.4797 70.9036 75.4818C70.9023 75.484 70.9017 75.485 70.9017 75.4849C70.9017 75.4849 70.9026 75.4835 70.9044 75.4808C70.9061 75.4782 70.9091 75.4738 70.9133 75.4679C70.9205 75.4579 70.9379 75.4344 70.9649 75.4046C70.9882 75.379 71.0438 75.3206 71.1307 75.2622C71.2087 75.2099 71.4 75.0979 71.6738 75.0979V77.0979ZM74.8915 72.0285C76.8454 68.5229 79.2889 65.3137 82.1485 62.4976L80.7451 61.0726C77.7502 64.022 75.1909 67.3832 73.1445 71.0548L74.8915 72.0285ZM82.1427 62.5032C83.7066 60.9876 85.4271 59.6424 87.2751 58.4901L86.2169 56.793C84.2487 58.0201 82.4165 59.4529 80.7509 61.067L82.1427 62.5032ZM87.2795 58.4873C88.7392 57.5667 90.3206 56.855 91.9778 56.3731L91.4193 54.4527C89.5828 54.9867 87.8302 55.7754 86.2125 56.7957L87.2795 58.4873ZM91.9734 56.3744C93.0642 56.0626 94.1951 55.9142 95.3294 55.934L95.3644 53.9343C94.0325 53.911 92.7045 54.0853 91.4237 54.4514L91.9734 56.3744ZM95.2755 55.9316C95.7847 55.9681 96.2958 55.9681 96.805 55.9316L96.6622 53.9367C96.2481 53.9664 95.8324 53.9664 95.4183 53.9367L95.2755 55.9316ZM97.1319 54.0169C96.5988 53.7854 96.0268 53.6567 95.4459 53.6375L95.3799 55.6364C95.7091 55.6473 96.0332 55.7202 96.3353 55.8514L97.1319 54.0169Z" fill="white" mask="url(#path-13-inside-1_733_840)"/>
</g>
<g style="mix-blend-mode:screen" opacity="0.4">
<mask id="path-15-inside-2_733_840" fill="white">
<path d="M78.2781 98.7305C79.554 98.8688 80.8442 98.785 82.0915 98.4828C83.93 98.0306 85.689 97.3014 87.3082 96.3202C89.3067 95.1397 91.1624 93.7327 92.8385 92.1271C95.8355 89.2093 98.324 85.8113 100.201 82.0735C100.779 80.9507 101.287 79.7928 101.72 78.6067C101.903 78.1802 102.025 77.7301 102.083 77.2695C101.951 77.2695 101.274 79.069 99.739 81.8259C97.7389 85.4144 95.2375 88.6996 92.3102 91.5823C90.6955 93.1472 88.9191 94.5362 87.011 95.7259C85.4724 96.6964 83.8053 97.4466 82.0585 97.9546C80.8729 98.2945 79.6433 98.4559 78.4102 98.4333C77.9485 98.4003 77.4851 98.4003 77.0234 98.4333C77.4205 98.6067 77.8454 98.7074 78.2781 98.7305Z"/>
</mask>
<path d="M78.2781 98.7305C79.554 98.8688 80.8442 98.785 82.0915 98.4828C83.93 98.0306 85.689 97.3014 87.3082 96.3202C89.3067 95.1397 91.1624 93.7327 92.8385 92.1271C95.8355 89.2093 98.324 85.8113 100.201 82.0735C100.779 80.9507 101.287 79.7928 101.72 78.6067C101.903 78.1802 102.025 77.7301 102.083 77.2695C101.951 77.2695 101.274 79.069 99.739 81.8259C97.7389 85.4144 95.2375 88.6996 92.3102 91.5823C90.6955 93.1472 88.9191 94.5362 87.011 95.7259C85.4724 96.6964 83.8053 97.4466 82.0585 97.9546C80.8729 98.2945 79.6433 98.4559 78.4102 98.4333C77.9485 98.4003 77.4851 98.4003 77.0234 98.4333C77.4205 98.6067 77.8454 98.7074 78.2781 98.7305Z" fill="#BD5B6A"/>
<path d="M82.0915 98.4828L82.327 99.4547L82.3304 99.4539L82.0915 98.4828ZM87.3082 96.3202L86.7996 95.4592L86.7899 95.465L87.3082 96.3202ZM92.8385 92.1271L93.5303 92.8493L93.5361 92.8436L92.8385 92.1271ZM100.201 82.0735L99.3121 81.6157L99.3076 81.6247L100.201 82.0735ZM101.72 78.6067L100.801 78.2122L100.79 78.2375L100.781 78.2635L101.72 78.6067ZM102.083 77.2695L103.075 77.3941L103.217 76.2695H102.083V77.2695ZM99.739 81.8259L100.613 82.3127L100.613 82.3124L99.739 81.8259ZM92.3102 91.5823L93.0062 92.3005L93.0119 92.2948L92.3102 91.5823ZM87.011 95.7259L86.4819 94.8774L86.4776 94.8801L87.011 95.7259ZM82.0585 97.9546L82.3341 98.9158L82.3377 98.9148L82.0585 97.9546ZM78.4102 98.4333L78.3387 99.4308L78.3653 99.4327L78.3919 99.4332L78.4102 98.4333ZM77.0234 98.4333L76.952 97.4359L76.6231 99.3497L77.0234 98.4333ZM78.1703 99.7246C79.561 99.8754 80.9674 99.7841 82.327 99.4547L81.8561 97.511C80.721 97.7859 79.5469 97.8622 78.3859 97.7363L78.1703 99.7246ZM82.3304 99.4539C84.2673 98.9775 86.1205 98.2092 87.8264 97.1755L86.7899 95.465C85.2575 96.3937 83.5927 97.0838 81.8527 97.5118L82.3304 99.4539ZM87.8168 97.1813C89.8815 95.9617 91.7986 94.508 93.5303 92.8492L92.1467 91.405C90.5261 92.9574 88.7319 94.3178 86.7996 95.4592L87.8168 97.1813ZM93.5361 92.8436C96.6129 89.8481 99.1676 86.3597 101.095 82.5223L99.3076 81.6247C97.4803 85.263 95.0581 88.5705 92.1409 91.4106L93.5361 92.8436ZM101.09 82.5312C101.687 81.3714 102.211 80.1753 102.659 78.9499L100.781 78.2635C100.362 79.4104 99.8711 80.53 99.3122 81.6157L101.09 82.5312ZM102.639 79.0012C102.859 78.4886 103.006 77.9476 103.075 77.3941L101.091 77.145C101.045 77.5125 100.947 77.8718 100.801 78.2122L102.639 79.0012ZM102.083 76.2695C101.801 76.2695 101.601 76.385 101.512 76.4443C101.415 76.5096 101.348 76.5785 101.312 76.6179C101.24 76.6975 101.188 76.7772 101.16 76.8219C101.099 76.9196 101.038 77.0369 100.983 77.1461C100.871 77.3701 100.717 77.7003 100.534 78.0846C100.161 78.8699 99.6182 79.9875 98.8654 81.3393L100.613 82.3124C101.395 80.9073 101.959 79.7467 102.34 78.9431C102.535 78.5329 102.671 78.241 102.771 78.0414C102.795 77.9939 102.814 77.9566 102.83 77.9278C102.838 77.9137 102.844 77.9028 102.848 77.8947C102.85 77.8907 102.852 77.8878 102.853 77.8856C102.855 77.8835 102.855 77.8825 102.855 77.8825C102.855 77.8826 102.854 77.884 102.853 77.8866C102.851 77.8892 102.848 77.8937 102.844 77.8996C102.837 77.9095 102.819 77.9331 102.792 77.9629C102.769 77.9885 102.713 78.0469 102.626 78.1052C102.548 78.1575 102.357 78.2695 102.083 78.2695V76.2695ZM98.8655 81.339C96.9117 84.8446 94.4681 88.0538 91.6086 90.8698L93.0119 92.2948C96.0068 89.3455 98.5661 85.9843 100.613 82.3127L98.8655 81.339ZM91.6143 90.8642C90.0504 92.3798 88.33 93.7251 86.4819 94.8774L87.5401 96.5745C89.5083 95.3473 91.3406 93.9146 93.0062 92.3004L91.6143 90.8642ZM86.4776 94.8801C85.0179 95.8008 83.4364 96.5124 81.7793 96.9944L82.3377 98.9148C84.1742 98.3807 85.9268 97.5921 87.5445 96.5718L86.4776 94.8801ZM81.7829 96.9933C80.6928 97.3059 79.5622 97.4542 78.4284 97.4335L78.3919 99.4332C79.7244 99.4575 81.053 99.2832 82.3341 98.9158L81.7829 96.9933ZM78.4816 97.4359C77.9724 97.3994 77.4612 97.3994 76.952 97.4359L77.0949 99.4308C77.509 99.4011 77.9246 99.4011 78.3387 99.4308L78.4816 97.4359ZM76.6231 99.3497C77.13 99.5711 77.6725 99.6996 78.2248 99.7291L78.3313 97.7319C78.0184 97.7152 77.7109 97.6424 77.4237 97.5169L76.6231 99.3497Z" fill="white" mask="url(#path-15-inside-2_733_840)"/>
</g>
<path d="M51.8814 94.3448L51.8816 94.3448C52.0774 85.6509 54.0794 77.0945 57.7584 69.2187L51.4472 65.577C47.8614 73.3009 45.9097 81.6843 45.7168 90.2016C45.7181 100.474 49.373 107.581 55.0758 110.894L51.8814 94.3448ZM51.8814 94.3448L51.8815 94.3577C51.9059 102.031 53.8959 108.115 57.3575 112.219L55.0759 110.894L51.8814 94.3448Z" fill="#BD5B6A" stroke="white"/>
<path d="M97.6636 29.9438L97.7066 29.9686L97.7536 29.9844C99.699 30.6409 101.564 31.5124 103.314 32.5819C97.9061 31.5185 91.4508 32.8418 84.572 36.8203L84.5719 36.8201L84.5603 36.8272C76.713 41.6548 69.9943 48.1088 64.8563 55.752L15.9688 27.529C21.0337 20.0397 27.643 13.7183 35.3547 8.99121C42.7145 4.74282 49.431 3.63635 54.7931 5.21074L97.6636 29.9438Z" fill="#BD5B6A" stroke="white"/>
<path d="M83.4727 53.3078V47.9255L90.6113 43.7987V49.181L83.4727 53.3078Z" fill="#BD5B6A" stroke="white"/>
<path d="M65.6571 84.7802L59.3344 88.4286L65.6571 84.7802ZM65.6571 84.7802C65.7229 84.7422 65.7977 84.7223 65.8737 84.7227C65.9497 84.723 66.0243 84.7435 66.0898 84.7822C66.1553 84.8208 66.2093 84.8761 66.2464 84.9425C66.2835 85.0088 66.3023 85.0839 66.3009 85.1599L65.6571 84.7802ZM59.5776 88.8654L59.5776 88.8655L59.5842 88.8616L65.8009 85.2745V89.6667H65.8009L65.8009 89.6729C65.8025 89.801 65.7699 89.9273 65.7065 90.0387C65.6431 90.1501 65.5512 90.2426 65.4402 90.3067C65.4402 90.3067 65.4402 90.3067 65.4401 90.3067L59.207 93.9034V89.4876C59.2085 89.3608 59.2434 89.2366 59.3081 89.1275C59.3732 89.0179 59.4662 88.9274 59.5776 88.8654Z" fill="#BD5B6A" stroke="white"/>
<path d="M64.0603 90.675L63.6165 90.9267L63.8424 91.1859L64.061 90.6758L64.0603 90.675ZM64.0603 90.675L64.0617 90.6742L64.3872 89.9148L63.725 90.2904L64.0603 90.675ZM63.7483 89.1829L63.8424 89.337L63.7501 89.1831L63.7483 89.1829ZM63.7483 89.1829L63.7214 89.1389H63.3802L63.7483 89.1829ZM63.7882 88.6271H63.9599H63.9613H64.2882L64.0975 88.8591L64.0997 88.8578C64.1064 88.8537 64.1115 88.851 64.1149 88.8494C64.111 88.8507 64.105 88.8523 64.0972 88.8536C64.0963 88.8538 64.0955 88.8539 64.0946 88.8541C64.0673 88.8583 64.0197 88.8584 63.9584 88.8317C63.8881 88.801 63.8382 88.7485 63.8111 88.697C63.791 88.659 63.7885 88.632 63.7882 88.6271ZM63.7882 88.6271C63.7881 88.6266 63.7881 88.6263 63.7881 88.6263C63.7881 88.6263 63.7882 88.6266 63.7882 88.6271H63.7882ZM63.6685 90.3224L63.2811 90.5421L63.4777 90.7676L63.6685 90.3224ZM63.567 88.9176C63.5671 88.9174 63.5686 88.9167 63.5716 88.9157C63.5685 88.9172 63.567 88.9177 63.567 88.9176Z" fill="#BD5B6A" stroke="white"/>
<path d="M59.5996 92.5066C59.5996 92.5134 59.6001 92.5197 59.6012 92.5256C59.6261 92.5478 59.6533 92.5663 59.6814 92.5803C59.6965 92.5879 59.7162 92.5964 59.7402 92.6038C59.7689 92.6057 59.7998 92.6057 59.8307 92.6057H59.8307M59.5996 92.5066L59.7537 92.5248L59.8307 92.6057M59.5996 92.5066H59.7364L59.6272 92.392C59.6135 92.4289 59.6042 92.4673 59.5996 92.5066ZM59.8307 92.6057V92.5338L59.8878 92.5405C59.8708 92.5639 59.8517 92.5857 59.8307 92.6057ZM59.8307 92.5066V92.4005V92.3986V92.259V92.1434C59.8307 92.1343 59.8357 92.128 59.8439 92.1246C59.8556 92.1294 59.8689 92.1355 59.8833 92.1434C59.9102 92.1582 59.9408 92.1791 59.9711 92.2086C59.9763 92.2235 59.9793 92.2402 59.9793 92.259C59.9793 92.2946 59.9753 92.3299 59.9676 92.3644C59.9611 92.3928 59.9521 92.4207 59.9406 92.4476C59.9382 92.453 59.9358 92.4585 59.9333 92.4638C59.9263 92.4785 59.9187 92.4928 59.9103 92.5066H59.8307Z" fill="#BD5B6A" stroke="white"/>
<path d="M60.8366 91.5325L60.8765 91.6123L60.8366 91.6083V91.5325ZM60.8366 91.5325L60.8804 91.6127L61.0002 91.6248C60.9525 91.5705 60.9009 91.539 60.8616 91.521C60.8534 91.5245 60.8451 91.5283 60.8366 91.5325ZM60.6203 91.8063C60.6301 91.7705 60.6444 91.7359 60.6628 91.7034L60.7775 91.8957H60.6941C60.6651 91.8694 60.6402 91.8392 60.6203 91.8063ZM60.7009 91.9017L60.7842 91.9069L60.8251 91.9755C60.8221 91.9744 60.819 91.9732 60.816 91.972C60.7733 91.9549 60.7345 91.9309 60.7009 91.9017ZM60.8528 91.9847C60.8474 91.9831 60.842 91.9814 60.8366 91.9796V91.9102L60.9355 91.9165C60.9106 91.9422 60.8829 91.9651 60.8528 91.9847ZM61.0004 91.8323L60.8907 91.6316H61.006C61.0076 91.6334 61.0091 91.6353 61.0106 91.6371C61.0284 91.659 61.043 91.6811 61.055 91.703C61.0433 91.7485 61.0249 91.7921 61.0004 91.8323ZM60.9885 91.8363L60.9927 91.8447C60.9861 91.8547 60.9793 91.8644 60.9721 91.8739C60.9664 91.8813 60.9605 91.8886 60.9544 91.8957H60.8366V91.7877V91.7396V91.6316H60.8861L60.9885 91.8363Z" fill="#BD5B6A" stroke="white"/>
<mask id="path-24-inside-3_733_840" fill="white">
<path d="M61.034 92.407L60.8359 92.1924L60.6543 92.6381L61.034 92.407Z"/>
</mask>
<path d="M61.034 92.407L60.8359 92.1924L60.6543 92.6381L61.034 92.407Z" fill="#BD5B6A"/>
<path d="M61.034 92.407L61.5539 93.2612L62.5972 92.6262L61.7688 91.7287L61.034 92.407ZM60.8359 92.1924L61.5707 91.5141L60.5035 90.3579L59.9098 91.8151L60.8359 92.1924ZM60.6543 92.6381L59.7282 92.2608L58.5842 95.0689L61.1742 93.4923L60.6543 92.6381ZM61.7688 91.7287L61.5707 91.5141L60.1011 92.8707L60.2992 93.0853L61.7688 91.7287ZM59.9098 91.8151L59.7282 92.2608L61.5804 93.0154L61.762 92.5697L59.9098 91.8151ZM61.1742 93.4923L61.5539 93.2612L60.514 91.5528L60.1344 91.7839L61.1742 93.4923Z" fill="white" mask="url(#path-24-inside-3_733_840)"/>
<mask id="path-26-inside-4_733_840" fill="white">
<path d="M59.9441 93.0349L59.746 92.8203L59.5645 93.266L59.9441 93.0349Z"/>
</mask>
<path d="M59.9441 93.0349L59.746 92.8203L59.5645 93.266L59.9441 93.0349Z" fill="#BD5B6A"/>
<path d="M59.9441 93.0349L60.4641 93.8891L61.5073 93.2541L60.679 92.3567L59.9441 93.0349ZM59.746 92.8203L60.4809 92.142L59.4136 90.9858L58.82 92.443L59.746 92.8203ZM59.5645 93.266L58.6384 92.8888L57.4944 95.6968L60.0844 94.1202L59.5645 93.266ZM60.679 92.3567L60.4809 92.142L59.0112 93.4986L59.2093 93.7132L60.679 92.3567ZM58.82 92.443L58.6384 92.8888L60.4905 93.6433L60.6721 93.1976L58.82 92.443ZM60.0844 94.1202L60.4641 93.8891L59.4242 92.1807L59.0445 92.4118L60.0844 94.1202Z" fill="white" mask="url(#path-26-inside-4_733_840)"/>
<path d="M59.7467 90.7582V90.6736C59.7538 90.668 59.7614 90.663 59.7694 90.6588C59.8067 90.6753 59.8576 90.7051 59.9058 90.7581C59.909 90.7616 59.9121 90.7652 59.9151 90.7687L59.8179 90.7626L59.8051 90.7618L59.7467 90.7582ZM59.5325 90.9615C59.5452 90.9195 59.5631 90.8791 59.5858 90.8414L59.6926 91.0368H59.5928C59.5781 91.0226 59.564 91.0067 59.551 90.989C59.5443 90.9799 59.5381 90.9708 59.5325 90.9615ZM59.6076 91.0505L59.7082 91.0654L59.7408 91.125C59.7368 91.1238 59.7329 91.1225 59.729 91.1211C59.6893 91.1073 59.6467 91.0845 59.6076 91.0505ZM59.7467 91.1268V91.0711L59.8239 91.0825C59.8033 91.1002 59.7812 91.116 59.7576 91.1297C59.754 91.1288 59.7503 91.1278 59.7467 91.1268ZM59.8697 91.0368H59.7467V90.9288V90.8807V90.7727H59.8123H59.826H59.9184C59.938 90.7963 59.9541 90.8208 59.9672 90.8456C59.9613 90.8707 59.9533 90.8954 59.9432 90.9192C59.9388 90.9294 59.9341 90.9394 59.929 90.9492C59.9229 90.9611 59.9163 90.9727 59.9091 90.984C59.9018 90.9955 59.894 91.0065 59.8857 91.0172C59.8806 91.0239 59.8752 91.0305 59.8697 91.0368Z" fill="#BD5B6A" stroke="white"/>
<path d="M61.0677 90.1457C61.0661 90.171 61.0624 90.1959 61.0566 90.2203M61.0677 90.1457C61.0677 90.0221 60.9809 89.9853 60.8616 90.0352C60.9016 90.0535 60.9542 90.0857 61.0025 90.1416M61.0677 90.1457L61.0025 90.1416M61.0677 90.1457L61.0025 90.1416M61.0566 90.2203L60.7011 90.1676C60.7068 90.1601 60.7127 90.1528 60.7188 90.1457H60.8366M61.0566 90.2203C61.0444 90.1974 61.0292 90.1742 61.0106 90.1513C61.0091 90.1494 61.0076 90.1476 61.006 90.1457H60.8957M61.0566 90.2203L61.0104 90.3381L60.8957 90.1457M61.0025 90.1416L60.889 90.1345M60.889 90.1345L60.8366 90.0467M60.889 90.1345L60.8957 90.1457M60.889 90.1345L60.8802 90.134M60.8366 90.0467C60.8002 90.0684 60.767 90.0948 60.7377 90.125L60.8366 90.1312M60.8366 90.0467L60.8802 90.134M60.8366 90.0467V90.1312M60.8366 90.1312V90.1457M60.8366 90.1312L60.8802 90.134M60.8366 90.1457H60.8861M60.8366 90.1457V90.2538V90.3018V90.4099H60.9595C60.9651 90.4035 60.9704 90.397 60.9756 90.3903C60.9823 90.3815 60.9888 90.3725 60.9949 90.3633L60.9885 90.3505M60.8861 90.1457L60.9885 90.3505M60.8861 90.1457L60.9885 90.3505M60.8861 90.1457L60.8802 90.134M60.9885 90.3505L60.8957 90.1457M60.6222 90.3237C60.634 90.2835 60.6509 90.245 60.6728 90.2091L60.7825 90.4099H60.6941C60.6661 90.3844 60.6418 90.3553 60.6222 90.3237ZM60.7057 90.42L60.7928 90.4287L60.8263 90.4901C60.8229 90.4889 60.8194 90.4875 60.816 90.4862C60.7753 90.4699 60.7382 90.4473 60.7057 90.42ZM60.8537 90.4991C60.8481 90.4975 60.8424 90.4957 60.8366 90.4938V90.4332L60.9283 90.4424C60.9055 90.4638 60.8805 90.4828 60.8537 90.4991Z" fill="#BD5B6A" stroke="white"/>
<mask id="path-30-inside-5_733_840" fill="white">
<path d="M61.0001 90.5918L60.6699 90.9715H61.0001V90.5918Z"/>
</mask>
<path d="M61.0001 90.5918L60.6699 90.9715H61.0001V90.5918Z" fill="#BD5B6A"/>
<path d="M61.0001 90.5918H62.0001V87.9178L60.2455 89.9356L61.0001 90.5918ZM60.6699 90.9715L59.9153 90.3153L58.4752 91.9715H60.6699V90.9715ZM61.0001 90.9715V91.9715H62.0001V90.9715H61.0001ZM60.2455 89.9356L59.9153 90.3153L61.4245 91.6277L61.7547 91.248L60.2455 89.9356ZM60.6699 91.9715H61.0001V89.9715H60.6699V91.9715ZM62.0001 90.9715V90.5918H60.0001V90.9715H62.0001Z" fill="white" mask="url(#path-30-inside-5_733_840)"/>
<mask id="path-32-inside-6_733_840" fill="white">
<path d="M59.9102 91.2188L59.5801 91.5984H59.9102V91.2188Z"/>
</mask>
<path d="M59.9102 91.2188L59.5801 91.5984H59.9102V91.2188Z" fill="#BD5B6A"/>
<path d="M59.9102 91.2188H60.9102V88.5448L59.1556 90.5626L59.9102 91.2188ZM59.5801 91.5984L58.8255 90.9422L57.3853 92.5984H59.5801V91.5984ZM59.9102 91.5984V92.5984H60.9102V91.5984H59.9102ZM59.1556 90.5626L58.8255 90.9422L60.3347 92.2546L60.6648 91.8749L59.1556 90.5626ZM59.5801 92.5984H59.9102V90.5984H59.5801V92.5984ZM60.9102 91.5984V91.2188H58.9102V91.5984H60.9102Z" fill="white" mask="url(#path-32-inside-6_733_840)"/>
<mask id="path-34-inside-7_733_840" fill="white">
<path d="M59.9779 89.3033C59.9691 89.3773 59.9438 89.4484 59.9038 89.5113C59.8638 89.5742 59.8101 89.6272 59.7467 89.6665C59.6312 89.6665 59.5156 89.6665 59.5156 89.5674C59.5243 89.4934 59.5496 89.4223 59.5897 89.3594C59.6297 89.2965 59.6834 89.2435 59.7467 89.2042C59.8293 89.0391 59.9779 89.0887 59.9779 89.3033Z"/>
</mask>
<path d="M59.9779 89.3033C59.9691 89.3773 59.9438 89.4484 59.9038 89.5113C59.8638 89.5742 59.8101 89.6272 59.7467 89.6665C59.6312 89.6665 59.5156 89.6665 59.5156 89.5674C59.5243 89.4934 59.5496 89.4223 59.5897 89.3594C59.6297 89.2965 59.6834 89.2435 59.7467 89.2042C59.8293 89.0391 59.9779 89.0887 59.9779 89.3033Z" fill="#BD5B6A"/>
<path d="M59.9779 89.3033L60.971 89.4201L60.9779 89.3619V89.3033H59.9779ZM59.7467 89.6665V90.6665H60.0313L60.2732 90.5166L59.7467 89.6665ZM59.5156 89.5674L58.5225 89.4506L58.5156 89.5088V89.5674H59.5156ZM59.7467 89.2042L60.2732 90.0544L60.5143 89.9051L60.6412 89.6514L59.7467 89.2042ZM58.9847 89.1864C58.9936 89.111 59.0194 89.0385 59.0602 88.9744L60.7475 90.0482C60.8683 89.8583 60.9447 89.6436 60.971 89.4201L58.9847 89.1864ZM59.0602 88.9744C59.1009 88.9103 59.1557 88.8563 59.2203 88.8163L60.2732 90.5166C60.4646 90.3982 60.6267 90.238 60.7475 90.0482L59.0602 88.9744ZM59.7467 88.6665C59.7117 88.6665 59.7123 88.6662 59.7189 88.6665C59.7227 88.6668 59.7814 88.6694 59.8626 88.6925C59.9418 88.7152 60.1181 88.7787 60.276 88.9527C60.454 89.1488 60.5156 89.3813 60.5156 89.5674H58.5156C58.5156 89.8031 58.5917 90.0727 58.7949 90.2967C58.9781 90.4985 59.1905 90.5806 59.3131 90.6156C59.5208 90.6749 59.7388 90.6665 59.7467 90.6665V88.6665ZM60.5088 89.6843C60.4999 89.7597 60.4741 89.8322 60.4333 89.8963L58.746 88.8225C58.6252 89.0124 58.5488 89.2271 58.5225 89.4506L60.5088 89.6843ZM60.4333 89.8963C60.3925 89.9604 60.3378 90.0144 60.2732 90.0544L59.2203 88.354C59.0289 88.4725 58.8668 88.6327 58.746 88.8225L60.4333 89.8963ZM60.6412 89.6514C60.6045 89.7248 60.5152 89.8683 60.3296 89.9789C60.1242 90.1013 59.828 90.1597 59.5289 90.0426C59.2527 89.9345 59.1105 89.7312 59.049 89.6009C58.9864 89.4682 58.9779 89.3579 58.9779 89.3033H60.9779C60.9779 89.0676 60.8975 88.4305 60.2576 88.1801C59.4701 87.872 58.9752 88.5113 58.8523 88.757L60.6412 89.6514Z" fill="white" mask="url(#path-34-inside-7_733_840)"/>
<path d="M60.8366 88.593V88.7011V88.7491V88.8572V88.593ZM60.8366 88.593H60.8907H60.8985H61.006C61.0076 88.5948 61.0091 88.5967 61.0106 88.5986C61.028 88.62 61.0424 88.6417 61.0543 88.6632C61.0441 88.7011 61.0294 88.7378 61.0106 88.7724C61.007 88.7789 61.0033 88.7854 60.9994 88.7919C60.9975 88.7949 60.9956 88.798 60.9937 88.801M60.8366 88.593L60.9937 88.801M60.9937 88.801C60.9864 88.8125 60.9787 88.8236 60.9705 88.8343C60.9646 88.8421 60.9585 88.8497 60.9521 88.8572L60.9937 88.801ZM60.8366 88.5658V88.494C60.8441 88.4893 60.8514 88.485 60.8587 88.4812C60.8981 88.4988 60.9506 88.5302 60.999 88.5849L60.8851 88.5715L60.8785 88.5708L60.8366 88.5658ZM60.8366 88.8717L60.9335 88.8778C60.9109 88.9014 60.8859 88.9227 60.859 88.9414C60.8517 88.9395 60.8442 88.9372 60.8366 88.9347V88.8717ZM60.7821 88.8683L60.8195 88.9285C60.8119 88.9256 60.8042 88.9225 60.7965 88.919C60.7609 88.903 60.7308 88.884 60.7053 88.8634L60.7821 88.8683ZM60.6977 88.8572C60.6643 88.8287 60.6393 88.7975 60.6207 88.7665C60.6299 88.7332 60.6429 88.7009 60.6597 88.6705L60.7753 88.8572H60.6977Z" fill="#BD5B6A" stroke="white"/>
<mask id="path-37-inside-8_733_840" fill="white">
<path d="M61.034 89.3689L60.8359 89.1543L60.6543 89.5835L61.034 89.3689Z"/>
</mask>
<path d="M61.034 89.3689L60.8359 89.1543L60.6543 89.5835L61.034 89.3689Z" fill="#BD5B6A"/>
<path d="M61.034 89.3689L61.526 90.2395L62.6251 89.6183L61.7688 88.6906L61.034 89.3689ZM60.8359 89.1543L61.5707 88.476L60.5191 87.3368L59.9149 88.7646L60.8359 89.1543ZM60.6543 89.5835L59.7333 89.1939L58.5885 91.8998L61.1463 90.4541L60.6543 89.5835ZM61.7688 88.6906L61.5707 88.476L60.1011 89.8326L60.2992 90.0472L61.7688 88.6906ZM59.9149 88.7646L59.7333 89.1939L61.5753 89.9732L61.7569 89.5439L59.9149 88.7646ZM61.1463 90.4541L61.526 90.2395L60.5419 88.4983L60.1622 88.7129L61.1463 90.4541Z" fill="white" mask="url(#path-37-inside-8_733_840)"/>
<mask id="path-39-inside-9_733_840" fill="white">
<path d="M59.9441 89.9968L59.746 89.7822L59.5645 90.2114L59.9441 89.9968Z"/>
</mask>
<path d="M59.9441 89.9968L59.746 89.7822L59.5645 90.2114L59.9441 89.9968Z" fill="#BD5B6A"/>
<path d="M59.9441 89.9968L60.4362 90.8674L61.5352 90.2462L60.6789 89.3185L59.9441 89.9968ZM59.746 89.7822L60.4808 89.1039L59.4292 87.9647L58.8251 89.3926L59.746 89.7822ZM59.5645 90.2114L58.6435 89.8218L57.4986 92.5278L60.0565 91.082L59.5645 90.2114ZM60.6789 89.3185L60.4808 89.1039L59.0112 90.4605L59.2093 90.6751L60.6789 89.3185ZM58.8251 89.3926L58.6435 89.8218L60.4854 90.6011L60.667 90.1719L58.8251 89.3926ZM60.0565 91.082L60.4362 90.8674L59.4521 89.1263L59.0724 89.3409L60.0565 91.082Z" fill="white" mask="url(#path-39-inside-9_733_840)"/>
<path d="M108.945 60.3684L115.178 56.7718V61.19H115.178L115.178 61.1934C115.179 61.3189 115.146 61.4424 115.083 61.5511C115.02 61.6597 114.93 61.7497 114.82 61.8116L114.82 61.8116L114.817 61.8135L108.584 65.4102V60.9923C108.584 60.8658 108.618 60.7416 108.681 60.6322C108.744 60.5227 108.835 60.4317 108.945 60.3685C108.945 60.3684 108.945 60.3684 108.945 60.3684Z" fill="#BD5B6A" stroke="white"/>
<path d="M110.27 61.9422C110.266 61.9439 110.265 61.9445 110.265 61.9443C110.265 61.9442 110.266 61.9433 110.27 61.9422Z" fill="#BD5B6A" stroke="white"/>
<path d="M114.522 60.5617H114.687L114.789 60.7664M114.522 60.5617L114.789 60.7664M114.522 60.5617C114.515 60.5692 114.509 60.5768 114.503 60.5846M114.522 60.5617L114.503 60.5846M114.789 60.7664L114.796 60.7793M114.789 60.7664L114.796 60.7793M114.796 60.7793C114.79 60.7885 114.783 60.7975 114.776 60.8063C114.771 60.813 114.766 60.8195 114.76 60.8259H114.583H114.575H114.487C114.462 60.8021 114.44 60.7752 114.422 60.7458C114.432 60.7114 114.446 60.6781 114.463 60.6465C114.467 60.6399 114.471 60.6334 114.475 60.627C114.476 60.6239 114.478 60.6209 114.48 60.6179C114.488 60.6064 114.495 60.5953 114.503 60.5846M114.796 60.7793L114.503 60.5846M114.65 60.4888L114.681 60.5499L114.54 60.5411C114.563 60.5175 114.588 60.4962 114.615 60.4774C114.626 60.4806 114.638 60.4843 114.65 60.4888ZM114.692 60.5506L114.654 60.4903C114.662 60.4932 114.67 60.4964 114.677 60.4999C114.713 60.5159 114.743 60.5349 114.769 60.5555L114.692 60.5506ZM114.776 60.5617C114.81 60.5901 114.835 60.6214 114.853 60.6524C114.844 60.6857 114.831 60.7179 114.814 60.7484L114.699 60.5617H114.776ZM114.648 60.9189C114.642 60.9173 114.637 60.9155 114.631 60.9135C114.631 60.9134 114.63 60.9133 114.63 60.9131C114.619 60.9094 114.608 60.9051 114.597 60.9001C114.561 60.8839 114.528 60.8625 114.499 60.8368L114.589 60.8474L114.595 60.8481L114.724 60.8632C114.701 60.8844 114.675 60.903 114.648 60.9189Z" fill="#BD5B6A" stroke="white"/>
<path d="M113.528 61.1045C113.503 61.1241 113.479 61.1458 113.457 61.1695L113.591 61.1779L113.559 61.1139C113.549 61.1103 113.539 61.1072 113.528 61.1045ZM113.609 61.179L113.565 61.1162C113.572 61.1186 113.579 61.1213 113.586 61.1242C113.624 61.1407 113.656 61.161 113.684 61.1837L113.609 61.179ZM113.617 61.1897H113.691C113.722 61.2168 113.746 61.2471 113.764 61.2777C113.757 61.3052 113.747 61.3319 113.734 61.3575L113.617 61.1897ZM113.699 61.3944L113.706 61.4072C113.7 61.4165 113.693 61.4255 113.687 61.4342C113.681 61.4409 113.676 61.4474 113.67 61.4538H113.493H113.477H113.397C113.374 61.4312 113.353 61.4057 113.335 61.3779C113.344 61.3512 113.354 61.3252 113.367 61.3001C113.374 61.2869 113.381 61.274 113.388 61.2613C113.391 61.2572 113.393 61.2532 113.396 61.2492C113.403 61.2377 113.411 61.2266 113.419 61.2158C113.425 61.2069 113.432 61.1981 113.439 61.1897H113.597L113.699 61.3944ZM113.512 61.488L113.617 61.5063C113.598 61.5213 113.579 61.5349 113.558 61.5469C113.553 61.5452 113.547 61.5434 113.541 61.5415C113.54 61.5412 113.54 61.5409 113.539 61.5406C113.529 61.537 113.518 61.5328 113.507 61.528C113.475 61.5133 113.444 61.4941 113.417 61.4714L113.5 61.4858L113.512 61.488Z" fill="#BD5B6A" stroke="white"/>
<mask id="path-45-inside-10_733_840" fill="white">
<path d="M113.365 62.1967L113.547 61.751L113.745 61.9821L113.365 62.1967Z"/>
</mask>
<path d="M113.365 62.1967L113.547 61.751L113.745 61.9821L113.365 62.1967Z" fill="#BD5B6A"/>
<path d="M113.365 62.1967L112.439 61.8194L111.354 64.482L113.857 63.0673L113.365 62.1967ZM113.547 61.751L114.306 61.1002L113.239 59.8556L112.621 61.3737L113.547 61.751ZM113.745 61.9821L114.237 62.8527L115.295 62.2544L114.504 61.3313L113.745 61.9821ZM114.291 62.574L114.473 62.1283L112.621 61.3737L112.439 61.8194L114.291 62.574ZM112.788 62.4018L112.986 62.6329L114.504 61.3313L114.306 61.1002L112.788 62.4018ZM113.253 61.1115L112.873 61.3262L113.857 63.0673L114.237 62.8527L113.253 61.1115Z" fill="white" mask="url(#path-45-inside-10_733_840)"/>
<mask id="path-47-inside-11_733_840" fill="white">
<path d="M114.455 61.5688L114.637 61.123L114.835 61.3542L114.455 61.5688Z"/>
</mask>
<path d="M114.455 61.5688L114.637 61.123L114.835 61.3542L114.455 61.5688Z" fill="#BD5B6A"/>
<path d="M114.455 61.5688L113.529 61.1915L112.444 63.854L114.947 62.4393L114.455 61.5688ZM114.637 61.123L115.396 60.4722L114.329 59.2276L113.711 60.7457L114.637 61.123ZM114.835 61.3542L115.327 62.2247L116.385 61.6265L115.594 60.7034L114.835 61.3542ZM115.381 61.9461L115.563 61.5003L113.711 60.7457L113.529 61.1915L115.381 61.9461ZM113.877 61.7738L114.076 62.005L115.594 60.7034L115.396 60.4722L113.877 61.7738ZM114.343 60.4836L113.963 60.6982L114.947 62.4393L115.327 62.2247L114.343 60.4836Z" fill="white" mask="url(#path-47-inside-11_733_840)"/>
<path d="M114.642 59.354C114.659 59.3446 114.675 59.3342 114.69 59.3228C114.716 59.3039 114.739 59.2822 114.76 59.2583C114.773 59.2438 114.785 59.2286 114.795 59.2125C114.796 59.2115 114.797 59.2105 114.797 59.2095C114.802 59.2027 114.806 59.1958 114.81 59.1888C114.819 59.174 114.826 59.1588 114.833 59.1432C114.802 59.1003 114.761 59.0597 114.709 59.0279C114.705 59.0249 114.7 59.022 114.695 59.0192C114.689 59.0162 114.684 59.0133 114.679 59.0105H114.512C114.51 59.0133 114.508 59.0162 114.505 59.0191C114.494 59.0319 114.485 59.0454 114.475 59.0594C114.467 59.0721 114.459 59.0852 114.452 59.0987C114.439 59.1253 114.428 59.1532 114.419 59.1818C114.42 59.1828 114.421 59.1838 114.421 59.1848C114.455 59.2398 114.508 59.2956 114.593 59.3346C114.594 59.3352 114.595 59.3358 114.597 59.3364C114.606 59.3409 114.616 59.3448 114.626 59.3483C114.628 59.3492 114.631 59.3501 114.633 59.351C114.636 59.3521 114.639 59.3531 114.642 59.354ZM114.617 58.985L114.544 58.9775C114.547 58.9747 114.551 58.9719 114.554 58.9692C114.576 58.973 114.597 58.9783 114.617 58.985Z" fill="#BD5B6A" stroke="white"/>
<path d="M113.334 59.8985C113.343 59.87 113.354 59.8423 113.368 59.8157C113.375 59.8025 113.382 59.7895 113.39 59.7768C113.39 59.7768 113.39 59.7767 113.39 59.7766M113.334 59.8985L113.39 59.7766M113.334 59.8985C113.353 59.928 113.377 59.9576 113.409 59.9846H113.489H113.503H113.656C113.664 59.9766 113.671 59.9683 113.678 59.9598C113.688 59.9478 113.697 59.9354 113.706 59.9225C113.711 59.9151 113.716 59.9076 113.72 59.9001C113.72 59.8996 113.721 59.8992 113.721 59.8987C113.739 59.8671 113.753 59.8334 113.764 59.7985C113.747 59.7709 113.727 59.7445 113.703 59.7205H113.609H113.609H113.432C113.428 59.7245 113.425 59.7287 113.422 59.7329C113.422 59.7329 113.422 59.7329 113.422 59.7329C113.411 59.7468 113.4 59.7614 113.39 59.7766M113.334 59.8985L113.39 59.7766M113.542 59.6246C113.514 59.643 113.487 59.6643 113.462 59.6882L113.597 59.702L113.598 59.702L113.694 59.7118C113.66 59.6796 113.617 59.6522 113.567 59.6329C113.561 59.6309 113.556 59.6291 113.551 59.6274C113.551 59.6274 113.551 59.6274 113.551 59.6274C113.548 59.6264 113.545 59.6255 113.542 59.6246ZM113.515 60.008L113.618 60.02C113.598 60.0365 113.576 60.0512 113.553 60.064C113.55 60.063 113.547 60.062 113.544 60.061C113.544 60.0608 113.543 60.0607 113.543 60.0605C113.531 60.0565 113.519 60.0518 113.507 60.0464C113.476 60.0321 113.448 60.0154 113.424 59.9973L113.504 60.0067L113.515 60.008Z" fill="#BD5B6A" stroke="white"/>
<mask id="path-51-inside-12_733_840" fill="white">
<path d="M113.381 60.3477H113.711L113.381 60.7274V60.3477Z"/>
</mask>
<path d="M113.381 60.3477H113.711L113.381 60.7274V60.3477Z" fill="#BD5B6A"/>
<path d="M113.381 60.3477V59.3477H112.381V60.3477H113.381ZM113.711 60.3477L114.466 61.0038L115.906 59.3477H113.711V60.3477ZM113.381 60.7274H112.381V63.4014L114.135 61.3835L113.381 60.7274ZM113.381 61.3477H113.711V59.3477H113.381V61.3477ZM112.956 59.6915L112.626 60.0712L114.135 61.3835L114.466 61.0038L112.956 59.6915ZM114.381 60.7274V60.3477H112.381V60.7274H114.381Z" fill="white" mask="url(#path-51-inside-12_733_840)"/>
<mask id="path-53-inside-13_733_840" fill="white">
<path d="M114.471 59.7207H114.801L114.471 60.1004V59.7207Z"/>
</mask>
<path d="M114.471 59.7207H114.801L114.471 60.1004V59.7207Z" fill="#BD5B6A"/>
<path d="M114.471 59.7207V58.7207H113.471V59.7207H114.471ZM114.801 59.7207L115.555 60.3769L116.996 58.7207H114.801V59.7207ZM114.471 60.1004H113.471V62.7743L115.225 60.7566L114.471 60.1004ZM114.471 60.7207H114.801V58.7207H114.471V60.7207ZM114.046 59.0645L113.716 59.4442L115.225 60.7566L115.555 60.3769L114.046 59.0645ZM115.471 60.1004V59.7207H113.471V60.1004H115.471Z" fill="white" mask="url(#path-53-inside-13_733_840)"/>
<path d="M114.406 57.7893C114.41 57.7604 114.416 57.732 114.424 57.7044C114.443 57.7355 114.467 57.7642 114.495 57.7893M114.406 57.7893C114.406 57.9213 114.505 57.9709 114.637 57.8883C114.643 57.8852 114.649 57.8819 114.654 57.8785C114.646 57.8759 114.636 57.873 114.627 57.8695C114.626 57.8693 114.626 57.8691 114.625 57.8688C114.622 57.8678 114.62 57.8667 114.617 57.8656C114.577 57.8497 114.541 57.8278 114.509 57.8013M114.406 57.7893H114.495M114.406 57.7893L114.509 57.8013M114.509 57.8013L114.589 57.8108L114.595 57.8115L114.724 57.8266C114.737 57.8149 114.749 57.8024 114.76 57.7893H114.583H114.575H114.495M114.509 57.8013C114.504 57.7974 114.499 57.7934 114.495 57.7893M114.687 57.5251H114.522C114.515 57.5326 114.509 57.5402 114.503 57.548L114.789 57.7298M114.687 57.5251L114.503 57.548L114.789 57.7298M114.687 57.5251L114.789 57.7298M114.687 57.5251L114.8 57.7365M114.789 57.7298L114.796 57.7427C114.797 57.7406 114.798 57.7386 114.8 57.7365M114.789 57.7298L114.8 57.7365M114.789 57.7298L114.8 57.7365M114.615 57.4408C114.626 57.444 114.638 57.4477 114.65 57.4522L114.681 57.5133L114.54 57.5045C114.563 57.4809 114.588 57.4596 114.615 57.4408ZM114.814 57.7118C114.831 57.6813 114.844 57.6491 114.853 57.6158C114.835 57.5848 114.81 57.5535 114.776 57.5251H114.699L114.814 57.7118ZM114.769 57.5189L114.692 57.514L114.654 57.4537C114.662 57.4566 114.67 57.4598 114.677 57.4633C114.713 57.4793 114.743 57.4983 114.769 57.5189Z" fill="#BD5B6A" stroke="white"/>
<path d="M113.699 58.3568L113.419 58.1782C113.411 58.189 113.403 58.2002 113.396 58.2116C113.393 58.2156 113.391 58.2197 113.388 58.2238C113.381 58.2364 113.374 58.2493 113.367 58.2625C113.355 58.2862 113.345 58.3106 113.337 58.3357C113.356 58.3651 113.379 58.3923 113.405 58.4162H113.477H113.493H113.67C113.676 58.4099 113.681 58.4033 113.687 58.3966C113.693 58.3879 113.7 58.3789 113.706 58.3696L113.699 58.3568ZM113.699 58.3568L113.597 58.1521H113.439C113.432 58.1606 113.425 58.1693 113.419 58.1782L113.699 58.3568ZM113.699 58.3568L113.71 58.3634L113.699 58.3568ZM113.528 58.067C113.539 58.0696 113.549 58.0727 113.559 58.0764L113.591 58.1403L113.457 58.1319C113.479 58.1083 113.503 58.0866 113.528 58.067ZM113.565 58.5054C113.556 58.5029 113.547 58.4999 113.537 58.4965C113.536 58.496 113.534 58.4954 113.533 58.4949C113.531 58.4941 113.529 58.4933 113.527 58.4925C113.491 58.4782 113.458 58.4589 113.428 58.4358L113.5 58.4483L113.512 58.4505L113.617 58.4687C113.6 58.4821 113.583 58.4944 113.565 58.5054ZM113.734 58.3199C113.747 58.2943 113.757 58.2676 113.764 58.2402C113.746 58.2095 113.722 58.1793 113.691 58.1521H113.617L113.734 58.3199ZM113.684 58.1461L113.609 58.1414L113.565 58.0786C113.572 58.0811 113.579 58.0837 113.586 58.0867C113.624 58.1031 113.656 58.1234 113.684 58.1461Z" fill="#BD5B6A" stroke="white"/>
<mask id="path-57-inside-14_733_840" fill="white">
<path d="M113.365 59.1591L113.547 58.7134L113.745 58.9445L113.365 59.1591Z"/>
</mask>
<path d="M113.365 59.1591L113.547 58.7134L113.745 58.9445L113.365 59.1591Z" fill="#BD5B6A"/>
<path d="M113.365 59.1591L112.439 58.7818L111.354 61.4443L113.857 60.0297L113.365 59.1591ZM113.547 58.7134L114.306 58.0626L113.239 56.818L112.621 58.3361L113.547 58.7134ZM113.745 58.9445L114.237 59.8151L115.295 59.2168L114.504 58.2937L113.745 58.9445ZM114.291 59.5364L114.473 59.0907L112.621 58.3361L112.439 58.7818L114.291 59.5364ZM112.788 59.3642L112.986 59.5953L114.504 58.2937L114.306 58.0626L112.788 59.3642ZM113.253 58.0739L112.873 58.2885L113.857 60.0297L114.237 59.8151L113.253 58.0739Z" fill="white" mask="url(#path-57-inside-14_733_840)"/>
<mask id="path-59-inside-15_733_840" fill="white">
<path d="M114.455 58.5322L114.637 58.0864L114.835 58.301L114.455 58.5322Z"/>
</mask>
<path d="M114.455 58.5322L114.637 58.0864L114.835 58.301L114.455 58.5322Z" fill="#BD5B6A"/>
<path d="M114.455 58.5322L113.529 58.1549L112.385 60.9629L114.975 59.3864L114.455 58.5322ZM114.637 58.0864L115.371 57.4082L114.304 56.252L113.711 57.7091L114.637 58.0864ZM114.835 58.301L115.355 59.1552L116.398 58.5202L115.57 57.6228L114.835 58.301ZM115.381 58.9095L115.563 58.4637L113.711 57.7091L113.529 58.1549L115.381 58.9095ZM113.902 58.7647L114.1 58.9793L115.57 57.6228L115.371 57.4082L113.902 58.7647ZM114.315 57.4468L113.935 57.678L114.975 59.3864L115.355 59.1552L114.315 57.4468Z" fill="white" mask="url(#path-59-inside-15_733_840)"/>
<path d="M117.338 138.342V139.334L86.1133 121.323V120.315L117.338 138.342Z" fill="#BD5B6A" stroke="white"/>
<path d="M130.809 131.128V132.135L118.338 139.333V138.342L130.809 131.128Z" fill="#BD5B6A" stroke="white"/>
<path d="M117.837 137.476L86.613 119.448L99.1007 112.234L130.309 130.262L117.837 137.476Z" fill="#BD5B6A" stroke="white"/>
<path d="M117.618 109.98V134.562L90.2734 118.763V94.1974L117.618 109.98Z" fill="#BD5B6A" stroke="white"/>
<path d="M90.2734 113.694L117.618 129.477V134.562L90.2734 118.763V113.694Z" fill="#BD5B6A" stroke="white"/>
<path d="M126.286 105.556V130.138L118.619 134.563V109.981L126.286 105.556Z" fill="#BD5B6A" stroke="white"/>
<path d="M126.286 130.138L118.619 134.563V129.445L126.286 125.02V130.138Z" fill="#BD5B6A" stroke="white"/>
<path d="M118.118 109.115L90.7737 93.3321L98.4403 88.9074L125.785 104.69L118.118 109.115Z" fill="#BD5B6A" stroke="white"/>
<path d="M123.381 121.669V122.825L46.3457 78.3511V77.1946L123.381 121.669Z" fill="#BD5B6A" stroke="white"/>
<path d="M144.281 110.179V111.335L124.381 122.825V121.669L144.281 110.179Z" fill="#BD5B6A" stroke="white"/>
<path d="M123.881 120.803L46.8457 76.3284L66.7454 64.8381L143.781 109.312L123.881 120.803Z" fill="#BD5B6A" stroke="white"/>
<path d="M71.7318 69.1467L85.5441 77.1135L68.1621 87.2208L68.1172 87.2469L54.2426 79.2498L71.7318 69.1467Z" fill="#BD5B6A" stroke="white"/>
<path d="M83.6412 78.1938L82.4761 78.8667L82.4761 78.8668L68.0654 87.1919L67.1045 86.6428L69.2398 70.628L69.8837 70.2532L83.6412 78.1938Z" fill="#BD5B6A" stroke="white"/>
<path d="M143.091 109.156L86.8398 76.6674V76.4353L143.091 108.908V109.156Z" fill="#BD5B6A" stroke="white"/>
<path d="M144.278 108.802V109.041L144.09 109.151V108.909L144.278 108.802Z" fill="#BD5B6A" stroke="white"/>
<path d="M143.593 108.043L87.336 75.5671L87.5297 75.4541L143.775 107.939L143.593 108.043Z" fill="#BD5B6A" stroke="white"/>
<mask id="path-77-inside-16_733_840" fill="white">
<path d="M139.481 107.463L139.002 107.182C139.098 107.251 139.174 107.343 139.224 107.45C139.273 107.557 139.293 107.675 139.283 107.793C139.268 108.123 139.175 108.445 139.012 108.732C138.848 109.019 138.618 109.263 138.342 109.444L138.821 109.724C139.097 109.544 139.327 109.3 139.491 109.013C139.654 108.726 139.747 108.404 139.762 108.074C139.772 107.956 139.752 107.838 139.702 107.731C139.653 107.624 139.577 107.531 139.481 107.463Z"/>
</mask>
<path d="M139.481 107.463L139.002 107.182C139.098 107.251 139.174 107.343 139.224 107.45C139.273 107.557 139.293 107.675 139.283 107.793C139.268 108.123 139.175 108.445 139.012 108.732C138.848 109.019 138.618 109.263 138.342 109.444L138.821 109.724C139.097 109.544 139.327 109.3 139.491 109.013C139.654 108.726 139.747 108.404 139.762 108.074C139.772 107.956 139.752 107.838 139.702 107.731C139.653 107.624 139.577 107.531 139.481 107.463Z" fill="#BD5B6A"/>
<path d="M139.002 107.182L139.508 106.319L138.421 107.996L139.002 107.182ZM139.283 107.793L138.287 107.704L138.285 107.727L138.284 107.749L139.283 107.793ZM138.342 109.444L137.795 108.606L136.442 109.49L137.836 110.306L138.342 109.444ZM138.821 109.724L138.315 110.587L138.849 110.9L139.367 110.562L138.821 109.724ZM139.762 108.074L138.765 107.985L138.763 108.007L138.762 108.03L139.762 108.074ZM139.987 106.6L139.508 106.319L138.496 108.045L138.975 108.325L139.987 106.6ZM138.421 107.996C138.375 107.963 138.338 107.919 138.315 107.868L140.132 107.033C140.01 106.767 139.821 106.538 139.584 106.369L138.421 107.996ZM138.315 107.868C138.291 107.817 138.282 107.76 138.287 107.704L140.279 107.882C140.305 107.591 140.254 107.298 140.132 107.033L138.315 107.868ZM138.284 107.749C138.276 107.921 138.228 108.088 138.143 108.237L139.881 109.227C140.123 108.802 140.26 108.325 140.282 107.837L138.284 107.749ZM138.143 108.237C138.058 108.386 137.939 108.513 137.795 108.606L138.888 110.281C139.298 110.014 139.638 109.652 139.881 109.227L138.143 108.237ZM137.836 110.306L138.315 110.587L139.326 108.862L138.848 108.581L137.836 110.306ZM139.367 110.562C139.777 110.294 140.117 109.933 140.359 109.508L138.622 108.518C138.537 108.667 138.418 108.793 138.274 108.887L139.367 110.562ZM140.359 109.508C140.602 109.083 140.739 108.606 140.761 108.117L138.762 108.03C138.755 108.201 138.707 108.368 138.622 108.518L140.359 109.508ZM140.758 108.162C140.784 107.871 140.733 107.579 140.611 107.313L138.794 108.148C138.77 108.097 138.76 108.041 138.765 107.985L140.758 108.162ZM140.611 107.313C140.489 107.048 140.3 106.819 140.062 106.649L138.899 108.276C138.854 108.244 138.817 108.2 138.794 108.148L140.611 107.313Z" fill="white" mask="url(#path-77-inside-16_733_840)"/>
<mask id="path-79-inside-17_733_840" fill="white">
<path d="M138.342 109.443L129.378 114.627C129.275 114.686 129.158 114.718 129.04 114.718C128.921 114.718 128.804 114.686 128.701 114.627L129.18 114.908C129.283 114.967 129.4 114.998 129.518 114.998C129.637 114.998 129.754 114.967 129.857 114.908L138.821 109.724L138.342 109.443Z"/>
</mask>
<path d="M138.342 109.443L129.378 114.627C129.275 114.686 129.158 114.718 129.04 114.718C128.921 114.718 128.804 114.686 128.701 114.627L129.18 114.908C129.283 114.967 129.4 114.998 129.518 114.998C129.637 114.998 129.754 114.967 129.857 114.908L138.821 109.724L138.342 109.443Z" fill="#BD5B6A"/>
<path d="M138.342 109.443L138.848 108.581L138.346 108.286L137.841 108.578L138.342 109.443ZM129.378 114.627L129.878 115.493L129.879 115.493L129.378 114.627ZM129.04 114.718V115.718V114.718ZM128.701 114.627L129.201 113.761L128.195 115.49L128.701 114.627ZM129.18 114.908L128.674 115.77L128.68 115.774L129.18 114.908ZM129.518 114.998V115.998V114.998ZM129.857 114.908L130.357 115.774L130.357 115.773L129.857 114.908ZM138.821 109.724L139.321 110.59L140.808 109.73L139.327 108.861L138.821 109.724ZM137.841 108.578L128.877 113.761L129.879 115.493L138.843 110.309L137.841 108.578ZM128.878 113.761C128.927 113.733 128.983 113.718 129.04 113.718V115.718C129.334 115.718 129.623 115.64 129.878 115.493L128.878 113.761ZM129.04 113.718C129.096 113.718 129.152 113.733 129.201 113.761L128.201 115.493C128.456 115.64 128.745 115.718 129.04 115.718V113.718ZM128.195 115.49L128.674 115.77L129.686 114.045L129.207 113.764L128.195 115.49ZM128.68 115.774C128.935 115.921 129.224 115.998 129.518 115.998V113.998C129.575 113.998 129.631 114.013 129.68 114.042L128.68 115.774ZM129.518 115.998C129.813 115.998 130.102 115.921 130.357 115.774L129.357 114.042C129.406 114.013 129.462 113.998 129.518 113.998V115.998ZM130.357 115.773L139.321 110.59L138.32 108.858L129.356 114.042L130.357 115.773ZM139.327 108.861L138.848 108.581L137.836 110.306L138.315 110.587L139.327 108.861Z" fill="white" mask="url(#path-79-inside-17_733_840)"/>
<mask id="path-81-inside-18_733_840" fill="white">
<path d="M125.448 120.521L124.953 120.24V118.969L125.432 119.249L125.448 120.521Z"/>
</mask>
<path d="M125.448 120.521L124.953 120.24V118.969L125.432 119.249L125.448 120.521Z" fill="#BD5B6A"/>
<path d="M125.448 120.521L124.955 121.391L126.471 122.249L126.448 120.508L125.448 120.521ZM124.953 120.24H123.953V120.823L124.46 121.11L124.953 120.24ZM124.953 118.969L125.459 118.106L123.953 117.223V118.969H124.953ZM125.432 119.249L126.432 119.236L126.424 118.672L125.938 118.387L125.432 119.249ZM125.941 119.651L125.446 119.37L124.46 121.11L124.955 121.391L125.941 119.651ZM125.953 120.24V118.969H123.953V120.24H125.953ZM124.447 119.831L124.926 120.112L125.938 118.387L125.459 118.106L124.447 119.831ZM124.432 119.262L124.448 120.534L126.448 120.508L126.432 119.236L124.432 119.262Z" fill="white" mask="url(#path-81-inside-18_733_840)"/>
<mask id="path-83-inside-19_733_840" fill="white">
<path d="M141.48 105.812C140.981 105.577 140.428 105.48 139.879 105.532C139.33 105.585 138.806 105.784 138.36 106.109L129.33 111.326L129.809 111.606L138.839 106.39C139.283 106.061 139.808 105.86 140.358 105.808C140.907 105.755 141.461 105.854 141.959 106.093L141.48 105.812Z"/>
</mask>
<path d="M141.48 105.812C140.981 105.577 140.428 105.48 139.879 105.532C139.33 105.585 138.806 105.784 138.36 106.109L129.33 111.326L129.809 111.606L138.839 106.39C139.283 106.061 139.808 105.86 140.358 105.808C140.907 105.755 141.461 105.854 141.959 106.093L141.48 105.812Z" fill="#BD5B6A"/>
<path d="M141.48 105.812L141.986 104.949L141.947 104.927L141.907 104.907L141.48 105.812ZM138.36 106.109L138.86 106.975L138.907 106.948L138.95 106.917L138.36 106.109ZM129.33 111.326L128.83 110.46L127.342 111.319L128.824 112.188L129.33 111.326ZM129.809 111.606L129.303 112.469L129.805 112.763L130.309 112.472L129.809 111.606ZM138.839 106.39L139.339 107.256L139.388 107.227L139.434 107.194L138.839 106.39ZM141.959 106.093L141.527 106.994L142.465 105.23L141.959 106.093ZM141.907 104.907C141.246 104.596 140.512 104.468 139.785 104.537L139.974 106.528C140.344 106.493 140.717 106.558 141.054 106.716L141.907 104.907ZM139.785 104.537C139.057 104.606 138.361 104.87 137.771 105.301L138.95 106.917C139.25 106.697 139.604 106.563 139.974 106.528L139.785 104.537ZM137.86 105.243L128.83 110.46L129.83 112.192L138.86 106.975L137.86 105.243ZM128.824 112.188L129.303 112.469L130.315 110.744L129.836 110.463L128.824 112.188ZM130.309 112.472L139.339 107.256L138.339 105.524L129.309 110.74L130.309 112.472ZM139.434 107.194C139.732 106.973 140.084 106.838 140.452 106.803L140.263 104.812C139.532 104.882 138.834 105.149 138.244 105.586L139.434 107.194ZM140.452 106.803C140.821 106.768 141.193 106.834 141.527 106.994L142.391 105.191C141.729 104.873 140.994 104.743 140.263 104.812L140.452 106.803ZM142.465 105.23L141.986 104.949L140.975 106.675L141.453 106.955L142.465 105.23Z" fill="white" mask="url(#path-83-inside-19_733_840)"/>
<mask id="path-85-inside-20_733_840" fill="white">
<path d="M125.432 119.25L124.953 118.969C125.034 117.451 125.473 115.973 126.233 114.656C126.993 113.34 128.054 112.221 129.328 111.392L129.807 111.672C128.532 112.502 127.472 113.62 126.712 114.937C125.952 116.254 125.513 117.731 125.432 119.25Z"/>
</mask>
<path d="M125.432 119.25L124.953 118.969C125.034 117.451 125.473 115.973 126.233 114.656C126.993 113.34 128.054 112.221 129.328 111.392L129.807 111.672C128.532 112.502 127.472 113.62 126.712 114.937C125.952 116.254 125.513 117.731 125.432 119.25Z" fill="#BD5B6A"/>
<path d="M124.953 118.969L123.955 118.916L123.922 119.524L124.447 119.832L124.953 118.969ZM129.328 111.392L129.834 110.529L129.3 110.216L128.782 110.554L129.328 111.392ZM129.807 111.672L130.352 112.51L131.708 111.628L130.312 110.81L129.807 111.672ZM125.938 118.387L125.459 118.106L124.447 119.832L124.926 120.112L125.938 118.387ZM125.952 119.022C126.025 117.661 126.418 116.337 127.099 115.156L125.367 114.156C124.528 115.609 124.044 117.24 123.955 118.916L125.952 119.022ZM127.099 115.156C127.781 113.976 128.731 112.973 129.873 112.23L128.782 110.554C127.376 111.469 126.206 112.703 125.367 114.156L127.099 115.156ZM128.822 112.254L129.301 112.535L130.312 110.81L129.834 110.529L128.822 112.254ZM129.261 110.834C127.855 111.75 126.685 112.984 125.846 114.437L127.578 115.437C128.259 114.257 129.21 113.254 130.352 112.51L129.261 110.834ZM125.846 114.437C125.007 115.89 124.523 117.521 124.433 119.196L126.43 119.303C126.503 117.942 126.896 116.617 127.578 115.437L125.846 114.437Z" fill="white" mask="url(#path-85-inside-20_733_840)"/>
<path d="M139.09 110.19L139.102 110.183L139.113 110.176C139.456 109.952 139.741 109.649 139.944 109.293C140.147 108.937 140.262 108.538 140.28 108.128L140.28 108.117V108.106C140.28 107.698 140.128 107.283 139.748 107.066C139.489 106.918 139.203 106.906 138.934 106.979L139.09 106.888C140.212 106.24 141.111 106.241 141.699 106.578C142.287 106.915 142.739 107.687 142.747 108.966V109.947L125.951 119.654V119.263C126.03 117.828 126.446 116.432 127.164 115.187C127.614 114.407 128.176 113.701 128.828 113.089C128.802 113.128 128.778 113.168 128.755 113.209C128.552 113.565 128.436 113.965 128.418 114.374L128.418 114.385V114.396C128.418 114.805 128.57 115.22 128.951 115.437C129.328 115.653 129.764 115.577 130.121 115.377L130.121 115.377L130.126 115.374L139.09 110.19Z" fill="#BD5B6A" stroke="white"/>
<path d="M123.38 120.531L67.1289 88.058V87.8259L123.38 120.298V120.531Z" fill="#BD5B6A" stroke="white"/>
<path d="M124.568 120.187V120.416L124.379 120.526V120.297L124.568 120.187Z" fill="#BD5B6A" stroke="white"/>
<path d="M123.879 119.432L67.6251 86.9577L67.8188 86.8447L124.073 119.319L123.879 119.432Z" fill="#BD5B6A" stroke="white"/>
<mask id="path-91-inside-21_733_840" fill="white">
<path d="M143.244 110.203V111.21L125.448 121.495V120.488L125.102 120.686V122.09L143.591 111.409V110.005L143.244 110.203Z"/>
</mask>
<path d="M143.244 110.203V111.21L125.448 121.495V120.488L125.102 120.686V122.09L143.591 111.409V110.005L143.244 110.203Z" fill="#BD5B6A"/>
<path d="M143.244 110.203L142.748 109.335L142.244 109.623V110.203H143.244ZM143.244 111.21L143.745 112.076L144.244 111.788V111.21H143.244ZM125.448 121.495H124.448V123.228L125.949 122.361L125.448 121.495ZM125.448 120.488H126.448V118.765L124.952 119.62L125.448 120.488ZM125.102 120.686L124.605 119.818L124.102 120.106V120.686H125.102ZM125.102 122.09H124.102V123.822L125.602 122.955L125.102 122.09ZM143.591 111.409L144.091 112.274L144.591 111.986V111.409H143.591ZM143.591 110.005H144.591V108.282L143.095 109.137L143.591 110.005ZM142.244 110.203V111.21H144.244V110.203H142.244ZM142.744 110.345L124.948 120.629L125.949 122.361L143.745 112.076L142.744 110.345ZM126.448 121.495V120.488H124.448V121.495H126.448ZM124.952 119.62L124.605 119.818L125.598 121.555L125.944 121.356L124.952 119.62ZM124.102 120.686V122.09H126.102V120.686H124.102ZM125.602 122.955L144.091 112.274L143.091 110.543L124.601 121.224L125.602 122.955ZM144.591 111.409V110.005H142.591V111.409H144.591ZM143.095 109.137L142.748 109.335L143.74 111.072L144.087 110.874L143.095 109.137Z" fill="white" mask="url(#path-91-inside-21_733_840)"/>
</svg>
