<svg width="539" height="498" viewBox="0 0 539 498" fill="none" xmlns="http://www.w3.org/2000/svg">
<g opacity="0.3" filter="url(#filter0_d_827_811)">
<path d="M392.625 205.403C423.302 203.654 453.292 195.705 480.643 182.076C494.64 175.091 506.772 165.07 516.072 152.809C525.373 140.548 531.585 126.386 534.215 111.45C535.146 93.2349 530.699 75.172 521.389 59.3515C512.08 43.5311 498.289 30.5998 481.611 22.054C447.872 5.62539 409.937 -1.27376 372.17 2.15025C202.134 9.84071 37.8542 123.988 8.666 290.597C6.06625 304.182 4.69161 317.95 4.55756 331.748C3.91328 356.985 11.5755 381.72 26.4487 402.418C41.3219 423.115 62.6447 438.715 87.3689 446.988C108.1 453.5 130.265 454.725 151.706 450.543C173.147 446.362 193.134 436.917 209.721 423.127C265.528 376.235 253.468 302.2 244.623 240.326" stroke="url(#paint0_linear_827_811)" stroke-miterlimit="10" stroke-linecap="round" shape-rendering="crispEdges"/>
</g>
<defs>
<filter id="filter0_d_827_811" x="0.0195312" y="0.794922" width="538.816" height="496.681" filterUnits="userSpaceOnUse" color-interpolation-filters="sRGB">
<feFlood flood-opacity="0" result="BackgroundImageFix"/>
<feColorMatrix in="SourceAlpha" type="matrix" values="0 0 0 0 0 0 0 0 0 0 0 0 0 0 0 0 0 0 127 0" result="hardAlpha"/>
<feOffset dy="40"/>
<feGaussianBlur stdDeviation="2"/>
<feComposite in2="hardAlpha" operator="out"/>
<feColorMatrix type="matrix" values="0 0 0 0 0.529329 0 0 0 0 0.00367588 0 0 0 0 0.00367588 0 0 0 0.25 0"/>
<feBlend mode="normal" in2="BackgroundImageFix" result="effect1_dropShadow_827_811"/>
<feBlend mode="normal" in="SourceGraphic" in2="effect1_dropShadow_827_811" result="shape"/>
</filter>
<linearGradient id="paint0_linear_827_811" x1="384.934" y1="162.773" x2="471.484" y2="280.063" gradientUnits="userSpaceOnUse">
<stop stop-color="white"/>
<stop offset="1" stop-color="white" stop-opacity="0"/>
</linearGradient>
</defs>
</svg>
