<svg width="71" height="94" viewBox="0 0 71 94" fill="none" xmlns="http://www.w3.org/2000/svg">
<g opacity="0.3" filter="url(#filter0_d_437_179)">
<path d="M34.0527 22.3301C34.1692 17.9562 33.4002 13.6057 31.7957 9.56241C30.9733 7.49299 29.6989 5.65222 28.0739 4.18656C26.449 2.7209 24.5183 1.6708 22.4356 1.11983C19.8685 0.771099 17.2593 1.18722 14.9097 2.32003C12.5601 3.45284 10.5662 5.25604 9.15878 7.52097C6.43319 12.1133 5.00655 17.4144 5.04298 22.8145C4.1136 47.035 18.3198 71.7054 41.5541 77.8297C43.446 78.3603 45.3783 78.7192 47.3295 78.9024C50.8938 79.2941 54.4855 78.5011 57.5914 76.6367C60.6973 74.7724 63.1583 71.9322 64.6225 68.5221C65.7902 65.6577 66.2266 62.527 65.8892 59.4346C65.5519 56.3423 64.4523 53.3936 62.6974 50.8757C56.7228 42.3985 46.1014 43.229 37.2392 43.748" stroke="#E06477" stroke-miterlimit="10" stroke-linecap="round"/>
</g>
<defs>
<filter id="filter0_d_437_179" x="0.5" y="0.5" width="70" height="93" filterUnits="userSpaceOnUse" color-interpolation-filters="sRGB">
<feFlood flood-opacity="0" result="BackgroundImageFix"/>
<feColorMatrix in="SourceAlpha" type="matrix" values="0 0 0 0 0 0 0 0 0 0 0 0 0 0 0 0 0 0 127 0" result="hardAlpha"/>
<feOffset dy="10"/>
<feGaussianBlur stdDeviation="2"/>
<feComposite in2="hardAlpha" operator="out"/>
<feColorMatrix type="matrix" values="0 0 0 0 0.529329 0 0 0 0 0.00367588 0 0 0 0 0.00367588 0 0 0 0.25 0"/>
<feBlend mode="normal" in2="BackgroundImageFix" result="effect1_dropShadow_437_179"/>
<feBlend mode="normal" in="SourceGraphic" in2="effect1_dropShadow_437_179" result="shape"/>
</filter>
</defs>
</svg>
