<svg width="235" height="42" viewBox="0 0 235 42" fill="none" xmlns="http://www.w3.org/2000/svg">
<path d="M207.503 0.579102C213.992 0.579102 218.496 4.48473 218.496 10.4335C218.496 14.7037 216.019 18.0916 211.016 20.6065L206.153 23.0571C204.351 24.0128 202.202 25.5567 202.202 27.508H218.511V32.7155H196.284V28.3259C196.284 23.195 200.564 19.8346 203.579 18.3367L208.627 15.7911C211.196 14.5199 212.503 12.7034 212.503 10.3876C212.503 7.43768 210.563 5.52929 207.5 5.52929C204.12 5.52929 202.184 8.11772 202.272 11.9774H196.284C196.148 4.93808 200.6 0.579102 207.503 0.579102Z" fill="white"/>
<path d="M235 5.07882V0.918945H229.812V2.73544C229.812 3.19791 229.722 3.65592 229.547 4.0833C229.371 4.51068 229.114 4.89904 228.79 5.2262C228.466 5.55335 228.081 5.81288 227.657 5.98995C227.233 6.16702 226.778 6.25816 226.32 6.25816H222.824V11.2145H228.903C228.949 11.2145 228.991 11.2145 229.037 11.2145V32.7398H234.991V5.07882H235Z" fill="white"/>
<path d="M165.081 0.579102C166.849 0.579102 168.545 1.28685 169.795 2.54666C171.045 3.80647 171.747 5.51514 171.747 7.29677V14.0144H165.081C163.314 14.0144 161.618 13.3067 160.368 12.0469C159.118 10.7871 158.416 9.07841 158.416 7.29677C158.416 5.51514 159.118 3.80647 160.368 2.54666C161.618 1.28685 163.314 0.579102 165.081 0.579102Z" fill="white"/>
<path d="M158.42 26.3772C158.42 24.5961 159.122 22.8879 160.371 21.6282C161.62 20.3684 163.315 19.6603 165.082 19.6595H171.739V26.3772C171.738 28.1567 171.036 29.8632 169.788 31.1221C168.541 32.3809 166.848 33.0894 165.082 33.0918C163.316 33.091 161.621 32.3833 160.372 31.1242C159.123 29.8652 158.421 28.1578 158.42 26.3772Z" fill="white"/>
<path d="M184.014 33.0918C182.247 33.0918 180.552 32.3845 179.302 31.1253C178.052 29.8662 177.35 28.1583 177.349 26.3772V19.6687H184.014C185.78 19.6687 187.474 20.3752 188.724 21.633C189.974 22.8908 190.677 24.5971 190.68 26.3772C190.679 28.1583 189.976 29.8662 188.726 31.1253C187.476 32.3845 185.782 33.0918 184.014 33.0918Z" fill="white"/>
<path d="M190.68 7.29677C190.68 9.07841 189.977 10.7871 188.727 12.0469C187.477 13.3067 185.782 14.0144 184.014 14.0144H177.349V7.29677C177.349 5.51513 178.051 3.80647 179.301 2.54666C180.551 1.28686 182.247 0.579102 184.014 0.579102C185.782 0.579102 187.477 1.28686 188.727 2.54666C189.977 3.80647 190.68 5.51513 190.68 7.29677Z" fill="white"/>
<path d="M0 9.81752H5.50131V12.6816C6.85688 10.7212 9.33702 9.45605 12.3582 9.45605C18.899 9.45605 22.911 14.2745 22.911 21.274C22.911 28.2735 18.6285 33.0828 11.9509 33.0828C9.21545 33.0828 6.7657 31.9923 5.50131 30.2187V41.9907H0V9.81752ZM17.4097 21.274C17.4097 17.0467 14.9781 14.2745 11.3309 14.2745C7.58633 14.2745 5.15178 17.0314 5.15178 21.274C5.15178 25.5166 7.58329 28.2735 11.3309 28.2735C14.9751 28.2735 17.4097 25.5013 17.4097 21.274Z" fill="white"/>
<path d="M26.6562 21.274C26.6562 14.2745 30.6257 9.45605 37.3914 9.45605C40.2332 9.45605 42.7134 10.6354 44.0203 12.409V9.81752H49.5672V32.7274H44.0203V30.0471C42.9383 31.8575 40.3214 33.0828 37.4826 33.0828C30.6257 33.0828 26.6562 28.2735 26.6562 21.274ZM44.4276 21.274C44.4276 17.0467 41.9961 14.2745 38.2485 14.2745C34.6012 14.2745 32.1697 17.0314 32.1697 21.274C32.1697 25.5166 34.6012 28.2735 38.2485 28.2735C41.993 28.2735 44.4276 25.5013 44.4276 21.274Z" fill="white"/>
<path d="M64.0918 2.91016V9.81775H70.4077V14.5014H64.0918V24.506C64.0918 26.8248 65.3076 28.0072 67.3835 28.0072H70.4229V32.7338H66.7756C61.8123 32.7338 58.5693 29.8268 58.5693 24.7357V14.5014H54.0801V9.81775H58.545V2.91016H64.0918Z" fill="white"/>
<path d="M80.5436 0V6.22755H74.6016V0H80.5436ZM74.8265 9.81767H80.3734V32.7276H74.8265V9.81767Z" fill="white"/>
<path d="M107.291 25.0912C106.443 29.9556 102.203 33.0832 96.6107 33.0832C89.1703 33.0832 85.0215 27.1742 85.0215 21.1733C85.0215 15.1265 88.7174 9.44727 96.1609 9.44727C103.784 9.44727 107.209 15.0377 107.209 20.4902C107.209 21.2652 107.167 21.9453 107.121 22.4017H90.3435C90.7477 26.0776 93.0941 28.4454 96.6107 28.4454C99.4525 28.4454 101.304 27.2661 101.887 25.0759L107.291 25.0912ZM90.4772 18.7289H101.662C101.437 15.8188 99.4525 13.6378 96.1609 13.6378C93.0485 13.6378 91.0638 15.2735 90.4772 18.7289Z" fill="white"/>
<path d="M111.947 9.81752H117.494V13.3647C118.759 10.8651 121.327 9.45605 124.576 9.45605C129.716 9.45605 133.056 13.1809 133.056 18.5447V32.7274H127.506V19.7271C127.506 16.5903 125.612 14.4093 122.771 14.4093C119.658 14.4093 117.494 16.8599 117.494 20.2294V32.7305H111.947V9.81752Z" fill="white"/>
<path d="M146.499 2.91016V9.81775H152.812V14.5014H146.499V24.506C146.499 26.8248 147.715 28.0072 149.79 28.0072H152.812V32.7338H149.164C144.204 32.7338 140.958 29.8268 140.958 24.7357V14.5014H136.469V9.81775H140.937V2.91016H146.499Z" fill="white"/>
</svg>
