<svg width="586" height="781" viewBox="0 0 586 781" fill="none" xmlns="http://www.w3.org/2000/svg">
<g opacity="0.3" filter="url(#filter0_d_326_1067)">
<path d="M279.334 201.995C280.434 160.779 273.172 119.785 258.022 81.6843C250.256 62.184 238.222 44.8382 222.878 31.0272C207.535 17.2161 189.304 7.32102 169.637 2.12915C145.398 -1.15695 120.76 2.76415 98.5733 13.4387C76.3869 24.1133 57.5595 41.105 44.2698 62.4476C18.5331 105.721 5.06187 155.674 5.40583 206.56C-3.3699 434.792 130.773 667.262 350.167 724.972C368.031 729.972 386.277 733.354 404.702 735.08C438.357 738.771 472.273 731.298 501.601 713.731C530.929 696.163 554.167 669.4 567.993 637.266C579.019 610.275 583.14 580.774 579.954 551.634C576.769 522.495 566.385 494.709 549.815 470.983C493.399 391.102 393.105 398.927 309.422 403.817" stroke="url(#paint0_linear_326_1067)" stroke-miterlimit="10" stroke-linecap="round" shape-rendering="crispEdges"/>
</g>
<defs>
<filter id="filter0_d_326_1067" x="0.5" y="0.5" width="585" height="780" filterUnits="userSpaceOnUse" color-interpolation-filters="sRGB">
<feFlood flood-opacity="0" result="BackgroundImageFix"/>
<feColorMatrix in="SourceAlpha" type="matrix" values="0 0 0 0 0 0 0 0 0 0 0 0 0 0 0 0 0 0 127 0" result="hardAlpha"/>
<feOffset dy="40"/>
<feGaussianBlur stdDeviation="2"/>
<feComposite in2="hardAlpha" operator="out"/>
<feColorMatrix type="matrix" values="0 0 0 0 0.529329 0 0 0 0 0.00367588 0 0 0 0 0.00367588 0 0 0 0.25 0"/>
<feBlend mode="normal" in2="BackgroundImageFix" result="effect1_dropShadow_326_1067"/>
<feBlend mode="normal" in="SourceGraphic" in2="effect1_dropShadow_326_1067" result="shape"/>
</filter>
<linearGradient id="paint0_linear_326_1067" x1="221.5" y1="207.5" x2="388" y2="105" gradientUnits="userSpaceOnUse">
<stop stop-color="white"/>
<stop offset="1" stop-color="white" stop-opacity="0"/>
</linearGradient>
</defs>
</svg>
