<svg width="63" height="74" viewBox="0 0 63 74" fill="none" xmlns="http://www.w3.org/2000/svg">
<path d="M43.9199 73.0488C43.3926 73.0488 42.8653 73.0488 42.3263 72.9808C40.3475 72.8178 38.3872 72.4882 36.4677 71.9956C30.8665 70.5895 25.6068 68.1306 20.9891 64.7595C20.3095 66.5261 19.5791 68.2813 18.7979 70.0252C18.635 70.3978 18.328 70.6941 17.9423 70.8511C17.5567 71.0081 17.1228 71.0134 16.7332 70.8657C16.3436 70.718 16.029 70.4292 15.8566 70.0606C15.6841 69.6921 15.6674 69.2731 15.81 68.8928C16.638 66.8545 17.466 64.7973 18.2941 62.7212C12.2466 57.5288 7.47166 51.0999 4.31597 43.9015C1.16027 36.703 -0.296932 28.9157 0.0501763 21.105C0.354827 14.99 1.74919 10.1886 4.38559 6.58753C7.84221 1.79743 13.6306 -0.761818 18.7979 0.200732C21.047 0.717434 23.14 1.735 24.91 3.17224C26.6799 4.60948 28.0777 6.42662 28.992 8.47866C30.6811 12.351 31.4806 16.5314 31.3355 20.7314C31.3447 26.7775 30.6768 32.8068 29.3435 38.714L33.2454 38.2837C41.7873 37.8308 52.4267 37.2759 58.59 45.3387C60.4503 47.8186 61.6165 50.7207 61.9757 53.764C62.3349 56.8073 61.875 59.8887 60.6405 62.7099C59.2182 65.8341 56.8722 68.4823 53.8972 70.3219C50.9223 72.1614 47.4511 73.1101 43.9199 73.0488ZM22.1491 61.7247C26.6039 65.1278 31.7439 67.5961 37.241 68.9721C38.9864 69.428 40.7707 69.7312 42.5724 69.878C45.6888 70.1999 48.8306 69.5604 51.5479 68.051C54.2652 66.5417 56.4186 64.24 57.6995 61.4755C58.7171 59.1537 59.0975 56.6173 58.804 54.1118C58.5104 51.6063 57.5529 49.2164 56.0239 47.1732C50.8917 40.4693 41.6233 40.9562 33.4329 41.3865H32.7767L28.6053 41.8961C26.8666 48.6285 24.7106 55.2537 22.1491 61.736V61.7247ZM16.513 3.08838C12.5994 3.08838 9.01394 5.59101 7.02199 8.3541C4.73711 11.5135 3.56538 15.7148 3.29588 21.2296C2.98214 28.3806 4.27207 35.5126 7.07723 42.1368C9.8824 48.7609 14.1365 54.7205 19.5478 59.607C21.7473 53.9519 23.6326 48.1873 25.1956 42.3378L18.9268 43.0965C18.5042 43.1475 18.0779 43.0342 17.7416 42.7815C17.4054 42.5288 17.1869 42.1574 17.1341 41.7489C17.0812 41.3405 17.1985 40.9285 17.4599 40.6035C17.7214 40.2786 18.1058 40.0674 18.5284 40.0163L25.9806 39.1217C27.4234 33.0983 28.1585 26.9367 28.1718 20.754C28.1718 16.0092 27.4922 12.6233 26.1095 9.79226C25.4036 8.18718 24.3236 6.76139 22.9537 5.62604C21.5838 4.4907 19.9611 3.6765 18.212 3.24692C17.653 3.13653 17.0836 3.08339 16.513 3.08838V3.08838Z" fill="white"/>
</svg>
