<svg width="505" height="535" viewBox="0 0 505 535" fill="none" xmlns="http://www.w3.org/2000/svg">
<g opacity="0.3" filter="url(#filter0_d_827_816)">
<path d="M373.313 205.145C403.419 199.006 431.957 186.83 457.064 169.412C469.913 160.488 480.479 148.827 487.92 135.357C495.362 121.887 499.475 106.98 499.932 91.8203C498.235 73.6605 491.238 56.4241 479.752 42.1057C468.266 27.7872 452.759 16.972 435.027 10.9116C399.277 -0.498002 360.744 -1.87406 323.861 6.94172C156.695 38.9874 10.5245 175.558 5.58181 344.632C4.96125 358.45 5.57944 372.272 7.42955 385.946C10.4187 411.014 21.5559 434.391 39.2491 452.736C56.9422 471.082 80.2855 483.456 105.942 488.089C127.394 491.555 149.505 489.582 170.122 482.362C190.74 475.143 209.162 462.924 223.596 446.893C272.084 392.468 249.511 320.935 231.866 260.974" stroke="url(#paint0_linear_827_816)" stroke-miterlimit="10" stroke-linecap="round" shape-rendering="crispEdges"/>
</g>
<defs>
<filter id="filter0_d_827_816" x="0.847656" y="0.709473" width="503.584" height="533.542" filterUnits="userSpaceOnUse" color-interpolation-filters="sRGB">
<feFlood flood-opacity="0" result="BackgroundImageFix"/>
<feColorMatrix in="SourceAlpha" type="matrix" values="0 0 0 0 0 0 0 0 0 0 0 0 0 0 0 0 0 0 127 0" result="hardAlpha"/>
<feOffset dy="40"/>
<feGaussianBlur stdDeviation="2"/>
<feComposite in2="hardAlpha" operator="out"/>
<feColorMatrix type="matrix" values="0 0 0 0 0.529329 0 0 0 0 0.00367588 0 0 0 0 0.00367588 0 0 0 0.25 0"/>
<feBlend mode="normal" in2="BackgroundImageFix" result="effect1_dropShadow_827_816"/>
<feBlend mode="normal" in="SourceGraphic" in2="effect1_dropShadow_827_816" result="shape"/>
</filter>
<linearGradient id="paint0_linear_827_816" x1="359.576" y1="164.063" x2="462.082" y2="267.698" gradientUnits="userSpaceOnUse">
<stop stop-color="white"/>
<stop offset="1" stop-color="white" stop-opacity="0"/>
</linearGradient>
</defs>
</svg>
