<svg width="275" height="110" viewBox="0 0 275 110" fill="none" xmlns="http://www.w3.org/2000/svg">
<path d="M88.3984 91.8137H90.9177V100.66L97.7723 91.8137H100.819L95.4874 98.5863L101.346 108.991H98.3816L93.847 100.59L90.9177 103.765V108.968H88.3984V91.8137Z" fill="white"/>
<path d="M103.385 91.8137H105.728V105.875C105.728 106.425 106.021 106.706 106.619 106.706H107.439V109.05H106.384C105.639 109.043 104.918 108.787 104.334 108.323C104.007 108.034 103.755 107.67 103.6 107.262C103.444 106.853 103.391 106.414 103.443 105.98L103.385 91.8137Z" fill="white"/>
<path d="M109.678 91.8137H112.021V94.2626H109.678V91.8137ZM109.678 96.7701H112.021V108.968H109.678V96.7701Z" fill="white"/>
<path d="M115.384 96.77H117.727V98.059C118.093 97.5941 118.562 97.2208 119.097 96.9686C119.631 96.7164 120.218 96.5923 120.809 96.606C121.81 96.6159 122.772 97.0005 123.504 97.684C123.922 98.0978 124.25 98.5934 124.468 99.1398C124.685 99.6861 124.788 100.272 124.769 100.859V108.968H122.426V101.703C122.451 101.349 122.405 100.993 122.29 100.657C122.175 100.321 121.994 100.011 121.758 99.7463C121.543 99.5194 121.283 99.3405 120.994 99.2213C120.705 99.1022 120.395 99.0455 120.082 99.0549C119.768 99.0453 119.456 99.1019 119.165 99.221C118.874 99.3401 118.612 99.519 118.395 99.7463C118.154 100.009 117.97 100.318 117.853 100.654C117.736 100.991 117.689 101.348 117.716 101.703V108.968H115.372L115.384 96.77Z" fill="white"/>
<path d="M128.413 91.8137H130.757V94.2626H128.413V91.8137ZM128.413 96.7701H130.757V108.968H128.413V96.7701Z" fill="white"/>
<path d="M134.132 91.8137H136.475V102.5L141.033 96.7701H143.881L139.803 101.539L144.49 108.991H141.502L138.35 103.285L136.51 105.453V108.968H134.167L134.132 91.8137Z" fill="white"/>
<path d="M152.856 104.832C154.163 105.946 155.826 106.553 157.543 106.543C159.699 106.543 160.801 105.711 160.824 104.199C160.824 102.922 160.121 102.149 158.656 101.856L156.453 101.528C155.21 101.386 154.056 100.809 153.196 99.8989C152.421 99.0203 152.003 97.8832 152.024 96.7117C151.995 96.0379 152.11 95.3655 152.36 94.7393C152.611 94.113 152.991 93.5472 153.477 93.0794C154.568 92.1125 155.994 91.6118 157.449 91.685C159.416 91.6731 161.334 92.2934 162.921 93.4543L161.515 95.5869C160.299 94.7525 158.865 94.2923 157.391 94.2628C156.692 94.2356 156.005 94.4509 155.446 94.8721C155.169 95.0945 154.95 95.3794 154.805 95.7033C154.661 96.0273 154.595 96.3809 154.614 96.7352C154.617 97.2373 154.82 97.7176 155.176 98.071C155.669 98.5377 156.296 98.8371 156.969 98.9263L158.844 99.1958C160.199 99.286 161.463 99.9096 162.359 100.93C163.092 101.838 163.482 102.974 163.46 104.141C163.382 107.421 161.429 109.085 157.602 109.132C155.265 109.182 152.996 108.345 151.251 106.789L152.856 104.832Z" fill="white"/>
<path d="M166.436 93.0442H168.78V96.7703H170.514V98.6451H168.78V105.781C168.78 106.402 169.038 106.695 169.623 106.683H170.514V109.027H169.272C168.894 109.04 168.517 108.977 168.164 108.84C167.812 108.703 167.491 108.495 167.221 108.23C166.936 107.94 166.715 107.592 166.574 107.21C166.433 106.829 166.374 106.421 166.401 106.015V98.6451H165.229V96.7703H166.401L166.436 93.0442Z" fill="white"/>
<path d="M173.057 106.542H175.4V108.968H173.057V106.542Z" fill="white"/>
<path d="M184.762 91.8137H195.389V94.2626H187.281V99.1839H194.206V101.527H187.281V106.578H195.389V108.968H184.762V91.8137Z" fill="white"/>
<path d="M197.968 91.8137H200.311V105.875C200.311 106.425 200.604 106.706 201.202 106.706H202.022V109.05H200.967C200.197 109.081 199.44 108.845 198.823 108.382C198.496 108.093 198.244 107.728 198.089 107.32C197.934 106.912 197.88 106.472 197.933 106.039L197.968 91.8137Z" fill="white"/>
<path d="M204.261 91.8137H206.604V94.2626H204.261V91.8137ZM204.261 96.7701H206.604V108.968H204.261V96.7701Z" fill="white"/>
<path d="M210.318 105.254C210.792 105.771 211.373 106.179 212.021 106.45C212.668 106.722 213.366 106.849 214.068 106.824C214.658 106.854 215.244 106.711 215.755 106.414C215.961 106.298 216.132 106.127 216.248 105.92C216.364 105.713 216.42 105.479 216.411 105.242C216.427 105.068 216.399 104.893 216.33 104.734C216.26 104.574 216.151 104.434 216.013 104.328C215.696 104.133 215.33 104.031 214.958 104.035L212.849 103.848C211.941 103.789 211.081 103.421 210.412 102.805C210.086 102.49 209.831 102.111 209.661 101.691C209.491 101.271 209.412 100.82 209.428 100.368C209.401 99.8281 209.504 99.29 209.728 98.7986C209.952 98.3072 210.291 97.8769 210.717 97.5437C211.624 96.8867 212.725 96.5526 213.845 96.5946C214.34 96.5939 214.833 96.6331 215.321 96.7118C215.722 96.7836 216.114 96.8935 216.493 97.0398C217.211 97.3164 217.876 97.7126 218.462 98.2116L216.985 99.9926C216.535 99.6558 216.048 99.3727 215.532 99.149C214.979 98.9388 214.39 98.8354 213.798 98.8443C213.241 98.7931 212.684 98.9427 212.228 99.2661C212.077 99.3962 211.956 99.5583 211.875 99.7407C211.794 99.9231 211.755 100.121 211.759 100.321C211.756 100.461 211.786 100.6 211.847 100.727C211.908 100.853 211.999 100.963 212.111 101.047C212.447 101.31 212.856 101.462 213.283 101.481L215.251 101.633C215.753 101.632 216.25 101.736 216.71 101.938C217.17 102.14 217.583 102.435 217.923 102.805C218.455 103.53 218.723 104.414 218.684 105.312C218.701 105.851 218.582 106.386 218.338 106.867C218.095 107.348 217.734 107.76 217.29 108.066C216.252 108.761 215.023 109.113 213.775 109.074C211.844 109.062 209.994 108.297 208.619 106.941L210.318 105.254Z" fill="white"/>
<path d="M227.776 107.914C227.55 108.329 227.185 108.653 226.745 108.828C226.143 109.054 225.502 109.157 224.859 109.132C223.737 109.192 222.637 108.804 221.801 108.054C221.423 107.724 221.122 107.314 220.919 106.854C220.717 106.395 220.618 105.896 220.629 105.394C220.614 104.924 220.693 104.456 220.862 104.017C221.031 103.579 221.286 103.178 221.613 102.84C221.993 102.476 222.445 102.195 222.939 102.014C223.433 101.832 223.958 101.755 224.484 101.785H227.788V100.496C227.788 99.4185 226.991 98.8912 225.351 98.9147C224.874 98.9002 224.399 98.9676 223.945 99.1138C223.588 99.2627 223.291 99.5267 223.101 99.8638L221.226 98.4225C221.69 97.8152 222.299 97.334 222.997 97.0228C223.695 96.7117 224.46 96.5806 225.222 96.6415C226.475 96.5681 227.72 96.8744 228.796 97.5203C229.265 97.8922 229.635 98.3749 229.873 98.925C230.11 99.4751 230.207 100.075 230.155 100.672V108.968H227.812L227.776 107.914ZM227.776 103.813H224.917C223.523 103.813 222.843 104.328 222.855 105.277C222.854 105.485 222.902 105.69 222.996 105.875C223.09 106.061 223.226 106.221 223.394 106.343C223.879 106.712 224.486 106.884 225.093 106.824C225.82 106.897 226.553 106.771 227.214 106.461C227.589 106.203 227.776 105.617 227.776 104.691V103.813Z" fill="white"/>
<path d="M233.612 91.8137H235.956V98.0591C236.376 97.6369 236.858 97.2813 237.385 97.0045C237.886 96.7373 238.446 96.6003 239.014 96.6061C239.638 96.5813 240.258 96.7157 240.815 96.9965C241.373 97.2773 241.85 97.6954 242.201 98.2114C242.55 98.6542 242.779 99.1784 242.869 99.7346C243.007 100.771 243.062 101.818 243.033 102.863C243.062 103.905 243.007 104.947 242.869 105.98C242.788 106.551 242.553 107.09 242.189 107.538C241.868 108.029 241.429 108.432 240.912 108.71C240.327 109.018 239.675 109.175 239.014 109.167C238.432 109.166 237.857 109.038 237.33 108.793C236.802 108.548 236.333 108.192 235.956 107.749V108.968H233.612V91.8137ZM238.299 99.055C237.85 99.0285 237.405 99.1522 237.034 99.4066C236.71 99.6261 236.457 99.9357 236.307 100.297C236.166 100.675 236.071 101.068 236.026 101.469C235.933 102.361 235.933 103.26 236.026 104.152C236.065 104.577 236.159 104.994 236.307 105.394C236.466 105.785 236.744 106.117 237.101 106.342C237.459 106.567 237.878 106.674 238.299 106.648C238.767 106.675 239.233 106.56 239.635 106.32C239.953 106.107 240.195 105.8 240.326 105.441C240.488 105.039 240.594 104.618 240.643 104.187C240.643 103.754 240.643 103.297 240.643 102.828C240.643 102.359 240.643 101.867 240.643 101.399C240.586 100.996 240.48 100.603 240.326 100.227C240.2 99.8681 239.957 99.5626 239.635 99.3597C239.236 99.1451 238.787 99.04 238.334 99.055H238.299Z" fill="white"/>
<path d="M247.931 103.812C247.902 104.222 247.961 104.633 248.102 105.019C248.243 105.405 248.464 105.756 248.751 106.05C249.014 106.31 249.328 106.512 249.672 106.645C250.017 106.778 250.385 106.839 250.755 106.824C251.244 106.819 251.727 106.713 252.173 106.511C252.619 106.309 253.018 106.017 253.344 105.652L255.078 107.163C254.554 107.785 253.898 108.284 253.159 108.624C252.42 108.965 251.615 109.138 250.801 109.132C250.181 109.134 249.565 109.039 248.974 108.851C248.364 108.613 247.792 108.29 247.275 107.89C246.74 107.354 246.339 106.7 246.103 105.98C245.72 105.003 245.545 103.958 245.587 102.91C245.554 101.888 245.705 100.868 246.032 99.8987C246.274 99.175 246.674 98.5145 247.204 97.9653C247.645 97.5049 248.187 97.1521 248.786 96.9342C249.333 96.7261 249.912 96.6151 250.497 96.6061C251.779 96.5952 253.013 97.0923 253.93 97.9888C254.421 98.4872 254.803 99.0818 255.053 99.7351C255.303 100.388 255.416 101.086 255.383 101.785V103.812H247.931ZM252.934 101.785C252.965 100.996 252.702 100.224 252.196 99.6175C251.72 99.1701 251.091 98.9211 250.438 98.9211C249.785 98.9211 249.157 99.1701 248.681 99.6175C248.189 100.232 247.928 100.999 247.942 101.785H252.934Z" fill="white"/>
<path d="M258.348 93.0442H260.691V96.7703H262.519V98.6451H260.785V105.781C260.785 106.402 261.043 106.695 261.628 106.683H262.519V109.027H261.277C260.899 109.04 260.522 108.977 260.169 108.84C259.817 108.703 259.496 108.495 259.226 108.23C258.941 107.94 258.72 107.592 258.579 107.21C258.438 106.829 258.379 106.421 258.406 106.015V98.6451H257.234V96.7703H258.406L258.348 93.0442Z" fill="white"/>
<path d="M264.862 91.8137H267.206V98.0591C267.571 97.5942 268.04 97.2209 268.575 96.9687C269.11 96.7165 269.696 96.5924 270.287 96.6061C271.289 96.616 272.25 97.0006 272.982 97.6841C273.404 98.0949 273.735 98.59 273.953 99.1371C274.171 99.6842 274.272 100.271 274.248 100.86V108.968H271.904V101.703C271.929 101.349 271.883 100.993 271.768 100.657C271.654 100.321 271.473 100.011 271.237 99.7464C271.022 99.5189 270.762 99.3396 270.473 99.2204C270.184 99.1012 269.873 99.0448 269.561 99.055C269.247 99.0468 268.935 99.1041 268.645 99.2231C268.354 99.3421 268.092 99.5203 267.874 99.7464C267.637 100.011 267.457 100.321 267.342 100.657C267.227 100.993 267.181 101.349 267.206 101.703V108.968H264.862V91.8137Z" fill="white"/>
<path d="M98.78 37.9375C99.7923 37.5908 100.689 36.9702 101.37 36.1448C102.042 35.2571 102.385 34.1639 102.342 33.0514C102.404 31.9775 102.051 30.9208 101.358 30.0986C100.706 29.3786 99.8457 28.8791 98.8972 28.6691V28.5637C99.6844 28.2626 100.337 27.6888 100.737 26.9467C101.157 26.2359 101.387 25.4288 101.405 24.6032C101.457 23.6086 101.135 22.6304 100.502 21.8613C99.8528 21.1582 99.0084 20.6646 98.077 20.4435C96.9573 20.115 95.7987 19.9377 94.6321 19.9163H88.3984V38.5117H95.1359C96.3746 38.5316 97.6074 38.3373 98.78 37.9375ZM92.3003 22.9862H94.4329C95.2428 22.936 96.0515 23.1018 96.7763 23.4666C97.0444 23.6453 97.2589 23.8933 97.3972 24.1842C97.5354 24.4751 97.5922 24.7981 97.5614 25.1188C97.5743 25.4404 97.5135 25.7607 97.3835 26.0552C97.2535 26.3497 97.0579 26.6106 96.8115 26.8178C96.1027 27.2981 95.2509 27.5214 94.3977 27.4505H92.3003V22.9862ZM92.3003 35.5003V30.3564H94.7961C95.7527 30.2963 96.7078 30.4946 97.5614 30.9306C97.8675 31.1327 98.1138 31.4133 98.2745 31.7431C98.4353 32.0728 98.5046 32.4397 98.4753 32.8053C98.5021 33.1965 98.4303 33.588 98.2665 33.9442C98.1028 34.3004 97.8523 34.6098 97.538 34.8441C96.7056 35.3429 95.7409 35.5759 94.7727 35.512L92.3003 35.5003Z" fill="white"/>
<path d="M109.397 30.2391C109.667 29.4011 110.181 28.6628 110.873 28.1183C111.358 27.7638 111.937 27.56 112.537 27.5324C112.8 27.5313 113.063 27.5509 113.322 27.591C113.557 27.6316 113.788 27.6904 114.014 27.7668L114.67 24.3805C114.453 24.2801 114.225 24.2054 113.99 24.1578C113.669 24.1074 113.343 24.0839 113.018 24.0875C112.248 24.1076 111.501 24.3564 110.873 24.8023C110.114 25.3649 109.5 26.0999 109.081 26.9466H109.022L108.741 24.4742H105.507V38.535H109.409L109.397 30.2391Z" fill="white"/>
<path d="M125.215 33.848C124.881 34.3547 124.456 34.7955 123.962 35.1486C123.533 35.4034 123.042 35.5333 122.544 35.5236C122.272 35.5449 122 35.5007 121.749 35.3947C121.498 35.2887 121.276 35.1239 121.103 34.9143C120.724 34.2456 120.56 33.4764 120.634 32.7114V24.439H116.732V33.1918C116.65 34.6536 117.018 36.1054 117.787 37.3515C118.165 37.8615 118.666 38.2668 119.244 38.5293C119.823 38.7917 120.458 38.9025 121.091 38.8513C121.964 38.8774 122.827 38.6625 123.587 38.2303C124.334 37.7741 124.999 37.1959 125.555 36.5195H125.637L125.93 38.5115H129.105V24.4507H125.215V33.848Z" fill="white"/>
<path d="M140.94 30.9657C140.366 30.6373 139.767 30.3551 139.148 30.1221C138.655 29.958 138.198 29.7823 137.753 29.6065C137.378 29.4755 137.026 29.2856 136.71 29.0441C136.587 28.9563 136.487 28.8403 136.417 28.7057C136.348 28.5712 136.312 28.4221 136.312 28.2707C136.31 28.0937 136.347 27.9185 136.422 27.7581C136.498 27.5978 136.608 27.4566 136.746 27.3451C137.135 27.083 137.601 26.9592 138.07 26.9935C138.591 26.9928 139.107 27.1047 139.581 27.3216C140.114 27.5636 140.617 27.8664 141.081 28.2239L142.827 25.8804C142.18 25.4092 141.48 25.0159 140.741 24.7087C139.862 24.3264 138.911 24.1386 137.952 24.158C136.576 24.0789 135.217 24.4945 134.121 25.3297C133.651 25.7043 133.276 26.1831 133.024 26.7282C132.771 27.2733 132.65 27.8696 132.668 28.4699C132.641 29.1691 132.847 29.8576 133.254 30.4267C133.637 30.9603 134.128 31.4075 134.695 31.7391C135.259 32.0665 135.847 32.3523 136.453 32.5944L137.859 33.1451C138.251 33.2941 138.615 33.508 138.937 33.7779C139.065 33.8755 139.168 34.0014 139.239 34.1457C139.31 34.2901 139.347 34.4489 139.347 34.6098C139.358 34.8005 139.322 34.9909 139.242 35.1645C139.162 35.3381 139.041 35.4896 138.89 35.6058C138.465 35.8899 137.958 36.0221 137.449 35.9807C136.811 35.9753 136.181 35.8397 135.597 35.5824C134.93 35.2645 134.301 34.8714 133.722 34.4106L131.953 36.8595C132.713 37.4587 133.563 37.9333 134.472 38.2656C135.383 38.6243 136.353 38.811 137.331 38.8163C138.401 38.8522 139.465 38.6522 140.448 38.2305C141.225 37.8731 141.89 37.3099 142.37 36.6018C142.805 35.9238 143.033 35.134 143.026 34.3286C143.054 33.5838 142.845 32.8493 142.428 32.2312C142.03 31.7065 141.522 31.2747 140.94 30.9657Z" fill="white"/>
<path d="M146.516 33.5082C146.452 34.8811 146.834 36.2379 147.606 37.3749C148.05 37.8986 148.615 38.3065 149.252 38.5637C149.889 38.8209 150.579 38.9196 151.262 38.8513C151.836 38.8606 152.41 38.8055 152.973 38.6873C153.488 38.5701 153.922 38.4647 154.308 38.3475L153.687 35.5002C153.472 35.5784 153.253 35.6449 153.031 35.6994C152.785 35.7555 152.534 35.7831 152.281 35.7814C152.027 35.7946 151.772 35.7522 151.535 35.6571C151.298 35.562 151.085 35.4165 150.91 35.2307C150.532 34.7311 150.353 34.1091 150.407 33.4848V27.5089H153.851V24.439H150.407V20.6777H147.196L146.739 24.439L144.583 24.603V27.5089H146.516V33.5082Z" fill="white"/>
<path d="M167.315 35.4415H160.976L167.116 26.5364V24.439H156.816V27.5089H162.253L156.137 36.4375V38.5115H167.315V35.4415Z" fill="white"/>
<path d="M172.846 37.9729C173.951 38.5662 175.189 38.8687 176.443 38.8517C177.319 38.8481 178.189 38.7057 179.021 38.4299C179.852 38.15 180.641 37.7556 181.364 37.2582L180.087 34.9147C179.606 35.2041 179.096 35.4398 178.564 35.6177C178.045 35.7846 177.503 35.8677 176.958 35.8638C176.29 35.8624 175.63 35.7144 175.025 35.4303C174.399 35.1277 173.877 34.6466 173.525 34.0476C173.281 33.5921 173.122 33.0957 173.056 32.5829H181.739C181.739 32.4189 181.809 32.1611 181.856 31.833C181.874 31.4974 181.874 31.161 181.856 30.8253C181.877 29.6391 181.65 28.4617 181.188 27.3687C180.777 26.388 180.084 25.5518 179.196 24.9667C178.216 24.3481 177.074 24.0379 175.915 24.0762C174.789 24.0791 173.685 24.3956 172.728 24.9901C171.702 25.6205 170.855 26.5041 170.268 27.5562C169.608 28.7569 169.28 30.1119 169.319 31.4815C169.274 32.8615 169.597 34.2286 170.256 35.442C170.862 36.5142 171.76 37.392 172.846 37.9729ZM173.396 28.9154C173.637 28.3396 174.045 27.8497 174.568 27.5093C175.009 27.2281 175.521 27.0777 176.044 27.0758C176.406 27.0437 176.769 27.1019 177.103 27.245C177.436 27.3882 177.729 27.6119 177.954 27.896C178.373 28.5174 178.583 29.2564 178.552 30.0051H173.068C173.137 29.631 173.247 29.2656 173.396 28.9154Z" fill="white"/>
<path d="M189.016 28.9269C189.436 28.4947 189.895 28.1025 190.387 27.7551C190.823 27.4867 191.328 27.3522 191.84 27.3685C192.11 27.3476 192.382 27.3945 192.629 27.505C192.877 27.6155 193.093 27.7861 193.258 28.0012C193.624 28.6786 193.783 29.4488 193.715 30.2158V38.4179H197.617V29.7588C197.696 28.2988 197.333 26.8489 196.574 25.5992C196.197 25.0844 195.694 24.675 195.113 24.4103C194.533 24.1457 193.894 24.0345 193.258 24.0876C192.368 24.0725 191.49 24.295 190.715 24.7321C189.987 25.1548 189.314 25.6665 188.711 26.2553H188.594L188.313 24.4391H185.185V38.4999H189.075L189.016 28.9269Z" fill="white"/>
<path d="M202.103 33.5082C202.037 34.883 202.424 36.2415 203.205 37.3749C203.649 37.8986 204.214 38.3065 204.851 38.5637C205.487 38.8209 206.177 38.9196 206.861 38.8513C207.452 38.8574 208.042 38.7944 208.618 38.6638C209.134 38.5467 209.579 38.4412 209.954 38.324L209.333 35.4767C209.118 35.5566 208.899 35.6231 208.677 35.6759C208.435 35.7322 208.187 35.7597 207.939 35.7579C207.682 35.7698 207.426 35.7267 207.188 35.6318C206.949 35.5368 206.734 35.3921 206.556 35.2072C206.187 34.7036 206.012 34.0836 206.064 33.4613V27.4855H209.509V24.439H206.064V20.6777H202.759L202.314 24.439L200.146 24.603V27.5089H202.08L202.103 33.5082Z" fill="white"/>
<path d="M216.446 30.2391C216.718 29.4054 217.232 28.6714 217.922 28.13C218.419 27.7626 219.015 27.5542 219.633 27.5324C219.896 27.5313 220.158 27.5509 220.418 27.591C220.653 27.6316 220.884 27.6904 221.109 27.7668L221.765 24.3805C221.548 24.2801 221.32 24.2054 221.086 24.1578C220.764 24.1074 220.439 24.0839 220.113 24.0875C219.343 24.1076 218.597 24.3564 217.969 24.8023C217.197 25.3495 216.567 26.0724 216.129 26.9114H216.012L215.731 24.439H212.544V38.4998H216.446V30.2391Z" fill="white"/>
<path d="M232.265 33.848C231.93 34.3547 231.505 34.7955 231.011 35.1486C230.579 35.4049 230.084 35.5349 229.582 35.5236C229.312 35.545 229.041 35.5008 228.792 35.3947C228.543 35.2885 228.324 35.1237 228.152 34.9143C227.773 34.2456 227.61 33.4764 227.684 32.7114V24.439H223.782V33.1918C223.7 34.6536 224.068 36.1054 224.836 37.3515C225.214 37.8615 225.716 38.2668 226.294 38.5293C226.872 38.7917 227.508 38.9025 228.141 38.8513C229.014 38.8774 229.877 38.6625 230.636 38.2303C231.384 37.7741 232.049 37.1959 232.605 36.5195H232.687L232.968 38.5115H236.155V24.4507H232.265V33.848Z" fill="white"/>
<path d="M259.8 25.5991C259.419 25.0858 258.914 24.6779 258.332 24.4135C257.75 24.1491 257.11 24.0369 256.473 24.0875C255.607 24.0779 254.759 24.3267 254.035 24.8023C253.304 25.2933 252.631 25.8673 252.032 26.513C251.729 25.792 251.224 25.1736 250.579 24.732C249.846 24.2756 248.992 24.051 248.13 24.0875C247.303 24.0819 246.49 24.3093 245.786 24.7437C245.105 25.1822 244.476 25.6972 243.912 26.2787H243.771L243.49 24.4391H240.256V38.4999H244.158V28.9268C244.467 28.5156 244.856 28.1702 245.301 27.9107C245.745 27.6511 246.237 27.4827 246.747 27.4153C247.016 27.3931 247.286 27.4396 247.532 27.5502C247.778 27.6609 247.992 27.8322 248.153 28.048C248.509 28.7289 248.664 29.4971 248.599 30.2626V38.4647H252.489V28.9268C252.889 28.4741 253.35 28.0797 253.86 27.7551C254.21 27.528 254.614 27.3985 255.031 27.3801C255.3 27.358 255.57 27.4044 255.816 27.5151C256.062 27.6258 256.276 27.797 256.438 28.0128C256.793 28.6937 256.948 29.4619 256.883 30.2274V38.4296H260.785V29.7587C260.888 28.3043 260.544 26.853 259.8 25.5991Z" fill="white"/>
<path d="M99.0729 61.3253H92.3003V54.1074H88.3984V72.656H92.3003V64.7468H99.0729V72.656H102.963V54.1074H99.0729V61.3253Z" fill="white"/>
<path d="M116.438 59.1108C115.452 58.498 114.306 58.1922 113.145 58.232C112.019 58.2349 110.915 58.5514 109.958 59.1459C108.933 59.7731 108.086 60.6525 107.497 61.7003C106.842 62.8985 106.515 64.2485 106.548 65.6139C106.508 66.9971 106.831 68.3668 107.486 69.5861C108.085 70.6483 108.97 71.5212 110.04 72.1053C111.144 72.701 112.383 73.0036 113.637 72.9841C114.51 72.9808 115.376 72.8384 116.203 72.5623C117.035 72.2811 117.823 71.8868 118.547 71.3905L117.223 69.1291C116.749 69.4195 116.241 69.6516 115.711 69.8204C115.189 69.9874 114.643 70.0704 114.094 70.0665C113.427 70.0691 112.767 69.9251 112.161 69.6446C111.54 69.3402 111.022 68.8593 110.673 68.262C110.419 67.8053 110.256 67.304 110.192 66.7856H118.875C118.932 66.5349 118.972 66.2804 118.992 66.024C119.01 65.6883 119.01 65.352 118.992 65.0163C119.02 63.8106 118.793 62.6125 118.324 61.5011C117.933 60.5425 117.279 59.7139 116.438 59.1108ZM110.263 64.1492C110.321 63.7688 110.431 63.3981 110.591 63.0478C110.834 62.4735 111.241 61.9842 111.763 61.6417C112.211 61.3687 112.725 61.2229 113.251 61.2199C113.609 61.1894 113.969 61.2472 114.3 61.3882C114.631 61.5291 114.922 61.7489 115.149 62.0284C115.57 62.653 115.78 63.3965 115.746 64.1492H110.263Z" fill="white"/>
<path d="M124.254 52.2325C123.676 52.2114 123.112 52.4175 122.684 52.8066C122.479 52.9976 122.318 53.2304 122.21 53.4891C122.103 53.7479 122.053 54.0266 122.063 54.3065C122.053 54.5881 122.103 54.8686 122.21 55.1293C122.317 55.3899 122.479 55.6247 122.684 55.818C123.111 56.2103 123.674 56.4205 124.254 56.4039C124.834 56.4243 125.399 56.2136 125.824 55.818C126.027 55.6229 126.187 55.3878 126.294 55.1276C126.401 54.8673 126.452 54.5877 126.445 54.3065C126.453 54.0269 126.401 53.7488 126.294 53.4904C126.187 53.232 126.027 52.999 125.824 52.8066C125.613 52.6123 125.366 52.4616 125.096 52.363C124.827 52.2645 124.541 52.2201 124.254 52.2325Z" fill="white"/>
<path d="M126.21 58.5718H122.309V72.656H126.21V58.5718Z" fill="white"/>
<path d="M138.842 57.5524L138.983 59.7318C138.527 59.2924 138.01 58.9214 137.448 58.6304C136.824 58.3442 136.142 58.2078 135.456 58.232C134.435 58.2344 133.439 58.5448 132.597 59.1225C131.657 59.7686 130.901 60.6491 130.406 61.6769C129.814 62.9073 129.525 64.261 129.562 65.6256C129.449 67.555 130.008 69.4639 131.144 71.0273C131.639 71.6628 132.276 72.1724 133.005 72.5145C133.734 72.8566 134.534 73.0216 135.339 72.9958C136.058 72.9907 136.765 72.814 137.401 72.4803C138.047 72.1599 138.637 71.7364 139.147 71.2265H139.264L139.545 72.656H142.733V52.7249H138.842V57.5524ZM138.842 68.4378C138.537 68.8735 138.136 69.2341 137.671 69.4924C137.258 69.7065 136.799 69.8152 136.335 69.8087C135.933 69.8226 135.535 69.7328 135.178 69.5482C134.82 69.3635 134.517 69.0901 134.296 68.7542C133.776 67.7936 133.544 66.7032 133.628 65.6139C133.598 64.8147 133.729 64.0175 134.015 63.2705C134.219 62.7266 134.567 62.2487 135.023 61.8878C135.42 61.5949 135.9 61.4349 136.393 61.4308C136.824 61.4323 137.251 61.5035 137.659 61.6417C138.121 61.8082 138.543 62.0674 138.901 62.4034L138.842 68.4378Z" fill="white"/>
<path d="M155.891 59.1108C154.905 58.498 153.759 58.1922 152.598 58.232C151.472 58.2349 150.368 58.5514 149.411 59.1459C148.386 59.7731 147.539 60.6525 146.951 61.7003C146.293 62.902 145.966 64.2563 146.001 65.6256C145.961 67.0089 146.284 68.3785 146.939 69.5978C147.534 70.6592 148.415 71.5321 149.481 72.117C150.59 72.7113 151.832 73.0137 153.09 72.9958C153.963 72.9926 154.829 72.8502 155.657 72.574C156.488 72.2928 157.276 71.8985 158 71.4022L156.711 69.0588C156.234 69.3515 155.722 69.5837 155.188 69.7501C154.669 69.917 154.127 70.0001 153.583 69.9962C152.915 69.9988 152.255 69.8548 151.649 69.5743C151.028 69.2699 150.51 68.789 150.161 68.1917C149.909 67.7386 149.746 67.2414 149.681 66.727H158.363C158.363 66.5513 158.445 66.3052 158.48 65.9654C158.518 65.6308 158.537 65.2944 158.539 64.9577C158.567 63.752 158.339 62.5539 157.871 61.4425C157.445 60.4935 156.758 59.6849 155.891 59.1108ZM149.716 64.1492C149.774 63.7688 149.885 63.3981 150.044 63.0478C150.287 62.4735 150.695 61.9842 151.216 61.6417C151.664 61.3687 152.179 61.2229 152.704 61.2199C153.062 61.1894 153.422 61.2472 153.753 61.3882C154.084 61.5291 154.376 61.7489 154.602 62.0284C155.023 62.653 155.233 63.3965 155.2 64.1492H149.716Z" fill="white"/>
<path d="M166.612 69.8204H166.436C166.34 69.8155 166.246 69.7912 166.159 69.7489C166.073 69.7066 165.996 69.6472 165.933 69.5744C165.752 69.3143 165.669 68.999 165.698 68.6839V52.7249H161.75V68.5315C161.733 69.327 161.852 70.1194 162.101 70.875C162.316 71.5056 162.727 72.0514 163.273 72.4334C163.912 72.8284 164.655 73.0204 165.405 72.9841C165.799 72.9915 166.191 72.9561 166.577 72.8787C166.862 72.8294 167.14 72.7509 167.409 72.6443L166.929 69.7736L166.612 69.8204Z" fill="white"/>
<path d="M180.614 59.1225C179.744 58.5121 178.7 58.1997 177.638 58.232C176.947 58.2325 176.264 58.3803 175.634 58.6655C174.978 58.9645 174.37 59.3594 173.83 59.8373L173.912 57.6227V52.7249H170.01V72.6443H173.091L173.396 71.1328H173.513C174.028 71.6966 174.639 72.1647 175.318 72.5154C175.913 72.8189 176.571 72.9793 177.239 72.9841C178.273 72.9809 179.281 72.6665 180.134 72.0819C181.084 71.4236 181.844 70.5263 182.336 69.4806C182.936 68.1903 183.229 66.7786 183.192 65.3561C183.222 64.0742 182.994 62.7994 182.524 61.6066C182.129 60.6178 181.468 59.7579 180.614 59.1225ZM178.809 67.9574C178.617 68.53 178.258 69.032 177.778 69.3986C177.369 69.7053 176.872 69.8699 176.361 69.8673C175.96 69.8604 175.564 69.7851 175.189 69.6447C174.723 69.4662 174.295 69.2041 173.923 68.8713V62.8135C174.299 62.3865 174.747 62.0295 175.247 61.7589C175.658 61.5514 176.111 61.443 176.571 61.4426C177.097 61.4262 177.613 61.5872 178.036 61.8995C178.456 62.2494 178.759 62.7197 178.903 63.247C179.106 63.9553 179.2 64.69 179.184 65.4264C179.215 66.2859 179.088 67.1438 178.809 67.9574Z" fill="white"/>
<path d="M195.554 59.1107C194.554 58.489 193.391 58.1827 192.215 58.2319C191.088 58.2349 189.984 58.5513 189.027 59.1459C187.998 59.7676 187.15 60.6483 186.567 61.7003C185.947 62.9243 185.624 64.277 185.624 65.649C185.624 67.021 185.947 68.3737 186.567 69.5977C187.161 70.6592 188.043 71.5321 189.109 72.117C190.215 72.7103 191.452 73.0127 192.707 72.9958C193.583 72.9922 194.453 72.8498 195.284 72.5739C196.117 72.2962 196.906 71.9017 197.628 71.4022L196.351 69.0587C195.872 69.349 195.361 69.5811 194.827 69.7501C194.309 69.917 193.767 70 193.222 69.9961C192.555 69.9988 191.895 69.8548 191.289 69.5743C190.695 69.262 190.203 68.7863 189.871 68.2034C189.619 67.7503 189.456 67.2531 189.391 66.7387H198.073C198.073 66.563 198.144 66.3169 198.19 65.9771C198.228 65.6425 198.247 65.3061 198.249 64.9694C198.273 63.7628 198.042 62.5648 197.569 61.4542C197.137 60.4956 196.437 59.682 195.554 59.1107ZM189.367 64.1492C189.435 63.7695 189.549 63.3995 189.707 63.0478C189.946 62.4708 190.354 61.9803 190.879 61.6417C191.324 61.3707 191.834 61.225 192.355 61.2199C192.715 61.1885 193.078 61.2458 193.411 61.3867C193.744 61.5276 194.037 61.7479 194.265 62.0283C194.686 62.653 194.896 63.3965 194.863 64.1492H189.367Z" fill="white"/>
<path d="M208.993 58.2322C208.219 58.2463 207.467 58.4956 206.837 58.9469C206.068 59.4891 205.441 60.2085 205.009 61.0443H204.892L204.611 58.5837H201.424V72.6445H205.326V64.372C205.598 63.5416 206.112 62.8114 206.802 62.2746C207.295 61.9074 207.887 61.699 208.501 61.677C208.762 61.6566 209.025 61.6566 209.286 61.677L209.989 61.8528L210.645 58.4665C210.426 58.3652 210.193 58.2942 209.954 58.2556C209.635 58.2201 209.314 58.2122 208.993 58.2322Z" fill="white"/>
<path d="M220.255 70.1485H217.911C217.342 70.1912 216.771 70.0947 216.247 69.8673C216.093 69.7912 215.963 69.6725 215.874 69.525C215.785 69.3776 215.739 69.2077 215.744 69.0354C215.732 68.8043 215.781 68.5743 215.884 68.3675C215.999 68.1861 216.146 68.0272 216.318 67.8988C216.621 67.9938 216.93 68.0682 217.243 68.1214C217.518 68.1666 217.797 68.1902 218.075 68.1917C219.026 68.205 219.97 68.0298 220.852 67.6761C221.697 67.3494 222.416 66.7622 222.905 65.9996C223.394 65.2369 223.627 64.3385 223.571 63.4345C223.579 63.0368 223.519 62.6406 223.395 62.2627C223.302 61.9528 223.16 61.6599 222.973 61.3957H225.317V58.5835H220.231C219.9 58.4837 219.564 58.4015 219.224 58.3374C218.836 58.2756 218.444 58.2442 218.052 58.2437C217.083 58.2316 216.123 58.4315 215.24 58.8296C214.391 59.1915 213.657 59.7791 213.119 60.5286C212.559 61.3524 212.275 62.3333 212.31 63.329C212.292 64.0967 212.496 64.8533 212.896 65.5084C213.228 66.0845 213.666 66.5933 214.185 67.0083V67.1137C213.752 67.4329 213.382 67.8303 213.095 68.2854C212.806 68.7089 212.643 69.2062 212.627 69.7189C212.61 70.2315 212.74 70.7383 213.002 71.1796C213.239 71.5539 213.545 71.8799 213.904 72.1404V72.2459C213.332 72.5595 212.833 72.9908 212.439 73.5114C212.094 73.9793 211.909 74.5466 211.912 75.1284C211.898 75.5016 211.959 75.8739 212.089 76.2238C212.22 76.5736 212.419 76.8943 212.674 77.1672C213.26 77.7378 213.988 78.1422 214.783 78.3389C215.756 78.6077 216.761 78.7378 217.771 78.7256C219.174 78.7556 220.571 78.5334 221.895 78.0694C222.932 77.7182 223.857 77.0998 224.578 76.2767C225.206 75.5606 225.548 74.639 225.539 73.6871C225.577 73.1575 225.469 72.6277 225.227 72.1548C224.985 71.682 224.619 71.284 224.168 71.0039C222.966 70.3686 221.613 70.0729 220.255 70.1485ZM216.587 61.5011C216.775 61.2987 217.004 61.1387 217.259 61.0316C217.513 60.9245 217.788 60.8729 218.064 60.8801C218.438 60.8741 218.807 60.9714 219.13 61.1613C219.45 61.3572 219.707 61.6422 219.868 61.9815C220.063 62.399 220.155 62.8569 220.138 63.3173C220.155 63.789 220.063 64.2583 219.868 64.6882C219.715 65.0417 219.457 65.34 219.13 65.5436C218.805 65.7274 218.437 65.824 218.064 65.824C217.69 65.824 217.323 65.7274 216.997 65.5436C216.67 65.34 216.413 65.0417 216.259 64.6882C216.07 64.2566 215.978 63.7885 215.99 63.3173C215.946 62.6574 216.16 62.0063 216.587 61.5011ZM221.38 75.3158C221.048 75.6312 220.646 75.864 220.208 75.9955C219.634 76.1674 219.037 76.2504 218.439 76.2415C217.634 76.27 216.833 76.1178 216.095 75.7963C215.832 75.6972 215.606 75.5212 215.445 75.2912C215.284 75.0612 215.196 74.788 215.193 74.5073C215.19 74.2276 215.263 73.9524 215.404 73.7106C215.579 73.4255 215.806 73.1752 216.072 72.9724L216.904 73.113C217.273 73.1539 217.645 73.1735 218.017 73.1716H219.634C220.197 73.1471 220.76 73.2224 221.298 73.3942C221.484 73.465 221.643 73.595 221.748 73.7643C221.854 73.9336 221.902 74.1328 221.883 74.3316C221.872 74.5216 221.822 74.7073 221.735 74.8768C221.648 75.0462 221.527 75.1958 221.38 75.3158Z" fill="white"/>
<path d="M43.9199 75.5853C43.3926 75.5853 42.8653 75.5853 42.3263 75.515C40.3475 75.3464 38.3872 75.0053 36.4677 74.4956C30.8665 73.0406 25.6068 70.4964 20.9891 67.0082C20.3095 68.8361 19.5791 70.6523 18.7979 72.4568C18.635 72.8423 18.328 73.1489 17.9423 73.3114C17.5567 73.4738 17.1228 73.4792 16.7332 73.3265C16.3436 73.1737 16.029 72.8748 15.8566 72.4934C15.6841 72.1121 15.6674 71.6785 15.81 71.2851C16.638 69.1759 17.466 67.0473 18.2941 64.8991C12.2466 59.5264 7.47166 52.8743 4.31597 45.4259C1.16027 37.9775 -0.296932 29.9198 0.0501763 21.8379C0.354827 15.5105 1.74919 10.5424 4.38559 6.81628C7.84221 1.85985 13.6306 -0.788271 18.7979 0.207702C21.047 0.742346 23.14 1.79525 24.91 3.2824C26.6799 4.76954 28.0777 6.64978 28.992 8.77308C30.6811 12.7799 31.4806 17.1054 31.3355 21.4512C31.3447 27.7073 30.6768 33.946 29.3435 40.0584L33.2454 39.6131C41.7873 39.1444 52.4267 38.5703 58.59 46.913C60.4503 49.4791 61.6165 52.4819 61.9757 55.6309C62.3349 58.7799 61.875 61.9683 60.6405 64.8874C59.2182 68.1201 56.8722 70.8603 53.8972 72.7637C50.9223 74.6671 47.4511 75.6488 43.9199 75.5853ZM22.1491 63.868C26.6039 67.3893 31.7439 69.9433 37.241 71.3671C38.9864 71.8389 40.7707 72.1526 42.5724 72.3045C45.6888 72.6376 48.8306 71.9758 51.5479 70.4141C54.2652 68.8523 56.4186 66.4706 57.6995 63.6102C58.7171 61.2077 59.0975 58.5833 58.804 55.9908C58.5104 53.3983 57.5529 50.9254 56.0239 48.8112C50.8917 41.8746 41.6233 42.3784 33.4329 42.8237H32.7767L28.6053 43.3509C26.8666 50.3171 24.7106 57.1723 22.1491 63.8797V63.868ZM16.513 3.19562C12.5994 3.19562 9.01394 5.78515 7.02199 8.64419C4.73711 11.9133 3.56538 16.2605 3.29588 21.9668C2.98214 29.3661 4.27207 36.7458 7.07723 43.5999C9.8824 50.4541 14.1365 56.6206 19.5478 61.6769C21.7473 55.8254 23.6326 49.8606 25.1956 43.8079L18.9268 44.593C18.5042 44.6458 18.0779 44.5286 17.7416 44.2671C17.4054 44.0056 17.1869 43.6213 17.1341 43.1986C17.0812 42.776 17.1985 42.3497 17.4599 42.0135C17.7214 41.6772 18.1058 41.4587 18.5284 41.4059L25.9806 40.4802C27.4234 34.2476 28.1585 27.8721 28.1718 21.4747C28.1718 16.5651 27.4922 13.0616 26.1095 10.1323C25.4036 8.47148 24.3236 6.99617 22.9537 5.8214C21.5838 4.64664 19.9611 3.80416 18.212 3.35967C17.653 3.24545 17.0836 3.19046 16.513 3.19562Z" fill="white"/>
</svg>
