<svg width="251" height="103" viewBox="0 0 251 103" fill="none" xmlns="http://www.w3.org/2000/svg">
<path d="M81.1621 102.867H83.5235V97.9578L86.2588 94.9835L90.5007 102.867H93.3002L87.7867 93.1038L92.7766 86.7462H89.9772L83.5662 95.0498H83.5235V86.7462H81.1621V102.867Z" fill="white"/>
<path d="M94.7426 100.081C94.7426 101.09 95.0204 101.809 95.576 102.237C96.1032 102.657 96.7728 102.867 97.5848 102.867H98.5785V100.689H97.8092C97.2536 100.689 96.9758 100.427 96.9758 99.9037V86.7462H94.7426V100.081Z" fill="white"/>
<path d="M100.448 102.867H102.682V91.39H100.448V102.867ZM100.448 89.0571H102.682V86.7462H100.448V89.0571Z" fill="white"/>
<path d="M105.641 102.867H107.874V96.0339C107.874 95.2304 108.085 94.6186 108.505 94.1985C108.918 93.7709 109.445 93.5572 110.086 93.5572C110.727 93.5572 111.251 93.7709 111.657 94.1985C112.07 94.6186 112.277 95.2304 112.277 96.0339V102.867H114.51V95.2378C114.474 93.9257 114.079 92.9306 113.324 92.2525C112.561 91.5817 111.721 91.2463 110.802 91.2463C109.612 91.2463 108.651 91.6996 107.917 92.6063H107.874V91.39H105.641V102.867Z" fill="white"/>
<path d="M117.459 102.867H119.692V91.39H117.459V102.867ZM117.459 89.0571H119.692V86.7462H117.459V89.0571Z" fill="white"/>
<path d="M122.652 102.867H124.885V99.561L126.637 97.5044L129.586 102.867H132.386L128.037 95.868L131.862 91.39H129.191L124.927 96.7747H124.885V86.7462H122.652V102.867Z" fill="white"/>
<path d="M139.673 98.9529L138.123 100.788C139.783 102.263 141.767 103 144.075 103C147.644 102.955 149.467 101.393 149.546 98.3116C149.546 97.169 149.2 96.1666 148.509 95.3041C147.811 94.427 146.732 93.8852 145.272 93.6788C144.531 93.583 143.947 93.4982 143.519 93.4245C142.75 93.2771 142.191 93.0117 141.842 92.6284C141.493 92.2525 141.318 91.8323 141.318 91.3679C141.332 90.594 141.592 90.0116 142.098 89.621C142.583 89.245 143.188 89.0571 143.915 89.0571C145.318 89.0866 146.604 89.4993 147.772 90.2954L149.086 88.2831C147.654 87.2143 145.97 86.6578 144.032 86.6135C142.422 86.6283 141.179 87.0632 140.303 87.9182C139.398 88.7806 138.946 89.9158 138.946 91.3237C138.946 92.4957 139.306 93.4908 140.025 94.309C140.723 95.1051 141.742 95.6174 143.081 95.8459C143.829 95.9565 144.516 96.056 145.143 96.1444C146.511 96.3877 147.188 97.1101 147.173 98.3116C147.145 99.7784 146.119 100.527 144.096 100.556C142.387 100.541 140.912 100.007 139.673 98.9529Z" fill="white"/>
<path d="M151.971 91.39H150.86V93.1481H151.971V100.036C151.971 100.943 152.227 101.636 152.74 102.115C153.239 102.616 153.88 102.867 154.664 102.867H155.828V100.689H154.995C154.453 100.704 154.19 100.42 154.204 99.8374V93.1481H155.828V91.39H154.204V87.8961H151.971V91.39Z" fill="white"/>
<path d="M157.997 102.867H160.23V100.556H157.997V102.867Z" fill="white"/>
<path d="M168.65 102.867H178.598V100.556H171.011V95.8238H177.487V93.6567H171.011V89.0571H178.598V86.7462H168.65V102.867Z" fill="white"/>
<path d="M180.628 100.081C180.628 101.09 180.906 101.809 181.461 102.237C181.988 102.657 182.658 102.867 183.47 102.867H184.464V100.689H183.694C183.139 100.689 182.861 100.427 182.861 99.9037V86.7462H180.628V100.081Z" fill="white"/>
<path d="M186.334 102.867H188.567V91.39H186.334V102.867ZM186.334 89.0571H188.567V86.7462H186.334V89.0571Z" fill="white"/>
<path d="M191.858 99.362L190.298 100.943C191.744 102.314 193.371 103 195.181 103C196.513 102.985 197.606 102.668 198.461 102.049C199.323 101.444 199.761 100.586 199.775 99.4725C199.775 98.5216 199.537 97.7366 199.059 97.1174C198.546 96.4835 197.713 96.1223 196.559 96.0339L194.721 95.8901C194.18 95.8312 193.802 95.6948 193.589 95.481C193.354 95.2894 193.243 95.0646 193.257 94.8066C193.257 94.4012 193.403 94.0695 193.696 93.8115C193.973 93.5535 194.461 93.4245 195.159 93.4245C195.772 93.4245 196.313 93.5166 196.783 93.7009C197.261 93.9073 197.713 94.169 198.14 94.4859L199.519 92.8164C198.977 92.3299 198.365 91.9429 197.681 91.6554C197.325 91.5227 196.944 91.4195 196.538 91.3458C196.132 91.2795 195.672 91.2463 195.159 91.2463C193.977 91.2463 193.001 91.5412 192.232 92.1308C191.441 92.7205 191.039 93.6051 191.024 94.7845C191.039 95.7648 191.345 96.5277 191.943 97.0732C192.527 97.6334 193.286 97.9578 194.219 98.0462L196.185 98.2231C196.598 98.2379 196.929 98.33 197.179 98.4995C197.421 98.6617 197.542 98.9492 197.542 99.362C197.542 99.8263 197.339 100.188 196.933 100.446C196.527 100.704 196.003 100.833 195.362 100.833C193.931 100.833 192.762 100.342 191.858 99.362Z" fill="white"/>
<path d="M207.864 102.867H210.097V95.0277C210.083 93.6272 209.659 92.6395 208.825 92.0645C207.992 91.5043 206.877 91.2316 205.481 91.2463C203.828 91.2168 202.578 91.777 201.731 92.9269L203.483 94.309C203.675 93.9773 203.939 93.7414 204.274 93.6014C204.594 93.4835 205.032 93.4245 205.588 93.4245C207.119 93.395 207.878 93.8852 207.864 94.895V96.1002H204.776C203.593 96.115 202.696 96.4467 202.083 97.0953C201.471 97.7292 201.164 98.529 201.164 99.4946C201.164 100.504 201.517 101.334 202.222 101.982C202.892 102.646 203.846 102.985 205.086 103C205.841 103 206.432 102.904 206.859 102.712C207.294 102.528 207.614 102.24 207.821 101.85H207.864V102.867ZM207.864 98.8312C207.864 99.6937 207.689 100.246 207.34 100.49C206.955 100.733 206.297 100.847 205.363 100.833C204.623 100.833 204.092 100.681 203.771 100.379C203.437 100.106 203.269 99.7747 203.269 99.3841C203.255 98.4922 203.896 98.0315 205.192 98.002H207.864V98.8312Z" fill="white"/>
<path d="M212.982 102.867H215.215V101.662C215.956 102.524 216.91 102.97 218.078 103C218.769 102.985 219.361 102.841 219.852 102.568C220.351 102.303 220.753 101.949 221.06 101.507C221.366 101.146 221.576 100.656 221.69 100.036C221.797 99.4467 221.85 98.4737 221.85 97.1174C221.85 95.739 221.797 94.7587 221.69 94.1763C221.576 93.5867 221.366 93.1112 221.06 92.75C220.433 91.7844 219.439 91.2832 218.078 91.2463C217.509 91.2463 216.999 91.3679 216.551 91.6112C216.066 91.8692 215.621 92.2009 215.215 92.6063V86.7462H212.982V102.867ZM217.405 93.5572C217.932 93.5572 218.349 93.6493 218.655 93.8336C218.962 94.0326 219.179 94.3053 219.307 94.6518C219.45 94.9982 219.546 95.3742 219.596 95.7796C219.61 96.2145 219.617 96.6604 219.617 97.1174C219.617 97.5523 219.61 97.9762 219.596 98.389C219.546 98.8239 219.45 99.2145 219.307 99.561C219.179 99.8927 218.962 100.165 218.655 100.379C218.349 100.586 217.932 100.689 217.405 100.689C216.907 100.689 216.511 100.578 216.219 100.357C215.913 100.143 215.689 99.8632 215.546 99.5168C215.411 99.1703 215.322 98.7833 215.279 98.3558C215.236 97.9356 215.215 97.5229 215.215 97.1174C215.215 96.6752 215.236 96.2513 215.279 95.8459C215.322 95.4405 215.411 95.0646 215.546 94.7181C215.689 94.3717 215.913 94.0916 216.219 93.8778C216.511 93.664 216.907 93.5572 217.405 93.5572Z" fill="white"/>
<path d="M232.952 98.002V96.1002C232.938 94.5891 232.485 93.4024 231.595 92.5399C230.719 91.6923 229.647 91.261 228.379 91.2463C227.852 91.2463 227.317 91.3458 226.776 91.5448C226.227 91.7439 225.732 92.0682 225.291 92.5178C224.856 92.9601 224.5 93.5645 224.222 94.3311C223.944 95.083 223.806 96.0265 223.806 97.1617C223.806 98.3411 223.966 99.2993 224.286 100.036C224.578 100.803 224.96 101.4 225.43 101.828C225.672 102.034 225.932 102.207 226.21 102.347C226.473 102.509 226.744 102.638 227.022 102.734C227.577 102.911 228.147 103 228.731 103C230.263 103.014 231.595 102.395 232.727 101.142L231.114 99.7158C230.402 100.46 229.593 100.833 228.689 100.833C227.912 100.833 227.285 100.589 226.808 100.103C226.295 99.6236 226.039 98.9234 226.039 98.002H232.952ZM226.039 96.1002C226.081 95.2083 226.313 94.5338 226.733 94.0768C227.161 93.6419 227.709 93.4245 228.379 93.4245C229.048 93.4245 229.597 93.6419 230.024 94.0768C230.459 94.5338 230.69 95.2083 230.719 96.1002H226.039Z" fill="white"/>
<path d="M235.42 91.39H234.309V93.1481H235.42V100.036C235.42 100.943 235.677 101.636 236.189 102.115C236.688 102.616 237.329 102.867 238.113 102.867H239.277V100.689H238.444C237.903 100.704 237.639 100.42 237.653 99.8374V93.1481H239.277V91.39H237.653V87.8961H235.42V91.39Z" fill="white"/>
<path d="M241.382 102.867H243.615V96.0339C243.615 95.2304 243.826 94.6186 244.246 94.1985C244.659 93.7709 245.186 93.5572 245.827 93.5572C246.468 93.5572 246.992 93.7709 247.398 94.1985C247.811 94.6186 248.018 95.2304 248.018 96.0339V102.867H250.251V95.2378C250.215 93.9257 249.82 92.9306 249.065 92.2525C248.303 91.5817 247.462 91.2463 246.543 91.2463C245.353 91.2463 244.392 91.6996 243.658 92.6063H243.615V86.7462H241.382V102.867Z" fill="white"/>
<path fill-rule="evenodd" clip-rule="evenodd" d="M80.8477 19.996V37.5028H87.0133C88.1473 37.5088 89.2738 37.3139 90.3446 36.9263C91.2584 36.6072 92.0681 36.0292 92.6823 35.2576C93.3058 34.383 93.6159 33.31 93.5589 32.2234C93.6118 31.2121 93.2991 30.2167 92.6823 29.4321C92.0801 28.7603 91.2954 28.2946 90.4322 28.0971C91.1397 27.8222 91.73 27.2953 92.0978 26.6104C92.4995 25.9135 92.7115 25.1165 92.7115 24.3044C92.7662 23.3678 92.4734 22.4449 91.8933 21.7254C91.2995 21.0521 90.5266 20.5769 89.6725 20.3601C88.6486 20.1057 87.5985 19.9834 86.5458 19.996H80.8477ZM86.312 27.0351H84.3834V22.8177H86.3413C87.0787 22.7695 87.8151 22.9266 88.4744 23.2728C88.7149 23.4411 88.907 23.6737 89.0305 23.9462C89.154 24.2186 89.2041 24.5206 89.1757 24.8202C89.193 25.1242 89.1411 25.4282 89.0244 25.7075C88.9076 25.9868 88.7292 26.2338 88.5036 26.4283C87.8599 26.8814 87.0876 27.0953 86.312 27.0351ZM86.5458 34.6507H84.3834L84.2665 29.7962H86.5458C87.413 29.7281 88.2818 29.9064 89.0588 30.312C89.3459 30.4941 89.5793 30.7545 89.7339 31.0647C89.8884 31.375 89.9581 31.7232 89.9355 32.0717C89.9625 32.4464 89.896 32.8219 89.7424 33.162C89.5889 33.5022 89.3534 33.7955 89.0588 34.0136C88.3056 34.4928 87.427 34.7155 86.5458 34.6507ZM96.4229 24.2134V37.5028H99.9002V29.7051C100.15 28.9155 100.617 28.2192 101.244 27.7026C101.697 27.3604 102.234 27.1603 102.793 27.1261H103.524L104.167 27.2778L104.751 24.092L104.137 23.8796H103.261C102.557 23.8858 101.873 24.1191 101.303 24.5472C100.587 25.059 100.005 25.747 99.608 26.5497L99.3451 24.2134H96.4229ZM110.624 37.8365C110.06 37.8727 109.497 37.761 108.987 37.5118C108.476 37.2625 108.034 36.8838 107.701 36.4105C106.998 35.2405 106.662 33.8732 106.737 32.4965V24.2134H110.273V32.0414C110.204 32.76 110.358 33.4826 110.711 34.1045C110.87 34.3031 111.072 34.4591 111.301 34.5595C111.53 34.6598 111.779 34.7015 112.026 34.681C112.476 34.6898 112.919 34.5746 113.312 34.3473C113.762 34.0087 114.148 33.587 114.452 33.1033V24.2134H118.017V37.5027H115.094L114.831 35.5913C114.327 36.2342 113.725 36.7875 113.049 37.2297C112.314 37.6716 111.472 37.8824 110.624 37.8365ZM122.81 37.3206C123.641 37.6492 124.521 37.8238 125.41 37.8364C126.382 37.8665 127.348 37.6803 128.245 37.2902C128.951 36.9445 129.556 36.4106 129.998 35.7429C130.385 35.0964 130.587 34.3496 130.583 33.5886C130.624 32.8842 130.428 32.1868 130.027 31.6165C129.674 31.1033 129.215 30.6783 128.683 30.3725C128.165 30.0726 127.628 29.8091 127.076 29.5836L125.79 29.0982C125.442 28.9728 125.116 28.7882 124.826 28.552C124.715 28.4689 124.626 28.3594 124.565 28.2326C124.504 28.1058 124.473 27.9656 124.475 27.8238C124.468 27.6577 124.501 27.4923 124.573 27.3436C124.645 27.1948 124.752 27.0677 124.884 26.9743C125.232 26.7177 125.658 26.5993 126.082 26.6405C126.556 26.6392 127.024 26.7426 127.456 26.9439C127.913 27.1529 128.345 27.4177 128.742 27.7328L130.32 25.4876C129.734 25.0243 129.096 24.6371 128.42 24.3346C127.617 23.9803 126.751 23.8046 125.878 23.8188C124.624 23.7625 123.391 24.1712 122.401 24.9718C121.96 25.3295 121.608 25.7915 121.374 26.3194C121.14 26.8472 121.031 27.4255 121.056 28.0059C121.042 28.6693 121.237 29.3194 121.612 29.8567C121.978 30.3573 122.435 30.7797 122.956 31.1007C123.464 31.4003 123.991 31.6639 124.534 31.8895L125.878 32.4357C126.237 32.5709 126.572 32.7656 126.871 33.0122C126.985 33.1077 127.078 33.2276 127.144 33.3637C127.21 33.4998 127.246 33.6489 127.251 33.801C127.258 33.98 127.225 34.1582 127.154 34.3215C127.083 34.4848 126.976 34.6286 126.842 34.7416C126.447 35.0175 125.973 35.1458 125.498 35.1057C124.921 35.1062 124.352 34.9713 123.832 34.7113C123.219 34.442 122.64 34.0956 122.108 33.6797L120.501 35.9856C121.197 36.5553 121.977 37.006 122.81 37.3206ZM138.121 37.8365C137.499 37.9019 136.87 37.809 136.29 37.5659C135.709 37.3227 135.195 36.9366 134.79 36.4408C134.094 35.3682 133.745 34.0925 133.797 32.7999V27.0958H132.043V24.3651H134.001L134.41 20.8152H137.332V24.2134H140.488V27.2475H137.332V32.9212C137.294 33.5079 137.46 34.0892 137.8 34.5597C137.958 34.7386 138.153 34.878 138.371 34.9673C138.589 35.0567 138.823 35.0936 139.056 35.0755C139.279 35.1053 139.505 35.1053 139.728 35.0755L140.313 34.8934L140.897 37.5634L139.67 37.8972C139.153 37.9277 138.635 37.9074 138.121 37.8365ZM142.534 35.5306V37.5028L152.762 37.4724V34.4383H146.917L152.528 26.0035V24.0313H143.148V27.0654H148.086L142.534 35.5306ZM161.031 37.8364C159.891 37.8574 158.764 37.5754 157.758 37.0172C156.783 36.455 155.974 35.626 155.421 34.6203C154.834 33.4727 154.542 32.1873 154.573 30.8883C154.54 29.5855 154.843 28.297 155.45 27.1564C155.976 26.1621 156.741 25.326 157.671 24.7291C158.556 24.1837 159.564 23.8906 160.593 23.8795C161.627 23.8492 162.646 24.1454 163.515 24.7291C164.32 25.2746 164.95 26.0561 165.327 26.9743C165.748 28.0105 165.957 29.1265 165.94 30.2512V31.2221V31.9199H158.026C158.108 32.4054 158.264 32.8767 158.489 33.3156C158.798 33.883 159.267 34.3384 159.833 34.6203C160.391 34.8903 161 35.0251 161.616 35.0147C162.11 35.0207 162.603 34.9491 163.077 34.8023C163.553 34.6243 164.013 34.4008 164.45 34.1348L165.619 36.3497C164.96 36.8154 164.242 37.1831 163.486 37.442C162.695 37.7163 161.865 37.8496 161.031 37.8364ZM158.372 28.4307C158.239 28.7647 158.137 29.1102 158.067 29.4623H163.047C163.077 28.7542 162.894 28.054 162.521 27.4598C162.305 27.2013 162.035 26.9983 161.731 26.8667C161.426 26.7351 161.097 26.6785 160.768 26.7013C160.296 26.718 159.835 26.8533 159.424 27.0957C158.956 27.4257 158.591 27.8894 158.372 28.4307ZM168.921 24.2135V37.5029L172.486 37.5635V28.4612C172.86 28.0658 173.271 27.7101 173.713 27.3993C174.108 27.1485 174.565 27.0221 175.028 27.0352C175.276 27.0147 175.525 27.0564 175.753 27.1568C175.982 27.2571 176.184 27.4131 176.343 27.6117C176.667 28.2555 176.809 28.9813 176.752 29.7052V37.5029H180.113V29.2198C180.179 27.848 179.853 26.4864 179.178 25.3058C178.84 24.8385 178.397 24.4642 177.887 24.2157C177.378 23.9671 176.818 23.8518 176.255 23.8797C175.439 23.8679 174.633 24.077 173.918 24.4865C173.265 24.8903 172.657 25.3686 172.106 25.9126L171.843 24.2135H168.921ZM188.82 37.8365C188.198 37.9019 187.569 37.809 186.989 37.5659C186.408 37.3227 185.894 36.9366 185.489 36.4408C184.793 35.3682 184.445 34.0925 184.496 32.7999V27.0958H182.742V24.3651H184.7L185.138 20.8152H188.061V24.2134H191.187V27.2475H187.944V32.9212C187.897 33.5041 188.053 34.0851 188.382 34.5597C188.542 34.7369 188.737 34.8751 188.954 34.9643C189.172 35.0535 189.405 35.0914 189.639 35.0755C189.862 35.1067 190.088 35.1067 190.311 35.0755L190.924 34.8934L191.479 37.5634L190.281 37.8972C189.794 37.9204 189.305 37.9001 188.82 37.8365ZM193.904 24.2134V37.5028H197.382V29.7051C197.631 28.9155 198.099 28.2192 198.726 27.7026C199.178 27.3604 199.716 27.1603 200.275 27.1261H201.005L201.648 27.2778L202.232 24.092L201.619 23.8796H200.742C200.039 23.8858 199.354 24.1191 198.784 24.5472C198.069 25.059 197.487 25.747 197.09 26.5497L196.827 24.2134H193.904ZM208.106 37.8365C207.543 37.8727 206.98 37.761 206.47 37.5118C205.959 37.2625 205.517 36.8838 205.184 36.4105C204.481 35.2405 204.144 33.8732 204.22 32.4965V24.2134H207.756V32.0414C207.687 32.76 207.84 33.4826 208.194 34.1045C208.353 34.3031 208.555 34.4591 208.784 34.5595C209.013 34.6598 209.261 34.7015 209.509 34.681C209.958 34.6898 210.402 34.5746 210.795 34.3473C211.229 33.9908 211.613 33.5719 211.934 33.1033V24.2134H215.47V37.5027H212.548L212.197 35.6216C211.69 36.2727 211.076 36.8271 210.386 37.26C209.694 37.6726 208.903 37.8726 208.106 37.8365ZM219.152 24.2134V37.5028L222.746 37.5635V28.4612C223.028 28.0709 223.383 27.7435 223.79 27.4985C224.197 27.2535 224.647 27.0959 225.113 27.0351C225.357 27.0117 225.602 27.0523 225.827 27.153C226.051 27.2537 226.248 27.4114 226.399 27.6116C226.722 28.2555 226.864 28.9812 226.808 29.7051V37.5635H230.285V28.4612C230.663 28.0487 231.084 27.6823 231.542 27.3689C231.879 27.1616 232.261 27.0468 232.652 27.0351C232.896 27.0117 233.141 27.0523 233.366 27.153C233.591 27.2537 233.787 27.4114 233.938 27.6116C234.262 28.2555 234.403 28.9812 234.347 29.7051V37.5028H237.649V29.2197C237.721 27.8433 237.384 26.4772 236.685 25.3057C236.347 24.8384 235.904 24.4642 235.394 24.2156C234.885 23.967 234.325 23.8517 233.763 23.8797C232.983 23.8635 232.218 24.0965 231.571 24.5472C230.905 25.0148 230.288 25.5538 229.73 26.1552C229.449 25.4418 228.96 24.8381 228.331 24.4297C227.701 24.0213 226.964 23.8288 226.223 23.8797C225.452 23.8634 224.693 24.0738 224.032 24.4865C223.416 24.9047 222.848 25.3932 222.337 25.9428L222.074 24.2134H219.152ZM80.8479 69.7856V52.2485H84.3837V59.1055H90.5494V52.2485H94.1144V69.7856H90.5494V62.3217H84.3837V69.7856H80.8479ZM100.543 69.3001C101.552 69.8509 102.676 70.1325 103.816 70.1194C104.667 70.1487 105.517 70.0255 106.329 69.7553C107.083 69.4901 107.8 69.1228 108.462 68.663L107.293 66.4481C106.848 66.7109 106.378 66.9245 105.89 67.0852C105.419 67.2467 104.926 67.3286 104.429 67.328C103.825 67.32 103.229 67.1859 102.676 66.9335C102.114 66.6351 101.639 66.1843 101.303 65.6289C101.079 65.1894 100.924 64.7184 100.841 64.2332H108.754C108.769 63.9907 108.769 63.7475 108.754 63.505C108.77 63.1917 108.77 62.8777 108.754 62.5644C108.771 61.4398 108.562 60.3238 108.141 59.2876C107.747 58.3724 107.12 57.5857 106.329 57.012C105.44 56.4794 104.433 56.199 103.407 56.199C102.381 56.199 101.373 56.4794 100.485 57.012C99.5534 57.6162 98.7804 58.45 98.2345 59.4393C97.6371 60.5718 97.3444 61.8504 97.3871 63.1409C97.3381 64.4514 97.6309 65.7512 98.2345 66.9032C98.7779 67.9068 99.5765 68.736 100.543 69.3001ZM100.891 61.7756C100.959 61.4242 101.058 61.0789 101.186 60.744C101.413 60.1987 101.789 59.7345 102.267 59.409C102.671 59.1497 103.136 59.0131 103.611 59.0145C103.937 58.9814 104.265 59.0334 104.566 59.1659C104.867 59.2984 105.132 59.5071 105.335 59.7731C105.731 60.3571 105.927 61.0623 105.89 61.7756H100.891ZM113.517 54.433C112.989 54.4527 112.475 54.2566 112.085 53.8869C111.904 53.701 111.761 53.4786 111.666 53.2334C111.57 52.9881 111.524 52.7253 111.53 52.4608C111.519 52.1957 111.562 51.9311 111.658 51.6851C111.754 51.4391 111.9 51.2173 112.085 51.0348C112.49 50.6678 113.009 50.4655 113.546 50.4655C114.084 50.4655 114.603 50.6678 115.007 51.0348C115.193 51.2173 115.339 51.4391 115.434 51.6851C115.53 51.9311 115.574 52.1957 115.563 52.4608C115.568 52.7253 115.522 52.9881 115.427 53.2334C115.331 53.4786 115.189 53.701 115.007 53.8869C114.807 54.0774 114.572 54.224 114.316 54.3179C114.06 54.4117 113.788 54.4509 113.517 54.433ZM111.735 69.7856V56.4962H115.27V69.7856H111.735ZM121.47 69.6717C122.135 69.9934 122.865 70.1469 123.598 70.1195C124.29 70.1415 124.975 69.9741 125.585 69.634C126.171 69.3177 126.711 68.9196 127.192 68.4507L127.455 69.7857H130.378V50.9136H126.9V55.5254V57.5886C126.486 57.1641 126.013 56.8062 125.498 56.5267C124.928 56.2636 124.309 56.1391 123.686 56.1626C122.756 56.1637 121.848 56.4601 121.085 57.0122C120.23 57.6147 119.545 58.4418 119.098 59.4091C118.558 60.571 118.297 61.8516 118.338 63.141C118.232 64.9705 118.738 66.782 119.77 68.2687C120.222 68.8692 120.805 69.35 121.47 69.6717ZM125.702 66.782C125.331 66.9781 124.921 67.082 124.504 67.0854L124.533 67.1157C124.163 67.1365 123.794 67.0582 123.461 66.8881C123.129 66.7181 122.844 66.4621 122.634 66.1448C122.136 65.2213 121.913 64.1658 121.991 63.1107C121.969 62.3657 122.088 61.6233 122.342 60.9261C122.525 60.4146 122.838 59.9638 123.248 59.6215C123.613 59.3472 124.053 59.1987 124.504 59.1967C124.893 59.1932 125.28 59.2652 125.644 59.4091C126.068 59.5538 126.456 59.7918 126.783 60.1069V65.7807C126.499 66.1941 126.13 66.5363 125.702 66.782ZM139.729 70.1194C138.589 70.1364 137.463 69.8546 136.456 69.3002C135.483 68.7451 134.682 67.9137 134.147 66.9032C133.534 65.7542 133.231 64.4542 133.271 63.141C133.237 61.8477 133.54 60.5689 134.147 59.4393C134.684 58.443 135.459 57.607 136.397 57.0121C137.274 56.4466 138.288 56.1519 139.32 56.1625C140.35 56.1324 141.366 56.4173 142.242 56.9817C143.041 57.5471 143.669 58.3362 144.053 59.2573C144.475 60.2935 144.684 61.4095 144.667 62.5341C144.697 62.8469 144.697 63.162 144.667 63.4747V64.2029H136.779C136.86 64.6988 137.017 65.1803 137.245 65.6289C137.574 66.1905 138.05 66.643 138.618 66.9336C139.171 67.1859 139.768 67.3201 140.372 67.328C140.868 67.3261 141.361 67.2443 141.833 67.0853C142.313 66.93 142.774 66.7161 143.206 66.4481L144.375 68.663C143.72 69.1346 143.001 69.5027 142.242 69.7553C141.431 70.0292 140.58 70.1524 139.729 70.1194ZM137.128 60.744C137 61.079 136.901 61.4242 136.833 61.7756H141.833C141.854 61.0642 141.66 60.3638 141.277 59.7731C141.074 59.5072 140.81 59.2985 140.508 59.166C140.207 59.0335 139.879 58.9814 139.553 59.0146C139.069 59.0123 138.594 59.1488 138.18 59.409C137.721 59.7485 137.358 60.2094 137.128 60.744ZM148.875 69.6037C149.465 69.9696 150.146 70.1489 150.833 70.1195C151.183 70.1548 151.535 70.1548 151.885 70.1195C152.145 70.0656 152.4 69.9842 152.644 69.8768L152.206 67.1764H151.739C151.558 67.1611 151.391 67.0741 151.271 66.9337C151.111 66.6834 151.038 66.3833 151.066 66.0841V50.9136H147.501V65.9021C147.49 66.6538 147.599 67.4022 147.823 68.117C148.028 68.7077 148.393 69.2242 148.875 69.6037ZM161.761 70.1195C161.15 70.1201 160.547 69.9638 160.008 69.6644C159.377 69.3453 158.811 68.9022 158.342 68.3597L158.05 69.7857H155.128V50.9136H158.722V55.7075V57.801C159.212 57.354 159.764 56.9858 160.359 56.7087C160.934 56.4244 161.563 56.2791 162.2 56.284C163.17 56.2532 164.124 56.5514 164.917 57.1335C165.688 57.7327 166.285 58.5411 166.641 59.4698C167.072 60.5987 167.28 61.8057 167.255 63.0197C167.292 64.3706 167.022 65.7117 166.466 66.9337C166.015 67.9148 165.331 68.7605 164.479 69.3913C163.666 69.9155 162.717 70.1695 161.761 70.1195ZM160.943 67.0854C161.409 67.0878 161.862 66.9275 162.229 66.6303C162.671 66.2881 162.998 65.8105 163.164 65.2649C163.422 64.5162 163.541 63.7234 163.515 62.9287C163.527 62.2311 163.439 61.5356 163.252 60.8655C163.11 60.3719 162.836 59.9302 162.463 59.5911C162.073 59.2981 161.6 59.1487 161.118 59.1664C160.701 59.1626 160.289 59.2669 159.92 59.4698C159.459 59.7145 159.051 60.0553 158.722 60.471V66.1448C159.06 66.4522 159.445 66.6984 159.862 66.873C160.21 67.0044 160.574 67.086 160.943 67.1157V67.0854ZM172.603 69.3003C173.608 69.8585 174.735 70.1404 175.875 70.1195C176.707 70.1424 177.537 70.0193 178.33 69.7554C179.087 69.4965 179.805 69.1288 180.463 68.6631L179.294 66.4482C178.857 66.705 178.397 66.9184 177.921 67.0854C177.448 67.242 176.956 67.3238 176.46 67.3281C175.846 67.3234 175.24 67.1892 174.677 66.9337C174.118 66.6412 173.652 66.1884 173.333 65.629C173.105 65.1804 172.948 64.6988 172.867 64.203H180.785V63.4748C180.8 63.1615 180.8 62.8475 180.785 62.5342C180.801 61.4095 180.592 60.2936 180.171 59.2574C179.777 58.3422 179.151 57.5555 178.359 56.9818C177.48 56.4254 176.466 56.1412 175.437 56.1626C174.406 56.1617 173.395 56.4556 172.515 57.0121C171.586 57.609 170.821 58.4451 170.294 59.4394C169.687 60.5689 169.384 61.8477 169.417 63.141C169.382 64.45 169.674 65.7462 170.265 66.9033C170.819 67.909 171.627 68.738 172.603 69.3003ZM172.911 61.7757C172.98 61.4235 173.082 61.078 173.216 60.7441C173.435 60.2028 173.801 59.739 174.268 59.4091C174.672 59.1499 175.138 59.0132 175.612 59.0146C175.942 58.9844 176.274 59.0377 176.579 59.1698C176.884 59.3019 177.154 59.5089 177.366 59.7732C177.738 60.3674 177.922 61.0675 177.892 61.7757H172.911ZM183.765 69.7857V56.4963H186.687L186.95 58.8326C187.346 58.0381 187.916 57.352 188.616 56.8301C189.186 56.402 189.87 56.1687 190.574 56.1626H191.45L192.064 56.375L191.48 59.5608L190.837 59.4091H190.135C189.573 59.4264 189.031 59.6282 188.587 59.9856C187.948 60.4778 187.477 61.1687 187.243 61.9577V69.7857H183.765ZM195.95 75.156C196.835 75.4098 197.75 75.5324 198.668 75.5201C199.987 75.6231 201.313 75.4792 202.583 75.0953C203.528 74.7562 204.373 74.1712 205.038 73.3962C205.607 72.714 205.918 71.8409 205.915 70.9386C205.95 70.4351 205.851 69.9313 205.629 69.4819C205.408 69.0326 205.072 68.6549 204.658 68.3899C203.559 67.8026 202.328 67.5303 201.093 67.6011H198.931C198.411 67.6359 197.89 67.5423 197.411 67.328C197.274 67.2615 197.158 67.1537 197.08 67.0185C197.002 66.8833 196.965 66.7269 196.973 66.5695C196.92 66.3607 196.92 66.1411 196.973 65.9323C197.085 65.7588 197.223 65.6051 197.382 65.4772L198.23 65.6896H198.989C199.85 65.7074 200.705 65.5422 201.502 65.2041C202.235 64.9057 202.865 64.3883 203.314 63.7174C203.786 62.9713 204.021 62.0908 203.986 61.1991C203.989 60.8371 203.93 60.4775 203.811 60.1372C203.732 59.8429 203.603 59.5655 203.431 59.318H205.535V56.6176H200.889L199.983 56.3749C199.633 56.3449 199.281 56.3449 198.931 56.3749C198.046 56.3651 197.169 56.5513 196.359 56.921C195.592 57.2726 194.927 57.8271 194.431 58.5291C193.92 59.3158 193.664 60.2511 193.7 61.1991C193.686 61.9149 193.868 62.6201 194.226 63.232C194.521 63.7829 194.918 64.2676 195.395 64.658C195.007 64.9498 194.671 65.3091 194.402 65.7199C194.122 66.1279 193.969 66.6149 193.963 67.1156C193.945 67.597 194.067 68.0728 194.314 68.481C194.54 68.8259 194.816 69.1329 195.132 69.3912C194.606 69.6795 194.155 70.0959 193.817 70.6048C193.495 71.0398 193.32 71.5732 193.32 72.1219C193.305 72.4733 193.36 72.8242 193.481 73.1529C193.601 73.4816 193.785 73.7813 194.022 74.0334C194.554 74.583 195.221 74.9712 195.95 75.156ZM200.83 72.9714C200.308 73.1261 199.766 73.1977 199.223 73.1838C198.483 73.2174 197.745 73.0828 197.061 72.7894C196.824 72.6936 196.62 72.5272 196.475 72.3112C196.329 72.0952 196.248 71.8393 196.242 71.5758C196.251 71.3096 196.322 71.0495 196.447 70.8172C196.601 70.5415 196.81 70.3035 197.061 70.1194L197.82 70.2711H200.304C200.818 70.2627 201.33 70.3342 201.824 70.4835C201.995 70.5551 202.139 70.6827 202.234 70.847C202.329 71.0112 202.369 71.2032 202.35 71.3937C202.344 71.5663 202.305 71.736 202.235 71.8924C202.165 72.0489 202.065 72.1889 201.941 72.3039C201.619 72.6045 201.241 72.8319 200.83 72.9714ZM199.895 63.0803C199.604 63.2619 199.27 63.3564 198.931 63.3533C198.582 63.3604 198.237 63.2658 197.937 63.0803C197.648 62.8727 197.417 62.5903 197.265 62.2611C197.106 61.8567 197.027 61.4234 197.031 60.9867C197.008 60.6745 197.044 60.3606 197.14 60.0635C197.235 59.7664 197.387 59.4922 197.587 59.2573C197.755 59.0614 197.963 58.9058 198.195 58.801C198.427 58.6963 198.678 58.6449 198.931 58.6505C199.27 58.6474 199.604 58.7419 199.895 58.9235C200.184 59.1184 200.416 59.391 200.567 59.7124C200.745 60.1108 200.825 60.5485 200.801 60.9867C200.819 61.4246 200.739 61.8609 200.567 62.2611C200.425 62.5962 200.191 62.881 199.895 63.0803Z" fill="white"/>
<path fill-rule="evenodd" clip-rule="evenodd" d="M9.52754 1.3183C11.8358 0.186972 14.3991 -0.228602 16.9209 0.119672L17.0068 0.131529L17.0907 0.154099C19.1352 0.703925 21.0304 1.75183 22.6255 3.21444C24.2206 4.67704 25.4715 6.51398 26.2788 8.57909C27.7595 12.3723 28.4713 16.4537 28.3676 20.557C28.4179 26.6086 27.7383 32.5919 26.581 38.4809L29.5749 38.0871L29.6238 38.0842C29.813 38.0729 30.0036 38.0614 30.1957 38.0499C33.8966 37.827 38.1087 37.5733 42.049 38.2724C46.2454 39.017 50.2775 40.8641 53.1865 45.0602L53.1911 45.0668C54.8764 47.5251 55.9325 50.404 56.2565 53.4232C56.5805 56.4423 56.1614 59.499 55.0399 62.2956L55.0291 62.3226C53.6207 65.6571 51.2533 68.4343 48.2658 70.2573C45.2816 72.0783 41.831 72.854 38.4062 72.4739C36.6201 72.3028 34.8512 71.9688 33.1192 71.4757C27.8565 70.0638 23.1129 67.5954 18.9688 64.3425C18.3317 66.0883 17.6849 67.821 17.0362 69.5396C16.7379 70.3299 15.8915 70.7143 15.1458 70.3982C14.4 70.0821 14.0373 69.1852 14.3356 68.3949C15.0954 66.3818 15.8489 64.3585 16.5844 62.3255C5.57718 52.3106 -0.538784 36.4865 0.0373445 20.9489C0.0100456 15.8607 1.33532 10.8669 3.86178 6.53947L3.87766 6.51227C5.2603 4.2503 7.21932 2.44964 9.52754 1.3183ZM20.0506 61.335C24.0673 64.6284 28.6981 67.1116 33.8431 68.4903L33.8645 68.496C35.4413 68.9455 37.0518 69.2498 38.678 69.405L38.7001 69.4071C41.5184 69.722 44.3585 69.0847 46.8144 67.5861C49.2663 66.0899 51.2099 63.8118 52.3684 61.0766C53.2894 58.7734 53.6332 56.257 53.3665 53.7715C53.0994 51.2824 52.2291 48.9089 50.8402 46.8819C48.5139 43.5283 45.2753 41.9702 41.5687 41.3125C37.9591 40.672 34.0435 40.9067 30.2576 41.1336C30.1169 41.142 29.9763 41.1504 29.8359 41.1588L25.9057 41.6758C24.3933 48.3714 22.3158 54.9374 20.0506 61.335ZM22.8179 42.082C21.4527 47.8653 19.6598 53.5863 17.6845 59.2348C7.90043 49.8507 2.40303 35.3944 2.94498 21.0361L2.94635 20.9999L2.94611 20.9637C2.91615 16.4486 4.08806 12.0162 6.32719 8.17508C7.41074 6.40784 8.94331 5.00075 10.7485 4.11596C12.532 3.24182 14.5097 2.91271 16.4591 3.16473C18.0329 3.60242 19.4914 4.41668 20.7223 5.5454C21.9749 6.69396 22.9573 8.13644 23.5914 9.75808M23.5267 38.8828L16.8738 39.758C16.0767 39.8628 15.5107 40.6326 15.6097 41.4773C15.7086 42.322 16.435 42.9217 17.2321 42.8169L22.8179 42.082M23.5267 38.8828C24.776 32.8359 25.5125 26.7235 25.4589 20.5572L25.4586 20.5287L25.4594 20.5002C25.5558 16.8205 24.9191 13.1597 23.5914 9.75808" fill="white"/>
</svg>
